<?xml version="1.0" encoding="UTF-8" standalone="no"?>
<!-- Created with Inkscape (http://www.inkscape.org/) -->
<svg
   xmlns:dc="http://purl.org/dc/elements/1.1/"
   xmlns:cc="http://creativecommons.org/ns#"
   xmlns:rdf="http://www.w3.org/1999/02/22-rdf-syntax-ns#"
   xmlns:svg="http://www.w3.org/2000/svg"
   xmlns="http://www.w3.org/2000/svg"
   xmlns:sodipodi="http://sodipodi.sourceforge.net/DTD/sodipodi-0.dtd"
   xmlns:inkscape="http://www.inkscape.org/namespaces/inkscape"
   width="654.07361"
   height="244.85037"
   id="svg2"
   inkscape:label="Pozadí"
   sodipodi:version="0.32"
   inkscape:version="0.46"
   sodipodi:docname="laver-picture.svg"
   inkscape:output_extension="org.inkscape.output.svg.inkscape"
   version="1.0">
  <sodipodi:namedview
     id="base"
     pagecolor="#ffffff"
     bordercolor="#666666"
     borderopacity="1.0"
     inkscape:pageopacity="0.0"
     inkscape:pageshadow="2"
     inkscape:zoom="1.2215751"
     inkscape:cx="327.03679"
     inkscape:cy="122.42519"
     inkscape:document-units="px"
     inkscape:current-layer="svg2"
     showgrid="false"
     inkscape:window-width="1280"
     inkscape:window-height="811"
     inkscape:window-x="0"
     inkscape:window-y="20"
     showguides="false"
     inkscape:guide-bbox="true">
    <sodipodi:guide
       orientation="1,0"
       position="237.69458,696.64378"
       id="guide3228" />
    <sodipodi:guide
       orientation="1,0"
       position="202.75965,703.49377"
       id="guide3230" />
    <sodipodi:guide
       orientation="1,0"
       position="144.53475,715.82375"
       id="guide3232" />
    <sodipodi:guide
       orientation="1,0"
       position="265.09454,709.65876"
       id="guide3234" />
    <sodipodi:guide
       orientation="1,0"
       position="299.34448,630.8839"
       id="guide3236" />
    <sodipodi:guide
       orientation="1,0"
       position="350.03439,802.1336"
       id="guide3238" />
    <sodipodi:guide
       orientation="1,0"
       position="365.78936,676.77882"
       id="guide3240" />
    <sodipodi:guide
       orientation="1,0"
       position="376.74934,806.92859"
       id="guide3242" />
  </sodipodi:namedview>
  <defs
     id="defs3">
    <inkscape:perspective
       sodipodi:type="inkscape:persp3d"
       inkscape:vp_x="0 : 526.18109 : 1"
       inkscape:vp_y="0 : 1000 : 0"
       inkscape:vp_z="744.09448 : 526.18109 : 1"
       inkscape:persp3d-origin="372.04724 : 350.78739 : 1"
       id="perspective9" />
    <inkscape:perspective
       id="perspective4504"
       inkscape:persp3d-origin="372.04724 : 350.78739 : 1"
       inkscape:vp_z="744.09448 : 526.18109 : 1"
       inkscape:vp_y="0 : 1000 : 0"
       inkscape:vp_x="0 : 526.18109 : 1"
       sodipodi:type="inkscape:persp3d" />
    <inkscape:perspective
       id="perspective4555"
       inkscape:persp3d-origin="372.04724 : 350.78739 : 1"
       inkscape:vp_z="744.09448 : 526.18109 : 1"
       inkscape:vp_y="0 : 1000 : 0"
       inkscape:vp_x="0 : 526.18109 : 1"
       sodipodi:type="inkscape:persp3d" />
    <inkscape:perspective
       id="perspective4570"
       inkscape:persp3d-origin="372.04724 : 350.78739 : 1"
       inkscape:vp_z="744.09448 : 526.18109 : 1"
       inkscape:vp_y="0 : 1000 : 0"
       inkscape:vp_x="0 : 526.18109 : 1"
       sodipodi:type="inkscape:persp3d" />
    <inkscape:perspective
       id="perspective4585"
       inkscape:persp3d-origin="372.04724 : 350.78739 : 1"
       inkscape:vp_z="744.09448 : 526.18109 : 1"
       inkscape:vp_y="0 : 1000 : 0"
       inkscape:vp_x="0 : 526.18109 : 1"
       sodipodi:type="inkscape:persp3d" />
    <inkscape:perspective
       id="perspective4602"
       inkscape:persp3d-origin="372.04724 : 350.78739 : 1"
       inkscape:vp_z="744.09448 : 526.18109 : 1"
       inkscape:vp_y="0 : 1000 : 0"
       inkscape:vp_x="0 : 526.18109 : 1"
       sodipodi:type="inkscape:persp3d" />
    <inkscape:perspective
       id="perspective4617"
       inkscape:persp3d-origin="372.04724 : 350.78739 : 1"
       inkscape:vp_z="744.09448 : 526.18109 : 1"
       inkscape:vp_y="0 : 1000 : 0"
       inkscape:vp_x="0 : 526.18109 : 1"
       sodipodi:type="inkscape:persp3d" />
    <inkscape:perspective
       id="perspective4632"
       inkscape:persp3d-origin="372.04724 : 350.78739 : 1"
       inkscape:vp_z="744.09448 : 526.18109 : 1"
       inkscape:vp_y="0 : 1000 : 0"
       inkscape:vp_x="0 : 526.18109 : 1"
       sodipodi:type="inkscape:persp3d" />
    <inkscape:perspective
       id="perspective4647"
       inkscape:persp3d-origin="372.04724 : 350.78739 : 1"
       inkscape:vp_z="744.09448 : 526.18109 : 1"
       inkscape:vp_y="0 : 1000 : 0"
       inkscape:vp_x="0 : 526.18109 : 1"
       sodipodi:type="inkscape:persp3d" />
    <inkscape:perspective
       id="perspective4664"
       inkscape:persp3d-origin="372.04724 : 350.78739 : 1"
       inkscape:vp_z="744.09448 : 526.18109 : 1"
       inkscape:vp_y="0 : 1000 : 0"
       inkscape:vp_x="0 : 526.18109 : 1"
       sodipodi:type="inkscape:persp3d" />
    <inkscape:perspective
       id="perspective4708"
       inkscape:persp3d-origin="372.04724 : 350.78739 : 1"
       inkscape:vp_z="744.09448 : 526.18109 : 1"
       inkscape:vp_y="0 : 1000 : 0"
       inkscape:vp_x="0 : 526.18109 : 1"
       sodipodi:type="inkscape:persp3d" />
    <inkscape:perspective
       id="perspective4723"
       inkscape:persp3d-origin="372.04724 : 350.78739 : 1"
       inkscape:vp_z="744.09448 : 526.18109 : 1"
       inkscape:vp_y="0 : 1000 : 0"
       inkscape:vp_x="0 : 526.18109 : 1"
       sodipodi:type="inkscape:persp3d" />
    <inkscape:perspective
       id="perspective4738"
       inkscape:persp3d-origin="372.04724 : 350.78739 : 1"
       inkscape:vp_z="744.09448 : 526.18109 : 1"
       inkscape:vp_y="0 : 1000 : 0"
       inkscape:vp_x="0 : 526.18109 : 1"
       sodipodi:type="inkscape:persp3d" />
    <inkscape:perspective
       id="perspective4753"
       inkscape:persp3d-origin="372.04724 : 350.78739 : 1"
       inkscape:vp_z="744.09448 : 526.18109 : 1"
       inkscape:vp_y="0 : 1000 : 0"
       inkscape:vp_x="0 : 526.18109 : 1"
       sodipodi:type="inkscape:persp3d" />
    <inkscape:perspective
       id="perspective4770"
       inkscape:persp3d-origin="372.04724 : 350.78739 : 1"
       inkscape:vp_z="744.09448 : 526.18109 : 1"
       inkscape:vp_y="0 : 1000 : 0"
       inkscape:vp_x="0 : 526.18109 : 1"
       sodipodi:type="inkscape:persp3d" />
    <inkscape:perspective
       id="perspective5261"
       inkscape:persp3d-origin="372.04724 : 350.78739 : 1"
       inkscape:vp_z="744.09448 : 526.18109 : 1"
       inkscape:vp_y="0 : 1000 : 0"
       inkscape:vp_x="0 : 526.18109 : 1"
       sodipodi:type="inkscape:persp3d" />
    <inkscape:perspective
       id="perspective5283"
       inkscape:persp3d-origin="372.04724 : 350.78739 : 1"
       inkscape:vp_z="744.09448 : 526.18109 : 1"
       inkscape:vp_y="0 : 1000 : 0"
       inkscape:vp_x="0 : 526.18109 : 1"
       sodipodi:type="inkscape:persp3d" />
    <inkscape:perspective
       id="perspective5304"
       inkscape:persp3d-origin="372.04724 : 350.78739 : 1"
       inkscape:vp_z="744.09448 : 526.18109 : 1"
       inkscape:vp_y="0 : 1000 : 0"
       inkscape:vp_x="0 : 526.18109 : 1"
       sodipodi:type="inkscape:persp3d" />
  </defs>
  <metadata
     id="metadata6">
    <rdf:RDF>
      <cc:Work
         rdf:about="">
        <dc:format>image/svg+xml</dc:format>
        <dc:type
           rdf:resource="http://purl.org/dc/dcmitype/StillImage" />
      </cc:Work>
    </rdf:RDF>
  </metadata>
  <g
     inkscape:label="Vrstva 1"
     inkscape:groupmode="layer"
     id="layer1"
     transform="translate(-46.473476,-536.65095)" />
  <path
     style="fill:none;fill-rule:evenodd;stroke:#000000;stroke-width:3.06905341px;stroke-linecap:butt;stroke-linejoin:miter;stroke-opacity:1"
     d="M 33.117012,81.00026 C 41.177439,78.56291 58.339324,63.85318 71.918204,60.45844 C 80.839634,58.2281 93.890384,47.61596 99.307284,42.19905 C 106.46885,35.0375 119.61498,33.06938 131.26121,33.06938 C 142.25008,33.06938 150.30098,35.3518 160.93271,35.3518"
     id="path4040" />
  <path
     style="fill:none;fill-rule:evenodd;stroke:#000000;stroke-width:3.06905341px;stroke-linecap:butt;stroke-linejoin:miter;stroke-opacity:1"
     d="M 81.447124,55.89359 C 84.746284,55.89359 103.54266,51.32874 115.28424,51.32874 C 129.4463,51.32874 135.93811,51.44083 142.67332,58.17602 C 147.59855,63.10126 149.8134,60.79441 159.1881,60.79441 C 165.83148,60.79441 167.44099,65.71067 175.16506,67.64168"
     id="path4042"
     sodipodi:nodetypes="csssc" />
  <path
     style="fill:none;fill-rule:evenodd;stroke:#000000;stroke-width:3.06905341px;stroke-linecap:butt;stroke-linejoin:miter;stroke-opacity:1"
     d="M 128.97878,51.59993 C 140.289,51.59993 143.80548,70.72031 151.80302,78.71784 C 159.78198,86.69679 163.17383,85.63877 173.88904,88.31759 C 179.90423,89.82136 185.85715,90.60001 194.43086,90.60001"
     id="path4044"
     sodipodi:nodetypes="cssc" />
  <path
     style="fill:none;fill-rule:evenodd;stroke:#830000;stroke-width:3.06905341px;stroke-linecap:butt;stroke-linejoin:miter;stroke-opacity:1"
     d="M 57.274484,68.60632 C 58.528444,71.59254 72.367844,66.84753 83.330324,69.58814 C 92.809754,71.958 97.226404,80.48002 108.43697,83.28268 C 115.70163,85.09886 128.04991,89.66552 133.54363,92.41238 C 141.68899,96.48504 155.40491,94.26965 162.40913,101.2739 C 168.1152,106.97995 184.22625,104.09341 189.9323,109.79946 C 195.30833,115.17549 208.30019,117.244 217.32139,121.21158 C 218.64593,121.79412 223.12663,122.52108 226.65825,121.80286"
     id="path4046"
     sodipodi:nodetypes="cssssssc" />
  <path
     style="fill:none;fill-rule:evenodd;stroke:#000000;stroke-width:3.06905341px;stroke-linecap:butt;stroke-linejoin:miter;stroke-opacity:1"
     d="M 124.64635,88.66095 C 135.91283,91.47758 134.46153,109.30724 142.67332,117.51902 C 150.5211,125.3668 168.98233,121.88054 176.50593,125.64234 C 188.27624,131.5275 183.8595,138.32226 197.04775,141.61931 C 207.00063,144.10751 220.9642,141.61931 231.28411,141.61931 C 240.29675,141.61931 240.27892,141.53758 249.22337,143.77369 C 251.43766,144.32726 259.42797,141.62609 256.07064,143.77369"
     id="path4048"
     sodipodi:nodetypes="csssssc" />
  <path
     style="fill:none;fill-rule:evenodd;stroke:#000000;stroke-width:3.06905341px;stroke-linecap:butt;stroke-linejoin:miter;stroke-opacity:1"
     d="M 37.681858,78.71784 C 49.68704,81.71912 55.512934,80.57194 65.070934,90.12996 C 71.541864,96.60087 84.121844,94.89267 92.460014,96.97723 C 99.915704,98.84113 108.78628,118.21763 113.00182,126.64871 C 116.58837,133.82183 131.72653,138.52616 135.82605,142.62568 C 140.63748,152.24855 174.72615,151.2272 181.94306,153.03143 C 191.5597,155.43557 204.2804,155.19211 213.897,157.59628 C 225.63576,160.53097 230.78579,163.53029 243.56852,166.72598 C 253.52137,169.21418 258.4344,163.70913 268.75427,163.70913 C 274.22176,163.70913 274.84024,165.35902 277.88397,163.83717"
     id="path4050"
     sodipodi:nodetypes="cssscssssc" />
  <path
     style="fill:none;fill-rule:evenodd;stroke:#000000;stroke-width:3.06905341px;stroke-linecap:butt;stroke-linejoin:miter;stroke-opacity:1"
     d="M 138.10848,147.19053 C 144.23881,147.19053 188.86016,161.58378 192.81736,166.86006 C 197.7157,173.39113 213.97664,171.57925 222.48888,173.70731 C 234.62622,176.74165 239.45221,176.97612 247.59555,185.11943 C 253.0979,190.62178 271.20752,189.68428 279.54945,189.68428 C 290.96158,189.68428 275.89237,183.98575 287.30449,183.98575 C 291.86934,183.98575 296.43419,183.98575 300.99904,183.98575"
     id="path4052"
     sodipodi:nodetypes="csssssc" />
  <path
     style="fill:none;fill-rule:evenodd;stroke:#000000;stroke-width:1.53452671;stroke-linecap:butt;stroke-linejoin:miter;stroke-miterlimit:4;stroke-dasharray:3.0690533, 1.53452665;stroke-dashoffset:0;stroke-opacity:1"
     d="M 157.01754,3.20679 C 157.01754,4.94491 157.01754,10.51746 157.01754,14.08109 C 157.01754,17.43203 157.62166,19.76513 157.62166,22.53885 C 157.62166,25.80177 158.18778,28.42808 158.82992,30.99663 C 159.48818,33.62967 160.88368,36.91656 161.85055,38.85031 C 162.94615,41.04149 164.01827,43.78986 165.47532,46.70396 C 166.96808,49.68947 167.58324,52.12808 169.10009,55.16175 C 170.58763,58.13679 171.09549,60.36078 172.12071,62.41125 C 173.45023,65.07025 175.05086,67.06329 176.34962,69.66078 C 177.52458,72.01073 180.78674,73.56321 182.39087,75.70206 C 184.05706,77.92366 187.69386,80.4009 189.03629,81.74334 C 191.01196,83.71901 191.43758,85.94177 192.66106,88.38873 C 193.95742,90.9815 195.3927,92.17106 197.49405,93.22175 C 199.59798,94.2737 201.9265,97.6542 204.13947,99.86714 C 206.2666,101.9943 207.66127,103.95877 209.5766,106.51256 C 212.11575,109.89807 213.82648,111.17218 216.22199,114.36621 C 217.65687,116.27933 219.7387,117.90992 222.26327,119.80334 C 224.12211,121.19746 226.09542,124.03673 227.70044,125.24048 C 229.48015,126.57527 231.57997,127.8481 233.74169,129.46939 C 236.12744,131.25868 238.52035,132.43566 240.38711,134.30241 C 241.99133,135.90664 245.82627,136.7199 248.24075,137.92718 C 250.62854,139.12107 253.75372,139.75851 256.0944,140.34369 C 258.12801,140.85208 261.11067,144.15168 262.13568,145.17668 C 264.11104,147.15205 265.62366,148.61905 267.57281,151.21796 C 269.62892,153.95942 271.38543,156.42666 273.00998,159.67575 C 274.81768,163.29118 277.79248,166.05244 280.25948,169.34179 C 281.66106,171.21051 285.55946,173.43352 286.9049,174.77893 C 289.41318,177.2872 291.86446,178.0455 294.75855,180.21606 C 297.03968,181.92694 300.44111,182.81662 302.61219,184.44497 C 305.57678,186.66838 309.12945,189.41398 312.88235,190.48625 C 317.11645,191.69598 321.72939,194.02505 324.96491,195.31924 C 328.75193,196.83406 333.78414,198.91304 337.04746,201.36052 C 339.88612,203.48952 343.76626,204.71994 346.71348,206.19354 C 349.1469,207.41024 350.76625,208.43392 352.15064,209.81831"
     id="path4054" />
  <g
     style="stroke:#000000;stroke-opacity:1"
     id="g4065"
     transform="matrix(0.5736232,0,0,0.4227369,128.3045,-273.07688)">
    <path
       style="fill:none;fill-rule:evenodd;stroke:#000000;stroke-width:1px;stroke-linecap:butt;stroke-linejoin:miter;stroke-opacity:1"
       d="M 57.264104,728.11349 C 59.89046,727.31932 65.482375,722.5264 69.906828,721.42028 C 72.813726,720.69356 77.066098,717.23577 78.831104,715.47076 C 81.164581,713.13729 85.448031,712.49601 89.24276,712.49601 C 92.8233,712.49601 95.446552,713.2397 98.910725,713.2397"
       id="path4067" />
    <path
       style="fill:none;fill-rule:evenodd;stroke:#000000;stroke-width:1px;stroke-linecap:butt;stroke-linejoin:miter;stroke-opacity:1"
       d="M 73.011669,719.9329 C 74.086645,719.9329 80.211132,718.44552 84.036932,718.44552 C 88.651402,718.44552 90.766652,718.48204 92.961208,720.67659 C 94.566011,722.2814 95.287683,721.52975 98.342273,721.52975 C 100.50691,721.52975 101.03134,723.13163 103.5481,723.76082"
       id="path4069"
       sodipodi:nodetypes="csssc" />
    <path
       style="fill:none;fill-rule:evenodd;stroke:#000000;stroke-width:1px;stroke-linecap:butt;stroke-linejoin:miter;stroke-opacity:1"
       d="M 88.49907,718.53388 C 92.184317,718.53388 93.330103,724.76394 95.935967,727.3698 C 98.53578,729.96961 99.640956,729.62487 103.13233,730.49772 C 105.09228,730.9877 107.03194,731.24141 109.82554,731.24141"
       id="path4071"
       sodipodi:nodetypes="cssc" />
    <path
       style="fill:none;fill-rule:evenodd;stroke:#000000;stroke-width:1px;stroke-linecap:butt;stroke-linejoin:miter;stroke-opacity:1"
       d="M 63.583008,724.4159 C 65.203226,724.82096 70.053334,723.50206 73.625277,724.39504 C 76.713992,725.16722 78.153084,727.94398 81.805863,728.85718 C 84.172929,729.44895 88.196411,730.93692 89.986449,731.83194 C 92.640479,733.15895 97.109583,732.4371 99.391794,734.71932 C 101.25102,736.57854 106.50054,735.63801 108.35976,737.49723 C 110.11145,739.24892 114.34463,739.92291 117.28404,741.21568 C 117.71562,741.40549 119.17558,741.64236 120.3263,741.40834"
       id="path4073"
       sodipodi:nodetypes="cssssssc" />
    <path
       style="fill:none;fill-rule:evenodd;stroke:#000000;stroke-width:1px;stroke-linecap:butt;stroke-linejoin:miter;stroke-opacity:1"
       d="M 87.011691,730.34456 C 90.682687,731.26231 90.285532,737.33685 92.961208,740.01252 C 95.518277,742.56959 101.53356,741.43365 103.985,742.65937 C 107.82016,744.57695 106.38104,746.79091 110.67821,747.8652 C 113.92119,748.67594 118.47099,747.8652 121.83356,747.8652 C 124.77018,747.8652 124.76437,747.83857 127.67877,748.56717 C 128.40026,748.74754 131.00377,747.86741 129.90984,748.56717"
       id="path4075"
       sodipodi:nodetypes="csssssc" />
    <path
       style="fill:none;fill-rule:evenodd;stroke:#000000;stroke-width:1px;stroke-linecap:butt;stroke-linejoin:miter;stroke-opacity:1"
       d="M 58.751483,727.3698 C 62.663172,728.34772 64.561442,727.97393 67.675759,731.08825 C 69.784202,733.19669 73.88318,732.6401 76.600035,733.31932 C 79.029346,733.92664 81.919677,740.24015 83.293242,742.98728 C 84.46186,745.32452 89.394377,746.85735 90.730139,748.19311 C 92.297863,751.32856 103.40509,750.99577 105.7566,751.58365 C 108.89002,752.367 113.03485,752.28767 116.16826,753.07103 C 119.99314,754.02725 121.67119,755.00453 125.83623,756.04579 C 129.0792,756.85653 130.68003,755.0628 134.04259,755.0628 C 135.82408,755.0628 136.0256,755.60039 137.01735,755.10452"
       id="path4077"
       sodipodi:nodetypes="cssscssssc" />
    <path
       style="fill:none;fill-rule:evenodd;stroke:#000000;stroke-width:1px;stroke-linecap:butt;stroke-linejoin:miter;stroke-opacity:1"
       d="M 91.473829,749.68049 C 93.471296,749.68049 108.01042,754.37029 109.29981,756.08948 C 110.89585,758.21752 116.19421,757.62715 118.96778,758.32054 C 122.92253,759.30923 124.495,759.38563 127.14837,762.03899 C 128.94122,763.83184 134.84194,763.52637 137.56002,763.52637 C 141.27847,763.52637 136.36842,761.6696 140.08687,761.6696 C 141.57425,761.6696 143.06163,761.6696 144.54901,761.6696"
       id="path4079"
       sodipodi:nodetypes="csssssc" />
  </g>
  <g
     style="stroke:#000000;stroke-opacity:1"
     transform="matrix(1.00542,0,0,0.4227369,117.65831,-241.66227)"
     id="g4081">
    <path
       id="path4083"
       d="M 57.264104,728.11349 C 59.89046,727.31932 65.482375,722.5264 69.906828,721.42028 C 72.813726,720.69356 77.066098,717.23577 78.831104,715.47076 C 81.164581,713.13729 85.448031,712.49601 89.24276,712.49601 C 92.8233,712.49601 95.446552,713.2397 98.910725,713.2397"
       style="fill:none;fill-rule:evenodd;stroke:#000000;stroke-width:1px;stroke-linecap:butt;stroke-linejoin:miter;stroke-opacity:1" />
    <path
       sodipodi:nodetypes="csssc"
       id="path4085"
       d="M 73.011669,719.9329 C 74.086645,719.9329 80.211132,718.44552 84.036932,718.44552 C 88.651402,718.44552 90.766652,718.48204 92.961208,720.67659 C 94.566011,722.2814 95.287683,721.52975 98.342273,721.52975 C 100.50691,721.52975 101.03134,723.13163 103.5481,723.76082"
       style="fill:none;fill-rule:evenodd;stroke:#000000;stroke-width:1px;stroke-linecap:butt;stroke-linejoin:miter;stroke-opacity:1" />
    <path
       sodipodi:nodetypes="cssc"
       id="path4087"
       d="M 88.49907,718.53388 C 92.184317,718.53388 93.330103,724.76394 95.935967,727.3698 C 98.53578,729.96961 99.640956,729.62487 103.13233,730.49772 C 105.09228,730.9877 107.03194,731.24141 109.82554,731.24141"
       style="fill:none;fill-rule:evenodd;stroke:#000000;stroke-width:1px;stroke-linecap:butt;stroke-linejoin:miter;stroke-opacity:1" />
    <path
       sodipodi:nodetypes="cssssssc"
       id="path4089"
       d="M 63.583008,724.4159 C 65.203226,724.82096 70.053334,723.50206 73.625277,724.39504 C 76.713992,725.16722 78.153084,727.94398 81.805863,728.85718 C 84.172929,729.44895 88.196411,730.93692 89.986449,731.83194 C 92.640479,733.15895 97.109583,732.4371 99.391794,734.71932 C 101.25102,736.57854 106.50054,735.63801 108.35976,737.49723 C 110.11145,739.24892 114.34463,739.92291 117.28404,741.21568 C 117.71562,741.40549 119.17558,741.64236 120.3263,741.40834"
       style="fill:none;fill-rule:evenodd;stroke:#000000;stroke-width:1px;stroke-linecap:butt;stroke-linejoin:miter;stroke-opacity:1" />
    <path
       sodipodi:nodetypes="csssssc"
       id="path4091"
       d="M 87.011691,730.34456 C 90.682687,731.26231 90.285532,737.33685 92.961208,740.01252 C 95.518277,742.56959 101.53356,741.43365 103.985,742.65937 C 107.82016,744.57695 106.38104,746.79091 110.67821,747.8652 C 113.92119,748.67594 118.47099,747.8652 121.83356,747.8652 C 124.77018,747.8652 124.76437,747.83857 127.67877,748.56717 C 128.40026,748.74754 131.00377,747.86741 129.90984,748.56717"
       style="fill:none;fill-rule:evenodd;stroke:#000000;stroke-width:1px;stroke-linecap:butt;stroke-linejoin:miter;stroke-opacity:1" />
    <path
       sodipodi:nodetypes="cssscssssc"
       id="path4093"
       d="M 58.751483,727.3698 C 62.663172,728.34772 64.561442,727.97393 67.675759,731.08825 C 69.784202,733.19669 73.88318,732.6401 76.600035,733.31932 C 79.029346,733.92664 81.919677,740.24015 83.293242,742.98728 C 84.46186,745.32452 89.394377,746.85735 90.730139,748.19311 C 92.297863,751.32856 103.40509,750.99577 105.7566,751.58365 C 108.89002,752.367 113.03485,752.28767 116.16826,753.07103 C 119.99314,754.02725 121.67119,755.00453 125.83623,756.04579 C 129.0792,756.85653 130.68003,755.0628 134.04259,755.0628 C 135.82408,755.0628 136.0256,755.60039 137.01735,755.10452"
       style="fill:none;fill-rule:evenodd;stroke:#000000;stroke-width:1px;stroke-linecap:butt;stroke-linejoin:miter;stroke-opacity:1" />
    <path
       sodipodi:nodetypes="csssssc"
       id="path4095"
       d="M 91.473829,749.68049 C 93.471296,749.68049 108.01042,754.37029 109.29981,756.08948 C 110.89585,758.21752 116.19421,757.62715 118.96778,758.32054 C 122.92253,759.30923 124.495,759.38563 127.14837,762.03899 C 128.94122,763.83184 134.84194,763.52637 137.56002,763.52637 C 141.27847,763.52637 136.36842,761.6696 140.08687,761.6696 C 141.57425,761.6696 143.06163,761.6696 144.54901,761.6696"
       style="fill:none;fill-rule:evenodd;stroke:#000000;stroke-width:1px;stroke-linecap:butt;stroke-linejoin:miter;stroke-opacity:1" />
  </g>
  <g
     style="stroke:#000000;stroke-opacity:1"
     id="g4097"
     transform="matrix(1.7476414,0,0,0.5253375,94.718254,-291.10416)">
    <path
       style="fill:none;fill-rule:evenodd;stroke:#000000;stroke-width:1px;stroke-linecap:butt;stroke-linejoin:miter;stroke-opacity:1"
       d="M 57.264104,728.11349 C 59.89046,727.31932 65.482375,722.5264 69.906828,721.42028 C 72.813726,720.69356 77.066098,717.23577 78.831104,715.47076 C 81.164581,713.13729 85.448031,712.49601 89.24276,712.49601 C 92.8233,712.49601 95.446552,713.2397 98.910725,713.2397"
       id="path4099" />
    <path
       style="fill:none;fill-rule:evenodd;stroke:#000000;stroke-width:1px;stroke-linecap:butt;stroke-linejoin:miter;stroke-opacity:1"
       d="M 73.011669,719.9329 C 74.086645,719.9329 80.211132,718.44552 84.036932,718.44552 C 88.651402,718.44552 90.766652,718.48204 92.961208,720.67659 C 94.566011,722.2814 95.287683,721.52975 98.342273,721.52975 C 100.50691,721.52975 101.03134,723.13163 103.5481,723.76082"
       id="path4101"
       sodipodi:nodetypes="csssc" />
    <path
       style="fill:none;fill-rule:evenodd;stroke:#000000;stroke-width:1px;stroke-linecap:butt;stroke-linejoin:miter;stroke-opacity:1"
       d="M 88.49907,718.53388 C 92.184317,718.53388 93.330103,724.76394 95.935967,727.3698 C 98.53578,729.96961 99.640956,729.62487 103.13233,730.49772 C 105.09228,730.9877 107.03194,731.24141 109.82554,731.24141"
       id="path4103"
       sodipodi:nodetypes="cssc" />
    <path
       style="fill:none;fill-rule:evenodd;stroke:#000000;stroke-width:1px;stroke-linecap:butt;stroke-linejoin:miter;stroke-opacity:1"
       d="M 63.583008,724.4159 C 65.203226,724.82096 70.053334,723.50206 73.625277,724.39504 C 76.713992,725.16722 78.153084,727.94398 81.805863,728.85718 C 84.172929,729.44895 88.196411,730.93692 89.986449,731.83194 C 92.640479,733.15895 97.109583,732.4371 99.391794,734.71932 C 101.25102,736.57854 106.50054,735.63801 108.35976,737.49723 C 110.11145,739.24892 114.34463,739.92291 117.28404,741.21568 C 117.71562,741.40549 119.17558,741.64236 120.3263,741.40834"
       id="path4105"
       sodipodi:nodetypes="cssssssc" />
    <path
       style="fill:none;fill-rule:evenodd;stroke:#000000;stroke-width:1px;stroke-linecap:butt;stroke-linejoin:miter;stroke-opacity:1"
       d="M 87.011691,730.34456 C 90.682687,731.26231 90.285532,737.33685 92.961208,740.01252 C 95.518277,742.56959 101.53356,741.43365 103.985,742.65937 C 107.82016,744.57695 106.38104,746.79091 110.67821,747.8652 C 113.92119,748.67594 118.47099,747.8652 121.83356,747.8652 C 124.77018,747.8652 124.76437,747.83857 127.67877,748.56717 C 128.40026,748.74754 131.00377,747.86741 129.90984,748.56717"
       id="path4107"
       sodipodi:nodetypes="csssssc" />
    <path
       style="fill:none;fill-rule:evenodd;stroke:#000000;stroke-width:1px;stroke-linecap:butt;stroke-linejoin:miter;stroke-opacity:1"
       d="M 58.751483,727.3698 C 62.663172,728.34772 64.561442,727.97393 67.675759,731.08825 C 69.784202,733.19669 73.88318,732.6401 76.600035,733.31932 C 79.029346,733.92664 81.919677,740.24015 83.293242,742.98728 C 84.46186,745.32452 89.394377,746.85735 90.730139,748.19311 C 92.297863,751.32856 103.40509,750.99577 105.7566,751.58365 C 108.89002,752.367 113.03485,752.28767 116.16826,753.07103 C 119.99314,754.02725 121.67119,755.00453 125.83623,756.04579 C 129.0792,756.85653 130.68003,755.0628 134.04259,755.0628 C 135.82408,755.0628 136.0256,755.60039 137.01735,755.10452"
       id="path4109"
       sodipodi:nodetypes="cssscssssc" />
    <path
       style="fill:none;fill-rule:evenodd;stroke:#000000;stroke-width:1px;stroke-linecap:butt;stroke-linejoin:miter;stroke-opacity:1"
       d="M 91.473829,749.68049 C 93.471296,749.68049 108.01042,754.37029 109.29981,756.08948 C 110.89585,758.21752 116.19421,757.62715 118.96778,758.32054 C 122.92253,759.30923 124.495,759.38563 127.14837,762.03899 C 128.94122,763.83184 134.84194,763.52637 137.56002,763.52637 C 141.27847,763.52637 136.36842,761.6696 140.08687,761.6696 C 141.57425,761.6696 143.06163,761.6696 144.54901,761.6696"
       id="path4111"
       sodipodi:nodetypes="csssssc" />
  </g>
  <path
     sodipodi:nodetypes="csssc"
     style="fill:none;fill-rule:evenodd;stroke:#830000;stroke-width:3.09667468;stroke-linecap:butt;stroke-linejoin:miter;stroke-miterlimit:4;stroke-dasharray:none;stroke-opacity:1"
     d="M 225.94902,122.21169 C 233.82667,121.79448 250.59938,119.27657 263.87037,118.69548 C 272.58949,118.31372 285.34432,116.49721 290.63837,115.56998 C 297.63753,114.34411 310.48557,114.00722 321.86771,114.00722 C 332.6074,114.00722 342.68362,114.0493 353.07427,114.0493"
     id="path4131" />
  <path
     style="fill:none;fill-rule:evenodd;stroke:#000000;stroke-width:1.25528038px;stroke-linecap:butt;stroke-linejoin:miter;stroke-opacity:1"
     d="M 273.18319,117.9141 C 276.40754,117.9141 294.7777,117.13275 306.25304,117.13275 C 320.09395,117.13275 326.43857,117.15193 333.02105,118.30479 C 337.83458,119.14786 339.99922,118.75299 349.16132,118.75299 C 355.65406,118.75299 357.22707,119.59453 364.77599,119.92506"
     id="path4133"
     sodipodi:nodetypes="csssc" />
  <path
     style="fill:none;fill-rule:evenodd;stroke:#000000;stroke-width:1.25528038px;stroke-linecap:butt;stroke-linejoin:miter;stroke-opacity:1"
     d="M 319.63703,117.17915 C 330.69078,117.17915 334.12753,120.45205 341.94371,121.821 C 349.74174,123.18676 353.05669,123.00566 363.52891,123.4642 C 369.40771,123.7216 375.22563,123.85489 383.60491,123.85489"
     id="path4135"
     sodipodi:nodetypes="cssc" />
  <path
     style="fill:none;fill-rule:evenodd;stroke:#000000;stroke-width:1.25528038px;stroke-linecap:butt;stroke-linejoin:miter;stroke-opacity:1"
     d="M 244.90233,120.2692 C 249.76211,120.482 264.30979,119.78913 275.02371,120.25824 C 284.28816,120.66391 288.60467,122.12263 299.56103,122.60238 C 306.66095,122.91325 318.72923,123.69493 324.09836,124.16511 C 332.05902,124.86225 345.46391,124.48304 352.30931,125.68196 C 357.886,126.65869 373.63171,126.1646 379.20837,127.1413 C 384.46249,128.06155 397.15975,128.4156 405.9764,129.09475 C 407.2709,129.19446 411.64998,129.31891 415.10153,129.19597"
     id="path4137"
     sodipodi:nodetypes="cssssssc" />
  <path
     style="fill:none;fill-rule:evenodd;stroke:#000000;stroke-width:1.25528038px;stroke-linecap:butt;stroke-linejoin:miter;stroke-opacity:1"
     d="M 315.1757,123.38373 C 326.1867,123.86588 324.99547,127.05705 333.02105,128.46268 C 340.69086,129.806 358.73345,129.20926 366.08645,129.85317 C 377.58987,130.86056 373.27328,132.02364 386.16247,132.58801 C 395.88965,133.0139 409.5366,132.58801 419.62249,132.58801 C 428.43076,132.58801 428.41333,132.57401 437.15495,132.95675 C 439.31903,133.05153 447.12817,132.58914 443.84696,132.95675"
     id="path4139"
     sodipodi:nodetypes="csssssc" />
  <path
     style="fill:none;fill-rule:evenodd;stroke:#000000;stroke-width:1.25528038px;stroke-linecap:butt;stroke-linejoin:miter;stroke-opacity:1"
     d="M 230.41035,121.821 C 242.14331,122.33473 247.83708,122.13837 257.17836,123.77442 C 263.50254,124.88207 275.79726,124.58969 283.94636,124.94649 C 291.23297,125.26555 299.9024,128.58228 304.02236,130.02544 C 307.52759,131.25328 322.32248,132.05853 326.32904,132.76027 C 331.03135,134.40743 364.34703,134.23259 371.4003,134.54143 C 380.79887,134.95296 393.23112,134.91128 402.62966,135.32281 C 414.10221,135.82515 419.13546,136.33854 431.62835,136.88557 C 441.3555,137.31146 446.15713,136.36917 456.24299,136.36917 C 461.58648,136.36917 462.19093,136.65159 465.16564,136.39109"
     id="path4141"
     sodipodi:nodetypes="cssscssssc" />
  <path
     style="fill:none;fill-rule:evenodd;stroke:#000000;stroke-width:1.25528038px;stroke-linecap:butt;stroke-linejoin:miter;stroke-opacity:1"
     d="M 328.55972,133.54162 C 334.55103,133.54162 378.16053,136.00537 382.02803,136.90853 C 386.81526,138.02646 402.70749,137.7163 411.02668,138.08057 C 422.88882,138.59998 427.60537,138.64012 435.56404,140.03402 C 440.94164,140.97588 458.64059,140.8154 466.79338,140.8154 C 477.94672,140.8154 463.21922,139.83996 474.37256,139.83996 C 478.83389,139.83996 483.29522,139.83996 487.75655,139.83996"
     id="path4143"
     sodipodi:nodetypes="csssssc" />
  <path
     style="fill:none;fill-rule:evenodd;stroke:#000000;stroke-width:1.22762132;stroke-linecap:butt;stroke-linejoin:miter;stroke-miterlimit:4;stroke-dasharray:2.45524264, 1.22762132;stroke-dashoffset:0;stroke-opacity:1"
     d="M 176.95373,3.81093 C 176.46928,5.70055 178.83715,10.13637 179.37025,12.26869 C 180.20116,15.59241 180.77161,17.48795 181.78676,19.51822 C 182.83938,21.62344 183.0698,24.65042 183.59912,26.76775 C 184.13796,28.92309 187.05933,30.22793 188.43215,31.60078 C 190.22229,33.39093 193.00786,34.8815 195.07754,36.4338 C 197.22409,38.0437 198.94912,39.87989 201.72296,41.26679 C 204.40083,42.60576 205.78648,43.90268 207.76424,44.89156 C 209.22418,45.62156 211.56105,50.50077 212.59723,51.53698 C 214.62498,53.5647 216.13017,57.29808 217.62977,58.79768 C 219.82961,60.99755 219.74674,60.27181 223.47153,61.20299 C 225.0717,61.60304 228.273,63.90579 230.11692,64.82776 C 232.35589,65.94723 233.91736,66.8158 235.55408,68.45253 C 236.84959,69.74804 240.69935,70.34297 242.80362,70.86904 C 245.07871,71.43783 247.56271,73.55065 249.44901,74.4938 C 252.18688,75.86276 260.20742,77.37052 262.76225,79.92532 C 264.70533,81.86843 264.15858,82.84611 266.36456,83.9491 C 268.86976,85.2017 272.71004,88.31375 275.42649,88.99287 C 278.63592,89.79521 280.64931,89.99651 283.88425,90.80524 C 286.99215,91.5822 289.09547,92.0135 292.34204,92.0135 C 294.84715,92.0135 297.90687,94.49384 300.19568,95.63826 C 303.04355,97.06218 306.08854,97.41353 308.65347,98.05477 C 311.53378,98.77483 314.62735,100.45444 317.11126,101.0754 C 320.44508,101.90886 324.1211,102.07272 327.38142,102.8878 C 330.65137,103.70527 332.92677,103.97206 335.83921,104.70016 C 339.12859,105.52252 341.38726,106.26593 344.297,107.72079 C 347.37584,109.26022 348.82894,110.51565 351.5465,112.55381 C 354.04587,114.42836 355.56493,114.91772 358.19192,115.57446 C 361.76347,116.46734 362.35153,118.23426 365.43581,119.00533 C 368.60979,119.79883 372.03034,119.80334 375.10747,119.80334 C 377.63459,119.80334 380.51192,123.23424 383.56526,123.23424 C 386.32903,123.23424 390.68884,122.18837 393.2313,122.824 C 395.96598,123.50766 400.22383,123.42811 402.89732,123.42811 C 405.58353,123.42811 412.21017,127.82652 414.79158,128.47185 C 418.35761,129.36338 419.94987,129.07038 424.25811,129.07038 C 428.16815,129.07038 440.30146,130.69916 444.22798,131.68076 C 447.78842,132.57088 446.17836,132.4844 450.0473,132.4844 C 452.47192,132.4844 450.62812,134.30358 453.03988,134.90652 C 456.29728,135.72087 459.59761,136.54595 462.70592,137.32303 C 466.24531,138.20787 469.91909,138.53129 473.58022,138.53129 C 476.53848,138.53129 479.64455,139.14117 482.03798,139.73955 C 485.0865,140.50168 488.14429,142.02129 491.09991,142.76017 C 494.81964,143.69012 495.5192,143.76157 498.34941,145.17668 C 498.60415,145.30405 498.75217,145.57943 498.95356,145.78082"
     id="path4161"
     sodipodi:nodetypes="cssssssssssssssssssssssssssssssssssssssssssc" />
  <g
     transform="matrix(0.5736232,0,0,0.4227369,151.73303,-280.10544)"
     id="g4297"
     style="stroke:#000000;stroke-opacity:1">
    <path
       id="path4299"
       d="M 57.264104,728.11349 C 59.89046,727.31932 65.482375,722.5264 69.906828,721.42028 C 72.813726,720.69356 77.066098,717.23577 78.831104,715.47076 C 81.164581,713.13729 85.448031,712.49601 89.24276,712.49601 C 92.8233,712.49601 95.446552,713.2397 98.910725,713.2397"
       style="fill:none;fill-rule:evenodd;stroke:#000000;stroke-width:1px;stroke-linecap:butt;stroke-linejoin:miter;stroke-opacity:1" />
    <path
       sodipodi:nodetypes="csssc"
       id="path4301"
       d="M 73.011669,719.9329 C 74.086645,719.9329 80.211132,718.44552 84.036932,718.44552 C 88.651402,718.44552 90.766652,718.48204 92.961208,720.67659 C 94.566011,722.2814 95.287683,721.52975 98.342273,721.52975 C 100.50691,721.52975 101.03134,723.13163 103.5481,723.76082"
       style="fill:none;fill-rule:evenodd;stroke:#000000;stroke-width:1px;stroke-linecap:butt;stroke-linejoin:miter;stroke-opacity:1" />
    <path
       sodipodi:nodetypes="cssc"
       id="path4303"
       d="M 88.49907,718.53388 C 92.184317,718.53388 93.330103,724.76394 95.935967,727.3698 C 98.53578,729.96961 99.640956,729.62487 103.13233,730.49772 C 105.09228,730.9877 107.03194,731.24141 109.82554,731.24141"
       style="fill:none;fill-rule:evenodd;stroke:#000000;stroke-width:1px;stroke-linecap:butt;stroke-linejoin:miter;stroke-opacity:1" />
    <path
       sodipodi:nodetypes="cssssssc"
       id="path4305"
       d="M 63.583008,724.4159 C 65.203226,724.82096 70.053334,723.50206 73.625277,724.39504 C 76.713992,725.16722 78.153084,727.94398 81.805863,728.85718 C 84.172929,729.44895 88.196411,730.93692 89.986449,731.83194 C 92.640479,733.15895 97.109583,732.4371 99.391794,734.71932 C 101.25102,736.57854 106.50054,735.63801 108.35976,737.49723 C 110.11145,739.24892 114.34463,739.92291 117.28404,741.21568 C 117.71562,741.40549 119.17558,741.64236 120.3263,741.40834"
       style="fill:none;fill-rule:evenodd;stroke:#000000;stroke-width:1px;stroke-linecap:butt;stroke-linejoin:miter;stroke-opacity:1" />
    <path
       sodipodi:nodetypes="csssssc"
       id="path4307"
       d="M 87.011691,730.34456 C 90.682687,731.26231 90.285532,737.33685 92.961208,740.01252 C 95.518277,742.56959 101.53356,741.43365 103.985,742.65937 C 107.82016,744.57695 106.38104,746.79091 110.67821,747.8652 C 113.92119,748.67594 118.47099,747.8652 121.83356,747.8652 C 124.77018,747.8652 124.76437,747.83857 127.67877,748.56717 C 128.40026,748.74754 131.00377,747.86741 129.90984,748.56717"
       style="fill:none;fill-rule:evenodd;stroke:#000000;stroke-width:1px;stroke-linecap:butt;stroke-linejoin:miter;stroke-opacity:1" />
    <path
       sodipodi:nodetypes="cssscssssc"
       id="path4309"
       d="M 58.751483,727.3698 C 62.663172,728.34772 64.561442,727.97393 67.675759,731.08825 C 69.784202,733.19669 73.88318,732.6401 76.600035,733.31932 C 79.029346,733.92664 81.919677,740.24015 83.293242,742.98728 C 84.46186,745.32452 89.394377,746.85735 90.730139,748.19311 C 92.297863,751.32856 103.40509,750.99577 105.7566,751.58365 C 108.89002,752.367 113.03485,752.28767 116.16826,753.07103 C 119.99314,754.02725 121.67119,755.00453 125.83623,756.04579 C 129.0792,756.85653 130.68003,755.0628 134.04259,755.0628 C 135.82408,755.0628 136.0256,755.60039 137.01735,755.10452"
       style="fill:none;fill-rule:evenodd;stroke:#000000;stroke-width:1px;stroke-linecap:butt;stroke-linejoin:miter;stroke-opacity:1" />
    <path
       sodipodi:nodetypes="csssssc"
       id="path4311"
       d="M 91.473829,749.68049 C 93.471296,749.68049 108.01042,754.37029 109.29981,756.08948 C 110.89585,758.21752 116.19421,757.62715 118.96778,758.32054 C 122.92253,759.30923 124.495,759.38563 127.14837,762.03899 C 128.94122,763.83184 134.84194,763.52637 137.56002,763.52637 C 141.27847,763.52637 136.36842,761.6696 140.08687,761.6696 C 141.57425,761.6696 143.06163,761.6696 144.54901,761.6696"
       style="fill:none;fill-rule:evenodd;stroke:#000000;stroke-width:1px;stroke-linecap:butt;stroke-linejoin:miter;stroke-opacity:1" />
  </g>
  <g
     id="g4313"
     transform="matrix(1.00542,0,0,0.4227369,161.58681,-248.69083)"
     style="stroke:#000000;stroke-opacity:1">
    <path
       style="fill:none;fill-rule:evenodd;stroke:#000000;stroke-width:1px;stroke-linecap:butt;stroke-linejoin:miter;stroke-opacity:1"
       d="M 57.264104,728.11349 C 59.89046,727.31932 65.482375,722.5264 69.906828,721.42028 C 72.813726,720.69356 77.066098,717.23577 78.831104,715.47076 C 81.164581,713.13729 85.448031,712.49601 89.24276,712.49601 C 92.8233,712.49601 95.446552,713.2397 98.910725,713.2397"
       id="path4315" />
    <path
       style="fill:none;fill-rule:evenodd;stroke:#000000;stroke-width:1px;stroke-linecap:butt;stroke-linejoin:miter;stroke-opacity:1"
       d="M 73.011669,719.9329 C 74.086645,719.9329 80.211132,718.44552 84.036932,718.44552 C 88.651402,718.44552 90.766652,718.48204 92.961208,720.67659 C 94.566011,722.2814 95.287683,721.52975 98.342273,721.52975 C 100.50691,721.52975 101.03134,723.13163 103.5481,723.76082"
       id="path4317"
       sodipodi:nodetypes="csssc" />
    <path
       style="fill:none;fill-rule:evenodd;stroke:#000000;stroke-width:1px;stroke-linecap:butt;stroke-linejoin:miter;stroke-opacity:1"
       d="M 88.49907,718.53388 C 92.184317,718.53388 93.330103,724.76394 95.935967,727.3698 C 98.53578,729.96961 99.640956,729.62487 103.13233,730.49772 C 105.09228,730.9877 107.03194,731.24141 109.82554,731.24141"
       id="path4319"
       sodipodi:nodetypes="cssc" />
    <path
       style="fill:none;fill-rule:evenodd;stroke:#000000;stroke-width:1px;stroke-linecap:butt;stroke-linejoin:miter;stroke-opacity:1"
       d="M 63.583008,724.4159 C 65.203226,724.82096 70.053334,723.50206 73.625277,724.39504 C 76.713992,725.16722 78.153084,727.94398 81.805863,728.85718 C 84.172929,729.44895 88.196411,730.93692 89.986449,731.83194 C 92.640479,733.15895 97.109583,732.4371 99.391794,734.71932 C 101.25102,736.57854 106.50054,735.63801 108.35976,737.49723 C 110.11145,739.24892 114.34463,739.92291 117.28404,741.21568 C 117.71562,741.40549 119.17558,741.64236 120.3263,741.40834"
       id="path4321"
       sodipodi:nodetypes="cssssssc" />
    <path
       style="fill:none;fill-rule:evenodd;stroke:#000000;stroke-width:1px;stroke-linecap:butt;stroke-linejoin:miter;stroke-opacity:1"
       d="M 87.011691,730.34456 C 90.682687,731.26231 90.285532,737.33685 92.961208,740.01252 C 95.518277,742.56959 101.53356,741.43365 103.985,742.65937 C 107.82016,744.57695 106.38104,746.79091 110.67821,747.8652 C 113.92119,748.67594 118.47099,747.8652 121.83356,747.8652 C 124.77018,747.8652 124.76437,747.83857 127.67877,748.56717 C 128.40026,748.74754 131.00377,747.86741 129.90984,748.56717"
       id="path4323"
       sodipodi:nodetypes="csssssc" />
    <path
       style="fill:none;fill-rule:evenodd;stroke:#000000;stroke-width:1px;stroke-linecap:butt;stroke-linejoin:miter;stroke-opacity:1"
       d="M 58.751483,727.3698 C 62.663172,728.34772 64.561442,727.97393 67.675759,731.08825 C 69.784202,733.19669 73.88318,732.6401 76.600035,733.31932 C 79.029346,733.92664 81.919677,740.24015 83.293242,742.98728 C 84.46186,745.32452 89.394377,746.85735 90.730139,748.19311 C 92.297863,751.32856 103.40509,750.99577 105.7566,751.58365 C 108.89002,752.367 113.03485,752.28767 116.16826,753.07103 C 119.99314,754.02725 121.67119,755.00453 125.83623,756.04579 C 129.0792,756.85653 130.68003,755.0628 134.04259,755.0628 C 135.82408,755.0628 136.0256,755.60039 137.01735,755.10452"
       id="path4325"
       sodipodi:nodetypes="cssscssssc" />
    <path
       style="fill:none;fill-rule:evenodd;stroke:#000000;stroke-width:1px;stroke-linecap:butt;stroke-linejoin:miter;stroke-opacity:1"
       d="M 91.473829,749.68049 C 93.471296,749.68049 108.01042,754.37029 109.29981,756.08948 C 110.89585,758.21752 116.19421,757.62715 118.96778,758.32054 C 122.92253,759.30923 124.495,759.38563 127.14837,762.03899 C 128.94122,763.83184 134.84194,763.52637 137.56002,763.52637 C 141.27847,763.52637 136.36842,761.6696 140.08687,761.6696 C 141.57425,761.6696 143.06163,761.6696 144.54901,761.6696"
       id="path4327"
       sodipodi:nodetypes="csssssc" />
  </g>
  <g
     transform="matrix(1.7476414,0,0,0.5253375,165.58955,-298.71842)"
     id="g4329"
     style="stroke:#000000;stroke-opacity:1">
    <path
       id="path4331"
       d="M 57.264104,728.11349 C 59.89046,727.31932 65.482375,722.5264 69.906828,721.42028 C 72.813726,720.69356 77.066098,717.23577 78.831104,715.47076 C 81.164581,713.13729 85.448031,712.49601 89.24276,712.49601 C 92.8233,712.49601 95.446552,713.2397 98.910725,713.2397"
       style="fill:none;fill-rule:evenodd;stroke:#000000;stroke-width:1px;stroke-linecap:butt;stroke-linejoin:miter;stroke-opacity:1" />
    <path
       sodipodi:nodetypes="csssc"
       id="path4333"
       d="M 73.011669,719.9329 C 74.086645,719.9329 80.211132,718.44552 84.036932,718.44552 C 88.651402,718.44552 90.766652,718.48204 92.961208,720.67659 C 94.566011,722.2814 95.287683,721.52975 98.342273,721.52975 C 100.50691,721.52975 101.03134,723.13163 103.5481,723.76082"
       style="fill:none;fill-rule:evenodd;stroke:#000000;stroke-width:1px;stroke-linecap:butt;stroke-linejoin:miter;stroke-opacity:1" />
    <path
       sodipodi:nodetypes="cssc"
       id="path4335"
       d="M 88.49907,718.53388 C 92.184317,718.53388 93.330103,724.76394 95.935967,727.3698 C 98.53578,729.96961 99.640956,729.62487 103.13233,730.49772 C 105.09228,730.9877 107.03194,731.24141 109.82554,731.24141"
       style="fill:none;fill-rule:evenodd;stroke:#000000;stroke-width:1px;stroke-linecap:butt;stroke-linejoin:miter;stroke-opacity:1" />
    <path
       sodipodi:nodetypes="cssssssc"
       id="path4337"
       d="M 63.583008,724.4159 C 65.203226,724.82096 70.053334,723.50206 73.625277,724.39504 C 76.713992,725.16722 78.153084,727.94398 81.805863,728.85718 C 84.172929,729.44895 88.196411,730.93692 89.986449,731.83194 C 92.640479,733.15895 97.109583,732.4371 99.391794,734.71932 C 101.25102,736.57854 106.50054,735.63801 108.35976,737.49723 C 110.11145,739.24892 114.34463,739.92291 117.28404,741.21568 C 117.71562,741.40549 119.17558,741.64236 120.3263,741.40834"
       style="fill:none;fill-rule:evenodd;stroke:#000000;stroke-width:1px;stroke-linecap:butt;stroke-linejoin:miter;stroke-opacity:1" />
    <path
       sodipodi:nodetypes="csssssc"
       id="path4339"
       d="M 87.011691,730.34456 C 90.682687,731.26231 90.285532,737.33685 92.961208,740.01252 C 95.518277,742.56959 101.53356,741.43365 103.985,742.65937 C 107.82016,744.57695 106.38104,746.79091 110.67821,747.8652 C 113.92119,748.67594 118.47099,747.8652 121.83356,747.8652 C 124.77018,747.8652 124.76437,747.83857 127.67877,748.56717 C 128.40026,748.74754 131.00377,747.86741 129.90984,748.56717"
       style="fill:none;fill-rule:evenodd;stroke:#000000;stroke-width:1px;stroke-linecap:butt;stroke-linejoin:miter;stroke-opacity:1" />
    <path
       sodipodi:nodetypes="cssscssssc"
       id="path4341"
       d="M 58.751483,727.3698 C 62.663172,728.34772 64.561442,727.97393 67.675759,731.08825 C 69.784202,733.19669 73.88318,732.6401 76.600035,733.31932 C 79.029346,733.92664 81.919677,740.24015 83.293242,742.98728 C 84.46186,745.32452 89.394377,746.85735 90.730139,748.19311 C 92.297863,751.32856 103.40509,750.99577 105.7566,751.58365 C 108.89002,752.367 113.03485,752.28767 116.16826,753.07103 C 119.99314,754.02725 121.67119,755.00453 125.83623,756.04579 C 129.0792,756.85653 130.68003,755.0628 134.04259,755.0628 C 135.82408,755.0628 136.0256,755.60039 137.01735,755.10452"
       style="fill:none;fill-rule:evenodd;stroke:#000000;stroke-width:1px;stroke-linecap:butt;stroke-linejoin:miter;stroke-opacity:1" />
    <path
       sodipodi:nodetypes="csssssc"
       id="path4343"
       d="M 91.473829,749.68049 C 93.471296,749.68049 108.01042,754.37029 109.29981,756.08948 C 110.89585,758.21752 116.19421,757.62715 118.96778,758.32054 C 122.92253,759.30923 124.495,759.38563 127.14837,762.03899 C 128.94122,763.83184 134.84194,763.52637 137.56002,763.52637 C 141.27847,763.52637 136.36842,761.6696 140.08687,761.6696 C 141.57425,761.6696 143.06163,761.6696 144.54901,761.6696"
       style="fill:none;fill-rule:evenodd;stroke:#000000;stroke-width:1px;stroke-linecap:butt;stroke-linejoin:miter;stroke-opacity:1" />
  </g>
  <path
     id="path4347"
     d="M 353.0488,114.0117 C 360.92645,113.5945 377.69919,111.07658 390.97015,110.49549 C 399.68926,110.11373 412.4441,108.29722 417.73815,107.36999 C 424.73731,106.14412 437.58535,105.80723 448.96749,105.80723 C 459.70718,105.80723 467.57553,106.19792 477.96617,106.19792"
     style="fill:none;fill-rule:evenodd;stroke:#830000;stroke-width:3.10588193;stroke-linecap:butt;stroke-linejoin:miter;stroke-miterlimit:4;stroke-dasharray:none;stroke-opacity:1" />
  <path
     sodipodi:nodetypes="csssc"
     id="path4349"
     d="M 400.283,109.71411 C 403.50735,109.71411 421.87748,108.93276 433.35282,108.93276 C 447.19373,108.93276 453.53835,108.95194 460.12083,110.1048 C 464.93436,110.94787 467.09899,110.553 476.2611,110.553 C 482.75387,110.553 484.32685,111.39454 491.87577,111.72507"
     style="fill:none;fill-rule:evenodd;stroke:#000000;stroke-width:1.25528038px;stroke-linecap:butt;stroke-linejoin:miter;stroke-opacity:1" />
  <path
     sodipodi:nodetypes="cssc"
     id="path4351"
     d="M 446.73684,108.97916 C 457.79059,108.97916 461.22731,112.25206 469.04349,113.62101 C 476.84152,114.98677 480.15647,114.80567 490.62869,115.26421 C 496.50749,115.52162 502.3254,115.6549 510.70472,115.6549"
     style="fill:none;fill-rule:evenodd;stroke:#000000;stroke-width:1.25528038px;stroke-linecap:butt;stroke-linejoin:miter;stroke-opacity:1" />
  <path
     sodipodi:nodetypes="cssssssc"
     id="path4353"
     d="M 372.00211,112.06921 C 376.86189,112.28201 391.40957,111.58915 402.12348,112.05825 C 411.38797,112.46392 415.70444,113.92264 426.66081,114.40239 C 433.76073,114.71326 445.82901,115.49495 451.19817,115.96512 C 459.1588,116.66226 472.56372,116.28305 479.40912,117.48197 C 484.98577,118.4587 500.73149,117.96461 506.30815,118.94131 C 511.56227,119.86156 524.25953,120.21561 533.07618,120.89476 C 534.37068,120.99447 538.74976,121.11892 542.20131,120.99598"
     style="fill:none;fill-rule:evenodd;stroke:#000000;stroke-width:1.25528038px;stroke-linecap:butt;stroke-linejoin:miter;stroke-opacity:1" />
  <path
     sodipodi:nodetypes="csssssc"
     id="path4355"
     d="M 442.27548,115.18374 C 453.28651,115.66589 452.09525,118.85706 460.12083,120.26269 C 467.79064,121.60601 485.83323,121.00927 493.18625,121.65318 C 504.68965,122.66057 500.37306,123.82365 513.26225,124.38802 C 522.98943,124.81391 536.63638,124.38802 546.72227,124.38802 C 555.53054,124.38802 555.51311,124.37402 564.25476,124.75676 C 566.41884,124.85154 574.22795,124.38915 570.94674,124.75676"
     style="fill:none;fill-rule:evenodd;stroke:#000000;stroke-width:1.25528038px;stroke-linecap:butt;stroke-linejoin:miter;stroke-opacity:1" />
  <path
     sodipodi:nodetypes="cssscssssc"
     id="path4357"
     d="M 357.51013,113.62101 C 369.24309,114.13474 374.93689,113.93838 384.27814,115.57443 C 390.60235,116.68209 402.89707,116.3897 411.04614,116.74651 C 418.33278,117.06556 427.00221,120.38229 431.12214,121.82545 C 434.62737,123.05329 449.42226,123.85855 453.42882,124.56028 C 458.13116,126.20745 491.44684,126.0326 498.50007,126.34144 C 507.89865,126.75297 520.3309,126.71129 529.72944,127.12282 C 541.20202,127.62516 546.23524,128.13855 558.72813,128.68558 C 568.45528,129.11148 573.2569,128.16918 583.34276,128.16918 C 588.68626,128.16918 589.29071,128.4516 592.26542,128.1911"
     style="fill:none;fill-rule:evenodd;stroke:#000000;stroke-width:1.25528038px;stroke-linecap:butt;stroke-linejoin:miter;stroke-opacity:1" />
  <path
     sodipodi:nodetypes="csssssc"
     id="path4359"
     d="M 455.6595,125.34163 C 461.65081,125.34163 505.26034,127.80538 509.12781,128.70854 C 513.91507,129.82647 529.80727,129.51631 538.12649,129.88058 C 549.9886,130.39999 554.70515,130.44013 562.66382,131.83403 C 568.04142,132.77589 585.74037,132.61541 593.89316,132.61541 C 605.0465,132.61541 590.319,131.63998 601.47234,131.63998 C 605.93367,131.63998 610.395,131.63998 614.85636,131.63998"
     style="fill:none;fill-rule:evenodd;stroke:#000000;stroke-width:1.25528038px;stroke-linecap:butt;stroke-linejoin:miter;stroke-opacity:1" />
  <path
     style="fill:none;fill-rule:evenodd;stroke:#000000;stroke-width:1.53452671;stroke-linecap:butt;stroke-linejoin:miter;stroke-miterlimit:4;stroke-dasharray:3.0690533, 1.53452665;stroke-dashoffset:0;stroke-opacity:1"
     d="M 200.01267,0.76726 C 199.73295,2.43191 200.54435,6.99397 201.18409,9.55294 C 201.74226,11.78565 203.67709,13.95323 204.69837,15.99581 C 205.93327,18.46554 207.01468,19.40393 207.62696,21.85294 C 208.01265,23.39576 210.83743,25.64915 211.72694,26.53862 C 213.69595,28.50766 216.24093,31.05261 217.58407,32.39575 C 219.57131,34.383 223.845,34.69312 226.36976,35.32434 C 228.42427,35.83797 231.01658,37.94061 232.81262,38.83862 C 235.54804,40.20634 237.32244,40.90314 239.25545,42.3529 C 241.50734,44.0418 244.45406,44.09548 247.45544,44.69575 C 249.81195,45.16704 252.29721,46.93119 255.0697,47.6243 C 258.44824,48.46894 261.09527,49.54986 263.26969,51.72431 C 265.35745,53.81204 268.35229,55.04976 269.71256,56.41002 C 270.84292,57.54035 275.53366,59.01869 276.74112,59.9243 C 278.81831,61.48219 283.10293,61.64092 285.5268,62.85286 C 287.52985,63.85438 291.07955,64.5339 293.72679,65.19571 C 296.64562,65.92541 298.10627,67.0926 300.16963,68.12426 C 302.55894,69.31892 304.9111,69.74893 307.78392,70.46711 C 310.72649,71.20277 313.64424,71.49292 316.5696,72.22427 C 319.3316,72.91478 322.29934,72.80997 325.35532,72.80997 C 327.61669,72.80997 331.38847,75.77375 334.14101,76.32425 C 336.37399,76.77086 339.49924,78.41768 341.16957,79.25283 C 343.70295,80.51952 348.15443,80.41333 350.54098,81.00996 C 353.32446,81.70583 356.2602,83.17192 359.32667,83.93854 C 362.49697,84.73109 365.80701,85.10997 369.28382,85.10997 C 371.43903,85.10997 375.01417,85.66399 377.48377,86.28139 C 380.48764,87.03236 383.32664,88.03496 385.68376,88.62425 C 388.45042,89.31589 390.88992,91.52018 393.29805,92.72423 C 395.72816,93.9393 399.36821,93.30996 402.08374,93.30996 C 405.58596,93.30996 409.19538,94.23006 412.04088,95.65281 C 414.32091,96.79281 416.91009,98.71901 419.06942,100.33852 C 420.74294,101.59364 425.37086,100.88886 427.85513,101.50994 C 430.8602,102.26119 434.34873,101.3762 437.22655,102.09564 C 440.20282,102.8397 443.76587,101.97334 446.59796,102.68137 C 450.06335,103.5477 454.08059,103.26707 457.7265,103.26707 C 460.83607,103.26707 463.12819,104.32463 465.92649,105.02423 C 468.48059,105.66274 472.06389,105.02423 474.71218,105.02423 C 477.34349,105.02423 481.08268,107.91659 483.4979,109.1242 C 486.40807,110.5793 491.37465,110.6541 494.62644,111.46706 C 498.32302,112.39121 501.88487,114.01901 505.75498,115.56704 C 509.93939,117.24081 513.24724,118.61154 517.46925,119.66705 C 520.9513,120.53755 523.02178,121.42417 526.84066,121.42417 C 530.74542,121.42417 534.65018,121.42417 538.55493,121.42417 C 542.06921,121.42417 545.5835,121.42417 549.09778,121.42417 C 552.1258,121.42417 555.19991,121.33901 557.88346,122.0099 C 561.04324,122.79984 564.11941,123.56889 567.25488,124.35275 C 569.4324,124.89714 571.90207,125.36812 574.86914,126.10988 C 577.2948,126.71629 579.99421,127.50099 581.8977,128.45273"
     id="path4361" />
  <path
     style="fill:none;fill-rule:evenodd;stroke:#830000;stroke-width:3.06905341px;stroke-linecap:butt;stroke-linejoin:miter;stroke-opacity:1"
     d="M 33.189104,80.95425 C 33.727014,80.8883 34.660758,80.39274 35.397006,80.02461 C 36.107372,79.66943 36.569645,79.4383 37.256291,79.09496 C 38.14751,78.64936 38.96986,78.42723 39.696602,77.70051 C 40.304471,77.09262 42.086729,76.21493 42.834148,75.84121 C 43.375771,75.57043 43.824752,75.31542 44.112405,75.02779 C 44.618262,74.52192 45.629288,74.20814 46.0879,73.74953 C 46.591909,73.2455 47.289284,72.90658 47.714771,72.58746 C 48.103869,72.29563 48.650071,72.46841 49.109235,72.23882 C 49.621997,71.98246 49.429494,71.13961 49.922673,70.96059 C 52.624873,69.97978 51.217172,70.74505 51.549547,70.49575 C 52.001993,70.15643 52.489758,69.85134 53.060218,69.5661 C 53.652494,69.26997 53.580574,68.95732 53.989864,68.75268 C 54.422174,68.53653 55.236874,68.59398 55.616734,68.40407 C 56.209344,68.10775 56.366374,68.03949 56.894994,68.17165 C 57.500774,68.3231 57.556464,68.14482 57.708434,68.75268"
     id="path4363"
     sodipodi:nodetypes="cssssssssssssssc" />
  <path
     sodipodi:type="arc"
     style="fill:none;fill-opacity:1;fill-rule:nonzero;stroke:#830000;stroke-width:1;stroke-linejoin:round;stroke-miterlimit:4;stroke-dasharray:none;stroke-dashoffset:0;stroke-opacity:1"
     id="path4365"
     sodipodi:cx="120.12947"
     sodipodi:cy="741.85907"
     sodipodi:rx="2.7383327"
     sodipodi:ry="2.8573906"
     d="M 122.8678,741.85907 A 2.7383327,2.8573906 0 1 1 117.39114,741.85907 A 2.7383327,2.8573906 0 1 1 122.8678,741.85907 z"
     transform="matrix(3.0690533,0,0,3.0690533,-128.62957,-2157.6188)" />
  <path
     style="fill:#960000;fill-opacity:1"
     d="M 62.23167,50.72723 C 62.070468,50.55398 61.748567,49.91574 61.516332,49.30893 L 61.094085,48.20563 L 60.040939,49.26151 C 58.057441,51.25013 56.660276,51.46306 55.750446,49.91537 C 55.458769,49.4192 55.436647,49.29149 55.439677,48.12099 C 55.443982,46.45606 55.697953,45.77734 56.686556,44.78873 C 57.484047,43.99124 58.345024,43.59585 59.284175,43.59585 C 60.276489,43.59585 60.858041,44.06582 61.460048,45.35415 L 61.826628,46.13863 L 62.625899,44.89587 C 63.065495,44.21237 63.439345,43.63722 63.456667,43.6178 C 63.473992,43.59837 63.677878,43.66172 63.909754,43.75861 C 64.198899,43.8794 64.30325,43.98047 64.241933,44.08037 C 64.192758,44.16044 63.669257,44.8824 63.078596,45.68477 L 62.004676,47.14359 L 62.143947,47.57503 C 62.595438,48.9736 63.264569,50.01125 63.714946,50.01125 C 63.831776,50.01125 64.22955,49.82929 64.59887,49.6069 C 65.019226,49.35377 65.310756,49.24291 65.378345,49.31052 C 65.551443,49.48362 65.380877,49.64882 64.288742,50.36597 C 63.089151,51.15364 62.693065,51.22322 62.23167,50.72723 z M 59.0389,49.28428 C 59.266335,49.13378 59.753719,48.64236 60.121965,48.19225 L 60.791501,47.37389 L 60.417617,46.43 C 60.211978,45.91087 59.943841,45.34356 59.821769,45.16936 C 59.363081,44.51473 58.42446,44.32144 57.668561,44.72597 C 56.487875,45.35783 56.1445,48.16365 57.112878,49.26657 C 57.618569,49.84254 58.187446,49.84776 59.0389,49.28428 z M 70.996465,49.14909 C 70.201,48.75269 69.188848,47.6629 68.793146,46.77677 C 68.043198,45.09736 67.71503,42.72608 67.710829,38.95618 C 67.706492,35.06131 68.096281,32.6966 69.057002,30.78934 C 69.599954,29.71146 70.681528,28.7123 71.618084,28.42341 C 72.050077,28.29015 71.94596,28.75554 71.479246,29.044 C 69.693536,30.1476 68.745026,34.38529 68.943434,40.37322 C 69.110032,45.40107 69.792021,47.80758 71.333905,48.80836 C 71.846995,49.14139 72.032084,49.43844 71.726498,49.43844 C 71.644358,49.43844 71.31584,49.30822 70.996465,49.14909 z M 87.456071,49.26995 C 87.456071,49.1773 87.741742,48.96633 88.090902,48.80118 C 89.60764,48.08364 90.127185,46.86169 90.442573,43.2702 C 90.620753,41.24109 90.52216,35.79708 90.280411,34.31648 C 90.07169,33.03806 89.611584,31.39735 89.278997,30.74539 C 88.98775,30.17455 88.205991,29.31404 87.777054,29.09221 C 87.581322,28.991 87.456071,28.83315 87.456071,28.68765 C 87.456071,28.48494 87.503454,28.46073 87.771113,28.52659 C 89.081175,28.84902 90.347316,30.37802 90.99952,32.42527 C 91.64392,34.44802 91.749542,35.40167 91.74825,39.18529 C 91.747219,42.20791 91.717136,42.78811 91.498656,43.99956 C 90.905607,47.28802 90.157345,48.54173 88.385939,49.2148 C 87.682061,49.48224 87.456071,49.49565 87.456071,49.26995 z M 77.545754,45.28107 C 76.617071,44.83722 75.879007,43.84577 75.438343,42.45027 C 74.855573,40.60469 74.687772,37.97025 75.035996,36.13345 C 75.569204,33.32094 77.249259,30.87914 79.432728,29.74313 L 80.396423,29.2418 L 80.910744,29.51464 C 81.613821,29.88759 82.726338,31.03222 83.248903,31.92028 C 84.167436,33.48124 84.535146,35.27436 84.445051,37.75327 C 84.372385,39.75272 84.129475,40.79534 83.383128,42.31149 C 82.381137,44.34691 80.913034,45.42964 79.041074,45.5138 C 78.25214,45.54928 78.036766,45.51576 77.545754,45.28107 z M 81.018437,43.72175 C 81.835708,43.30482 82.493452,42.27604 82.837812,40.87609 C 83.143735,39.63236 83.090503,37.51719 82.717419,36.09214 C 82.274589,34.40069 81.215133,32.33418 80.300871,31.37854 L 79.58309,30.62827 L 79.194919,30.82469 C 78.222745,31.31666 77.035828,33.11571 76.632232,34.70907 C 76.091886,36.84225 76.427935,40.11638 77.381008,42.00443 C 78.302159,43.82922 79.603506,44.44362 81.018437,43.72175 z M 41.946918,45.13096 C 41.647633,45.03895 41.402757,44.91288 41.402757,44.85082 C 41.402757,44.78873 41.712541,44.11996 42.09117,43.36466 C 43.097816,41.35652 44.315301,38.11615 44.662208,36.52175 L 44.743219,36.14941 L 43.617149,36.15008 C 41.695501,36.15116 41.391285,36.3439 40.770406,37.95377 C 40.457961,38.76387 40.349583,38.8759 40.057597,38.69043 C 39.947565,38.62058 39.988525,38.30002 40.238333,37.27597 C 40.623607,35.69657 40.857665,35.25147 41.463226,34.94656 C 41.892243,34.73052 42.213211,34.71398 47.073499,34.65711 C 51.985371,34.59969 52.261172,34.58514 52.916086,34.34935 C 53.294132,34.21324 53.64707,34.1448 53.700386,34.19728 C 53.753704,34.24973 53.599049,34.59024 53.356704,34.95392 C 52.972225,35.53093 52.835803,35.6424 52.286006,35.82882 C 51.939458,35.94633 51.364152,36.07342 51.007549,36.1112 L 50.359178,36.17992 L 50.275801,37.51075 C 50.229946,38.24272 50.224069,39.5118 50.26273,40.3309 C 50.406135,43.36884 50.877916,44.10878 52.290886,43.51182 L 52.83583,43.28161 L 52.987119,43.56427 C 53.127661,43.82689 53.110161,43.8706 52.740846,44.17922 C 51.987523,44.80874 51.056774,45.19971 50.311365,45.19971 C 49.720032,45.19971 49.592114,45.15834 49.309414,44.87565 C 49.131179,44.6974 48.922401,44.34943 48.845463,44.10237 C 48.543535,43.13276 48.580876,39.70218 48.92551,36.74772 L 48.996043,36.14315 L 47.304497,36.17491 L 45.612961,36.20671 L 45.278983,37.58143 C 44.734352,39.82328 43.148094,44.83388 42.881193,45.15552 C 42.722029,45.3473 42.64367,45.34524 41.946918,45.13096 z M 57.212104,35.6897 C 56.460253,35.33995 55.762737,34.60749 55.52894,33.92217 C 55.259891,33.13351 55.259802,31.67651 55.528759,30.97618 C 55.782223,30.31621 56.65454,29.47529 57.47352,29.10148 C 58.002066,28.86025 58.341964,28.81471 60.407952,28.70852 C 61.693109,28.64247 63.097907,28.58846 63.529726,28.58846 C 64.395527,28.58846 64.443469,28.64355 64.195808,29.35397 L 64.076772,29.69547 L 63.136129,29.5569 C 61.411554,29.30287 60.534357,29.24281 60.534357,29.37874 C 60.534357,29.44816 60.611535,29.50494 60.705871,29.50494 C 60.991235,29.50494 61.764379,30.28715 62.043555,30.8583 C 62.249844,31.28036 62.306294,31.59116 62.307478,32.31168 C 62.310072,33.88801 61.671168,34.83009 60.116862,35.54168 C 59.193295,35.96447 57.940114,36.02837 57.212104,35.6897 z M 60.045749,34.75805 C 60.796461,34.29411 61.127697,33.04715 60.884008,31.60242 C 60.632011,30.10841 60.000382,29.45148 58.815954,29.45148 C 57.490412,29.45148 56.807099,30.3113 56.816141,31.96798 C 56.822374,33.10921 57.002426,33.74192 57.473704,34.27867 C 58.209457,35.11664 59.174509,35.29652 60.045749,34.75805 z"
     id="path4623" />
  <path
     style="fill:#830000;fill-opacity:1"
     d="M 294.44117,157.97354 C 294.27068,157.79029 293.93023,157.11525 293.68462,156.47348 L 293.23804,155.30659 L 292.12419,156.42333 C 290.02634,158.52658 288.54865,158.75179 287.58638,157.11485 C 287.27791,156.59007 287.25449,156.45503 287.25771,155.21707 C 287.26226,153.45617 287.53086,152.73832 288.57646,151.69272 C 289.41989,150.84929 290.33051,150.43113 291.32381,150.43113 C 292.3733,150.43113 292.98837,150.92813 293.62508,152.29073 L 294.01279,153.12045 L 294.85813,151.80606 C 295.32306,151.08318 295.71845,150.47486 295.73677,150.4543 C 295.75512,150.43374 295.97076,150.50076 296.216,150.60321 C 296.5218,150.731 296.63217,150.8379 296.56732,150.94351 C 296.5153,151.02821 295.96164,151.79182 295.33694,152.64042 L 294.20111,154.18332 L 294.34839,154.63963 C 294.82591,156.11879 295.5336,157.21628 296.00995,157.21628 C 296.13351,157.21628 296.55421,157.02382 296.94484,156.78861 C 297.38943,156.5209 297.69774,156.40366 297.76922,156.47514 C 297.95229,156.65821 297.77189,156.83296 296.61682,157.59141 C 295.34808,158.42454 294.92918,158.4981 294.44117,157.97354 z M 291.06438,156.44739 C 291.30494,156.28823 291.82041,155.76849 292.20988,155.29245 L 292.918,154.42688 L 292.52255,153.42861 C 292.30508,152.87953 292.0215,152.27956 291.89238,152.09529 C 291.40726,151.40294 290.41454,151.19851 289.61505,151.62634 C 288.36632,152.2946 288.00316,155.26219 289.02733,156.42867 C 289.56217,157.03782 290.16383,157.04337 291.06438,156.44739 z M 303.71118,156.30441 C 302.86987,155.88517 301.79935,154.73256 301.38085,153.79536 C 300.58769,152.01918 300.24061,149.51118 300.23616,145.52399 C 300.23155,141.40464 300.64382,138.90361 301.65992,136.88644 C 302.23417,135.74641 303.37807,134.68968 304.36861,134.38412 C 304.82553,134.24316 304.71538,134.73541 304.22178,135.04047 C 302.33315,136.20772 301.32997,140.68961 301.5398,147.0227 C 301.71599,152.34035 302.43731,154.88558 304.06805,155.94404 C 304.61072,156.29627 304.80647,156.61045 304.4833,156.61045 C 304.39641,156.61045 304.04896,156.47274 303.71118,156.30441 z M 321.1195,156.43226 C 321.1195,156.33427 321.42162,156.11112 321.79092,155.93643 C 323.39508,155.17754 323.94456,153.88519 324.27814,150.08666 C 324.46658,147.94065 324.36229,142.18283 324.10664,140.61685 C 323.88588,139.26478 323.39925,137.52947 323.04748,136.83998 C 322.73947,136.23617 321.91263,135.32611 321.45897,135.09151 C 321.25196,134.98446 321.1195,134.81747 321.1195,134.66359 C 321.1195,134.44919 321.16962,134.42359 321.45268,134.49326 C 322.83826,134.83426 324.17738,136.45141 324.86718,138.61668 C 325.54873,140.756 325.66044,141.76461 325.65906,145.76632 C 325.65798,148.96317 325.62616,149.57679 325.39509,150.85809 C 324.76784,154.3361 323.97648,155.66202 322.10295,156.37389 C 321.35852,156.65676 321.1195,156.67094 321.1195,156.43226 z M 272.98723,152.05472 C 272.67069,151.95737 272.41172,151.82402 272.41172,151.75837 C 272.41172,151.69272 272.73934,150.98543 273.13979,150.18655 C 274.20448,148.06271 275.49213,144.63553 275.85903,142.94927 L 275.94472,142.55548 L 274.75375,142.55615 C 272.72133,142.55729 272.3996,142.76116 271.74291,144.46378 C 271.41247,145.3206 271.29784,145.4391 270.98903,145.24295 C 270.87265,145.16905 270.91596,144.83001 271.18017,143.74694 C 271.58765,142.07652 271.8352,141.60573 272.47568,141.28326 C 272.92941,141.0548 273.26888,141.03728 278.4093,140.97715 C 283.60428,140.91639 283.896,140.90101 284.58865,140.65162 C 284.98849,140.50768 285.36178,140.43528 285.41818,140.4908 C 285.47456,140.54629 285.31098,140.90641 285.05469,141.29106 C 284.64804,141.90131 284.50376,142.01922 283.92227,142.21641 C 283.55573,142.34067 282.94729,142.47507 282.5701,142.51503 L 281.88435,142.5877 L 281.79618,143.99526 C 281.74769,144.76943 281.74149,146.11162 281.78237,146.97795 C 281.93404,150.191 282.43301,150.97361 283.92742,150.34225 L 284.50379,150.09872 L 284.66378,150.39771 C 284.81245,150.67545 284.79391,150.72164 284.40331,151.04807 C 283.60658,151.7139 282.62218,152.12739 281.83381,152.12739 C 281.20839,152.12739 281.07308,152.08366 280.77409,151.78464 C 280.58559,151.59614 280.36477,151.2281 280.28341,150.9668 C 279.96408,149.94134 280.00358,146.31301 280.36806,143.18825 L 280.44267,142.54879 L 278.65362,142.58242 L 276.86458,142.61606 L 276.51136,144.07002 C 275.93533,146.44108 274.25766,151.74051 273.97537,152.08065 C 273.80704,152.28349 273.72414,152.28131 272.98723,152.05472 z M 312.11161,152.15768 C 312.08077,152.10772 312.10765,150.14328 312.17134,147.79226 C 312.23505,145.44125 312.27068,142.26668 312.25055,140.73761 C 312.20488,137.26704 312.29302,137.42654 310.38647,137.36448 L 309.11036,137.32299 L 309.14761,137.00101 C 309.18278,136.69705 309.32636,136.6299 311.71187,135.80138 C 313.10169,135.31868 314.27395,134.94545 314.31688,134.97197 C 314.35979,134.99848 314.38615,138.74663 314.37544,143.30116 L 314.35595,151.58218 L 313.46669,151.90777 C 312.53603,152.24853 312.20531,152.30954 312.11161,152.15768 z M 289.13229,142.06922 C 288.3371,141.6993 287.59939,140.92464 287.35212,140.19982 C 287.06756,139.36572 287.06746,137.82471 287.35193,137.08403 C 287.61998,136.386 288.5426,135.49665 289.40878,135.1013 C 289.96778,134.84614 290.32729,134.79798 292.51236,134.68569 C 293.87158,134.61584 295.35734,134.55869 295.81405,134.55869 C 296.72976,134.55869 296.78046,134.61694 296.51852,135.36834 L 296.39263,135.7295 L 295.39776,135.58296 C 293.57379,135.31429 292.64605,135.25076 292.64605,135.39452 C 292.64605,135.46793 292.72766,135.52799 292.82743,135.52799 C 293.12924,135.52799 293.94696,136.35528 294.24223,136.95936 C 294.46041,137.40576 294.52011,137.73448 294.52136,138.4965 C 294.5241,140.1637 293.84835,141.16007 292.20448,141.91266 C 291.22769,142.35985 289.90226,142.4274 289.13229,142.06922 z M 292.12925,141.08393 C 292.92325,140.59322 293.27358,139.27438 293.01584,137.74636 C 292.74932,136.16626 292.08128,135.47146 290.82859,135.47146 C 289.42664,135.47146 288.70394,136.38088 288.71352,138.133 C 288.72012,139.34 288.91052,140.00921 289.40897,140.57689 C 290.18713,141.46317 291.20783,141.65342 292.12925,141.08393 z"
     id="path4638" />
  <path
     style="fill:#830000;fill-opacity:1"
     d="M 368.88949,77.14598 C 368.71685,76.96042 368.3721,76.27692 368.12342,75.62707 L 367.67122,74.44555 L 366.54338,75.57631 C 364.41919,77.70599 362.92294,77.93399 361.94858,76.27652 C 361.63621,75.74514 361.61251,75.60838 361.61577,74.35489 C 361.62037,72.57186 361.89235,71.84499 362.95108,70.78629 C 363.80511,69.93223 364.72717,69.50882 365.73293,69.50882 C 366.79562,69.50882 367.41843,70.01209 368.06311,71.39178 L 368.45571,72.23193 L 369.31166,70.90104 C 369.78243,70.16907 370.18282,69.55311 370.20135,69.5323 C 370.21989,69.51149 370.43825,69.57932 370.68657,69.68309 C 370.99624,69.81245 371.10798,69.92072 371.0423,70.02765 C 370.98964,70.11343 370.42901,70.88661 369.79648,71.74586 L 368.64639,73.30816 L 368.79554,73.77017 C 369.27904,75.26796 369.99563,76.37921 370.47794,76.37921 C 370.60306,76.37921 371.02905,76.18435 371.42455,75.94616 C 371.87472,75.6751 372.18694,75.55639 372.25934,75.62876 C 372.44471,75.81413 372.26204,75.99106 371.09245,76.75906 C 369.80778,77.60262 369.3836,77.67711 368.88949,77.14598 z M 365.47025,75.60068 C 365.71384,75.43949 366.23577,74.91321 366.63014,74.43119 L 367.34716,73.55479 L 366.94674,72.54396 C 366.72654,71.98801 366.4394,71.38049 366.30866,71.19389 C 365.81742,70.49282 364.81225,70.28585 364.00272,70.71907 C 362.7383,71.39571 362.37057,74.40056 363.40763,75.58171 C 363.9492,76.1985 364.55841,76.20412 365.47025,75.60068 z M 378.27591,75.45588 C 377.42403,75.03137 376.3401,73.8643 375.9163,72.91532 C 375.11319,71.11679 374.76172,68.57734 374.75724,64.54006 C 374.75257,60.36897 375.17003,57.83651 376.1989,55.79399 C 376.78036,54.63966 377.93862,53.56963 378.94162,53.26024 C 379.40425,53.11753 379.29275,53.61595 378.79292,53.92485 C 376.88056,55.10674 375.8648,59.64495 376.07727,66.05758 C 376.25567,71.44205 376.98605,74.01926 378.63729,75.091 C 379.18674,75.44766 379.38497,75.76576 379.05772,75.76576 C 378.96976,75.76576 378.61792,75.62634 378.27591,75.45588 z M 395.90289,75.58534 C 395.90289,75.48611 396.20885,75.2602 396.58275,75.0833 C 398.20708,74.31487 398.76347,73.00629 399.10122,69.16006 C 399.29205,66.98704 399.18644,61.15692 398.92757,59.57129 C 398.70402,58.20219 398.21128,56.44509 397.85512,55.74694 C 397.54321,55.13556 396.706,54.21404 396.24666,53.9765 C 396.03704,53.86813 395.90289,53.69903 395.90289,53.54324 C 395.90289,53.32614 395.95366,53.3002 396.24031,53.37076 C 397.64326,53.71603 398.99923,55.35352 399.69766,57.54596 C 400.38776,59.71216 400.50089,60.73345 400.49951,64.78543 C 400.4984,68.02242 400.46618,68.64375 400.23222,69.94116 C 399.59708,73.46284 398.79575,74.80543 396.89871,75.52626 C 396.14492,75.81269 395.90289,75.82702 395.90289,75.58534 z M 347.16602,71.15279 C 346.84552,71.05425 346.58327,70.91924 346.58327,70.85276 C 346.58327,70.78629 346.91503,70.07006 347.32052,69.26118 C 348.39855,67.11067 349.70238,63.64043 350.07389,61.93296 L 350.16065,61.53426 L 348.95473,61.53493 C 346.89677,61.5361 346.57099,61.74252 345.90608,63.46653 C 345.57149,64.33412 345.45539,64.45409 345.14272,64.2555 C 345.02486,64.18067 345.06875,63.83737 345.33628,62.74067 C 345.74885,61.04926 345.99953,60.57257 346.64803,60.24605 C 347.10749,60.01471 347.4512,59.997 352.65622,59.93611 C 357.91645,59.87457 358.21182,59.85901 358.91319,59.60649 C 359.31806,59.46071 359.69601,59.38742 359.7531,59.44362 C 359.81021,59.49981 359.64458,59.86448 359.38506,60.25394 C 358.97331,60.87186 358.8272,60.99125 358.2384,61.19089 C 357.86729,61.31675 357.25118,61.45284 356.86929,61.49329 L 356.17492,61.56688 L 356.08564,62.99212 C 356.03654,63.77599 356.03024,65.13509 356.07165,66.01228 C 356.22522,69.26569 356.73045,70.05812 358.24365,69.41881 L 358.82726,69.17227 L 358.98927,69.475 C 359.13975,69.75622 359.12103,69.80299 358.72552,70.13353 C 357.91876,70.80771 356.92199,71.22642 356.12373,71.22642 C 355.49046,71.22642 355.35346,71.1821 355.05073,70.87937 C 354.85983,70.68848 354.63625,70.3158 354.55388,70.05122 C 354.23052,69.01287 354.27051,65.33899 354.63956,62.17495 L 354.71512,61.52747 L 352.90362,61.56154 L 351.09208,61.59561 L 350.73441,63.0678 C 350.15117,65.46869 348.45241,70.83466 348.16656,71.17906 C 347.99611,71.38445 347.9122,71.38224 347.16602,71.15279 z M 381.79479,71.07306 C 381.79519,70.98869 382.45639,70.21379 383.26413,69.35101 C 387.42982,64.90135 388.93495,62.75485 389.46485,60.50787 C 389.67741,59.60643 389.69794,58.16886 389.50895,57.41829 C 389.20493,56.21089 387.84114,55.26483 386.67379,55.45152 C 386.03604,55.55347 385.06333,56.03224 384.26274,56.6382 C 383.54151,57.18406 383.44594,57.20787 383.273,56.88476 C 383.07784,56.52007 384.55258,55.19672 385.89612,54.53095 C 386.79643,54.08487 387.08704,54.00173 387.91375,53.95388 C 389.28519,53.87448 389.99036,54.12986 390.8934,55.03287 C 391.77502,55.91448 392.04172,56.69114 391.94428,58.09296 C 391.80163,60.14474 390.26397,62.72342 386.42833,67.34318 C 385.70455,68.21494 385.14193,68.97604 385.17806,69.03447 C 385.21418,69.09294 387.00715,69.14075 389.16242,69.14075 C 391.90069,69.14075 393.08114,69.1809 393.08114,69.27404 C 393.08114,69.34733 392.96219,69.81662 392.81687,70.31688 L 392.55256,71.22642 L 387.17331,71.22642 C 382.9513,71.22642 381.79421,71.19343 381.79479,71.07306 z M 363.51389,61.04189 C 362.70872,60.66734 361.96174,59.88292 361.71137,59.14899 C 361.42322,58.30442 361.42312,56.74408 361.71115,55.99406 C 361.98261,55.28729 362.9168,54.38674 363.79387,53.98641 C 364.35987,53.72806 364.72389,53.67932 366.9364,53.56561 C 368.31272,53.49487 369.81714,53.43699 370.27958,53.43699 C 371.2068,53.43699 371.25815,53.49601 370.99292,54.25683 L 370.86543,54.62253 L 369.85808,54.47415 C 368.01118,54.20211 367.07178,54.13775 367.07178,54.28334 C 367.07178,54.35768 367.15443,54.41847 367.25546,54.41847 C 367.56105,54.41847 368.38905,55.25617 368.688,55.86783 C 368.90894,56.31984 368.96937,56.65268 368.97066,57.42427 C 368.97342,59.11244 368.28921,60.1213 366.62468,60.88337 C 365.63558,61.33618 364.29355,61.40456 363.51389,61.04189 z M 366.5485,60.0442 C 367.35247,59.54735 367.70719,58.21195 367.44623,56.66471 C 367.17637,55.06475 366.49992,54.36124 365.23148,54.36124 C 363.81195,54.36124 363.08017,55.28207 363.08986,57.05623 C 363.09652,58.27839 363.28935,58.95598 363.79403,59.53081 C 364.58198,60.42823 365.61548,60.62085 366.5485,60.0442 z"
     id="path4653" />
  <path
     d="M 122.8678,741.85907 A 2.7383327,2.8573906 0 1 1 117.39114,741.85907 A 2.7383327,2.8573906 0 1 1 122.8678,741.85907 z"
     sodipodi:ry="2.8573906"
     sodipodi:rx="2.7383327"
     sodipodi:cy="741.85907"
     sodipodi:cx="120.12947"
     id="path4655"
     style="fill:none;fill-opacity:1;fill-rule:nonzero;stroke:#830000;stroke-width:1;stroke-linejoin:round;stroke-miterlimit:4;stroke-dasharray:none;stroke-dashoffset:0;stroke-opacity:1"
     sodipodi:type="arc"
     transform="matrix(3.0690533,0,0,3.0690533,-310.23288,-2207.5534)" />
  <path
     transform="matrix(3.0690533,0,0,3.0690533,-253.35372,-2146.4281)"
     d="M 204.30343,735.54901 A 2.9764488,2.7383327 0 1 1 198.35053,735.54901 A 2.9764488,2.7383327 0 1 1 204.30343,735.54901 z"
     sodipodi:ry="2.7383327"
     sodipodi:rx="2.9764488"
     sodipodi:cy="735.54901"
     sodipodi:cx="201.32698"
     id="path4693"
     style="fill:none;fill-opacity:1;fill-rule:nonzero;stroke:#830000;stroke-width:1;stroke-linejoin:round;stroke-miterlimit:4;stroke-dasharray:none;stroke-dashoffset:0;stroke-opacity:1"
     sodipodi:type="arc" />
  <path
     style="fill:none;fill-rule:evenodd;stroke:#000000;stroke-width:1.53452671;stroke-linecap:butt;stroke-linejoin:miter;stroke-miterlimit:4;stroke-dasharray:3.0690533, 1.53452665;stroke-dashoffset:0;stroke-opacity:1"
     d="M 399.95081,93.04893 C 401.33888,93.0493 403.05209,94.67203 404.69839,95.08362 C 406.08704,95.43076 407.1091,96.11943 408.42864,96.77918 C 410.05441,97.59208 411.49708,98.14384 412.83709,98.81384 C 414.06403,99.42732 415.63005,99.42732 417.24557,99.8312 C 418.86017,100.23484 420.5909,100.1703 422.33225,100.1703 C 424.18866,100.1703 425.60849,100.5094 427.41893,100.5094 C 429.01622,100.5094 430.93594,100.87999 432.16651,101.18763 C 434.15961,101.68592 436.89006,101.18763 438.94878,101.18763 C 441.03263,101.18763 442.00203,101.52676 444.03546,101.52676 C 445.97823,101.52676 447.51162,101.86586 449.46127,101.86586 C 451.38293,101.86586 453.30455,101.86586 455.22618,101.86586 C 456.92174,101.86586 458.61733,101.86586 460.31289,101.86586 C 461.85165,101.86586 463.91319,102.24682 465.39957,102.54409 C 467.07521,102.8792 468.79965,103.22456 470.14715,103.56142 C 471.49818,103.8992 473.45525,104.30367 474.55563,104.57878 C 476.11293,104.96809 477.40518,106.07188 478.62498,107.29167 C 479.21697,107.88369 482.6025,108.45561 483.37256,108.64813 C 484.91605,109.034 486.29878,108.95581 487.78101,109.32633 C 489.31541,109.70993 491.33884,109.70714 492.52859,110.00456 C 494.15377,110.41087 495.61093,111.62294 497.27617,112.03925 C 499.12515,112.50148 501.0829,112.37835 503.04108,112.37835 C 504.91332,112.37835 506.78679,112.29745 508.46689,112.71748 C 510.11494,113.1295 511.8317,113.72824 513.21447,114.07391 C 516.32185,114.85078 520.32632,116.95164 523.38786,118.48239 C 524.95507,119.26601 527.06535,119.16062 528.81367,119.16062 C 530.88654,119.16062 532.93897,119.104 534.91768,119.49972 C 536.65313,119.84683 538.43862,119.83885 540.34349,119.83885 C 542.2385,119.83885 544.71296,120.42256 546.44753,120.85618 C 549.53189,121.62728 553.4864,121.53441 556.62089,121.53441 C 559.25177,121.53441 561.45418,121.6406 563.74226,122.21264 C 566.10153,122.80245 568.04108,124.42884 570.52453,124.92553 C 573.28367,125.47735 575.77208,125.60376 578.66323,125.60376 C 580.47182,125.60376 582.28044,125.60376 584.08904,125.60376 C 586.55999,125.60376 587.17669,125.96069 589.17571,126.96022 C 591.58695,128.16581 593.85872,127.0302 596.29708,128.65578 C 597.91825,129.73655 600.62138,130.24552 602.40112,130.69044 C 604.05504,131.10394 606.13438,131.02957 607.82693,131.02957 C 609.44997,131.02957 611.42383,131.36867 613.25271,131.36867 C 615.02457,131.36867 616.73744,131.30729 618.33942,131.7078 C 619.0585,131.88756 619.47718,131.82268 620.37408,132.0469"
     id="path4699" />
  <path
     style="fill:#000000"
     d="M 38.401606,170.78385 C 38.219335,170.58792 37.855345,169.8662 37.592757,169.18002 L 37.115274,167.93245 L 35.924389,169.12644 C 33.681494,171.37513 32.101607,171.6159 31.072799,169.86577 C 30.742968,169.30472 30.717986,169.16032 30.721392,167.83676 C 30.726272,165.95408 31.013443,165.18657 32.131346,164.0687 C 33.033126,163.16689 34.006691,162.71982 35.068676,162.71982 C 36.190752,162.71982 36.848358,163.25123 37.529105,164.70804 L 37.943611,165.59515 L 38.847417,164.18986 C 39.344511,163.41695 39.767243,162.76662 39.786823,162.74462 C 39.806404,162.72264 40.036982,162.79427 40.299171,162.90384 C 40.626117,163.04044 40.744122,163.15473 40.674792,163.26768 C 40.619181,163.35821 40.027222,164.17464 39.359304,165.08192 L 38.144941,166.7315 L 38.302445,167.21936 C 38.812982,168.80084 39.569596,169.9742 40.078874,169.9742 C 40.210997,169.9742 40.660767,169.76845 41.078404,169.51697 C 41.553739,169.23072 41.883386,169.10538 41.959836,169.1818 C 42.155549,169.37755 41.96269,169.56439 40.727734,170.3753 C 39.371243,171.266 38.923376,171.34466 38.401606,170.78385 z M 34.791325,169.15219 C 35.048512,168.98198 35.599622,168.42629 36.016031,167.91732 L 36.773105,166.99191 L 36.350343,165.92459 C 36.117801,165.33757 35.814609,164.69607 35.676563,164.49907 C 35.157893,163.75885 34.096522,163.5403 33.24176,163.99771 C 31.906661,164.71219 31.518395,167.88497 32.613402,169.13215 C 33.185228,169.7834 33.828502,169.78932 34.791325,169.15219 z M 25.082621,164.6485 C 23.90702,164.60492 21.531511,164.56119 19.803757,164.55134 C 17.623962,164.53891 16.662335,164.48996 16.662335,164.3915 C 16.662335,164.31342 16.793507,164.06569 16.953834,163.84094 L 17.245302,163.4323 L 17.280688,155.8247 C 17.320893,147.1781 17.404064,147.81413 16.209711,147.63502 C 15.342366,147.50496 15.237374,147.44677 15.237374,147.0961 L 15.237374,146.78609 L 18.475962,146.78609 L 21.714488,146.78609 L 21.714488,147.16006 C 21.714488,147.51736 21.677291,147.54105 20.878816,147.69171 C 20.419194,147.77844 19.945578,147.92072 19.826376,148.00788 C 19.483317,148.25875 19.326366,153.11135 19.48436,158.58234 C 19.595337,162.42534 19.640299,163.03268 19.827665,163.21848 C 20.011501,163.40081 20.323747,163.42776 21.947613,163.40152 C 22.994989,163.38458 24.666426,163.31297 25.661904,163.24242 C 26.707531,163.1683 27.520124,163.16238 27.586139,163.22839 C 27.729679,163.37196 27.576779,164.32116 27.372625,164.55385 C 27.251091,164.69236 26.785423,164.71163 25.082621,164.6485 z M 31.815755,153.87855 C 30.729617,153.3291 30.017167,151.99928 29.743438,150.01065 C 29.282835,146.66453 30.772185,143.57829 33.472001,142.28419 C 34.599325,141.74382 34.780399,141.7836 35.892103,142.8156 C 37.397228,144.21278 37.995939,145.87842 37.873545,148.32802 C 37.793473,149.93086 37.435867,151.06761 36.654271,152.20389 C 35.4973,153.88595 33.31999,154.63955 31.815755,153.87855 z M 35.384205,152.55726 C 36.269412,151.88207 36.845473,150.07154 36.683642,148.47333 C 36.565698,147.30866 36.052184,145.85414 35.373126,144.76128 C 34.843131,143.90833 33.910384,142.89984 33.651479,142.89984 C 33.374313,142.89984 32.433525,143.73604 32.015551,144.3539 C 31.089986,145.72208 30.804502,147.6542 31.230732,149.66542 C 31.562466,151.23079 32.109709,152.16455 33.049484,152.7686 C 33.633218,153.14385 34.747407,153.04297 35.384205,152.55726 z"
     id="path4714" />
  <path
     style="fill:#000000"
     d="M 371.77085,244.49487 C 371.58858,244.29894 371.22459,243.57722 370.96197,242.89107 L 370.48449,241.6435 L 369.29364,242.83746 C 367.05074,245.08615 365.47085,245.32692 364.44205,243.57679 C 364.11222,243.01574 364.0872,242.87134 364.09064,241.54778 C 364.09549,239.6651 364.38266,238.89762 365.50056,237.77972 C 366.40234,236.87794 367.37591,236.43087 368.43789,236.43087 C 369.56,236.43087 370.21758,236.96224 370.89832,238.41909 L 371.31286,239.30617 L 372.21663,237.90091 C 372.71373,237.128 373.13646,236.47764 373.15607,236.45567 C 373.17565,236.43366 373.4062,236.50532 373.66839,236.61486 C 373.99537,236.75149 374.11337,236.86578 374.04401,236.97869 C 373.98843,237.06926 373.39644,237.88566 372.72855,238.79293 L 371.51419,240.44255 L 371.67166,240.93041 C 372.1822,242.51189 372.93884,243.68525 373.44812,243.68525 C 373.58021,243.68525 374.03001,243.47947 374.44765,243.22799 C 374.92296,242.94177 375.2526,242.81643 375.32905,242.89285 C 375.5248,243.0886 375.33191,243.27541 374.09695,244.08634 C 372.74049,244.97705 372.29259,245.05571 371.77085,244.49487 z M 368.16054,242.8632 C 368.41773,242.69299 368.96884,242.13731 369.38525,241.62837 L 370.14235,240.70296 L 369.71956,239.63563 C 369.48705,239.04862 369.18383,238.40712 369.04581,238.21012 C 368.52711,237.46987 367.46574,237.25132 366.61098,237.70876 C 365.27591,238.42324 364.88761,241.59599 365.98265,242.84316 C 366.55448,243.49445 367.19775,243.50037 368.16054,242.8632 z M 358.45184,238.35952 C 357.27624,238.31594 354.90076,238.27224 353.17297,238.26239 C 350.99318,238.24993 350.03158,238.20101 350.03158,238.10252 C 350.03158,238.02447 350.16275,237.77671 350.32305,237.55196 L 350.61452,237.14335 L 350.64991,229.53572 C 350.69014,220.88912 350.77331,221.52515 349.57893,221.34604 C 348.71158,221.21597 348.60662,221.15779 348.60662,220.80715 L 348.60662,220.49714 L 351.84518,220.49714 L 355.08374,220.49714 L 355.08374,220.87111 C 355.08374,221.2284 355.04654,221.25207 354.24803,221.40273 C 353.78841,221.48946 353.31483,221.63174 353.19559,221.7189 C 352.85253,221.96976 352.69558,226.82237 352.85358,232.29338 C 352.96455,236.13639 353.00955,236.74373 353.19691,236.92953 C 353.38075,237.11186 353.69296,237.13881 355.31683,237.11257 C 356.36424,237.09562 358.03567,237.02402 359.03112,236.95347 C 360.07675,236.87932 360.88934,236.87339 360.95536,236.93944 C 361.09893,237.08298 360.94603,238.03221 360.74184,238.26487 C 360.62031,238.40341 360.15467,238.42265 358.45184,238.35952 z M 366.55899,222.91466 C 366.60993,220.25441 366.61518,217.93264 366.57065,217.75516 C 366.46078,217.31742 365.98452,217.12904 364.98763,217.12904 C 364.2428,217.12904 364.15171,217.10126 364.15171,216.87428 C 364.15171,216.65954 364.4697,216.5175 366.17615,215.97007 C 367.28964,215.61287 368.2369,215.34303 368.28125,215.37044 C 368.32557,215.39782 368.35006,218.09275 368.33566,221.35918 L 368.30948,227.2981 L 367.62318,227.51689 C 366.34084,227.92569 366.45366,228.41352 366.55899,222.91466 z"
     id="path4729" />
  <path
     style="fill:#000000"
     d="M 518.88795,178.77968 C 518.70568,178.58376 518.34169,177.86204 518.07907,177.17589 L 517.60162,175.92832 L 516.41073,177.12227 C 514.16784,179.37097 512.58795,179.61173 511.55914,177.86161 C 511.22931,177.30055 511.2043,177.15615 511.20774,175.83259 C 511.21258,173.94991 511.49979,173.18244 512.61769,172.06453 C 513.51944,171.16275 514.49303,170.71568 515.55502,170.71568 C 516.6771,170.71568 517.3347,171.24706 518.01542,172.70388 L 518.42995,173.59099 L 519.33376,172.18573 C 519.83082,171.41282 520.25359,170.76246 520.27317,170.74048 C 520.29275,170.71848 520.52329,170.79014 520.78551,170.89967 C 521.11246,171.03631 521.23047,171.1506 521.16111,171.26351 C 521.10552,171.35408 520.51357,172.17048 519.84565,173.07775 L 518.63128,174.72737 L 518.78876,175.21522 C 519.29929,176.79671 520.05594,177.97004 520.56522,177.97004 C 520.69734,177.97004 521.14711,177.76429 521.56475,177.51281 C 522.04008,177.22659 522.36973,177.10125 522.44615,177.17767 C 522.64189,177.37341 522.449,177.56023 521.21405,178.37116 C 519.85759,179.26186 519.40969,179.34052 518.88795,178.77968 z M 515.27764,177.14802 C 515.53482,176.97781 516.08597,176.42213 516.50234,175.91319 L 517.25945,174.98778 L 516.83666,173.92045 C 516.60414,173.33343 516.30095,172.69194 516.16291,172.49494 C 515.64424,171.75468 514.58287,171.53613 513.7281,171.99358 C 512.393,172.70805 512.00471,175.88081 513.09975,177.12798 C 513.67157,177.77926 514.31485,177.78519 515.27764,177.14802 z M 505.56893,172.64434 C 504.39336,172.60076 502.01785,172.55706 500.2901,172.5472 C 498.11031,172.53474 497.14868,172.48582 497.14868,172.38734 C 497.14868,172.30926 497.27985,172.06153 497.44015,171.83678 L 497.73161,171.42817 L 497.767,163.82053 C 497.80724,155.17394 497.89041,155.80997 496.69602,155.63086 C 495.82871,155.50079 495.72372,155.4426 495.72372,155.09196 L 495.72372,154.78196 L 498.96227,154.78196 L 502.20083,154.78196 L 502.20083,155.15592 C 502.20083,155.51322 502.16363,155.53688 501.36516,155.68754 C 500.90551,155.77427 500.43192,155.91656 500.31272,156.00372 C 499.96963,156.25458 499.81268,161.10718 499.97067,166.5782 C 500.08168,170.42121 500.12664,171.02851 500.31401,171.21434 C 500.49784,171.39668 500.81006,171.42362 502.43396,171.39738 C 503.48133,171.38044 505.15277,171.30884 506.14825,171.23828 C 507.19384,171.16413 508.00644,171.15821 508.07248,171.22426 C 508.21602,171.3678 508.06312,172.31702 507.85897,172.54972 C 507.7374,172.68823 507.27177,172.70747 505.56893,172.64434 z M 509.7143,161.79855 C 509.7143,161.73901 510.75259,160.646 512.02162,159.36961 C 515.16138,156.21165 515.83571,155.131 515.85447,153.22745 C 515.86555,152.10363 515.63386,151.54365 514.99771,151.15679 C 514.0661,150.59024 513.0066,150.73157 511.69117,151.59788 C 511.10161,151.98614 511.00269,152.01484 510.85737,151.83975 C 510.45646,151.35668 513.04947,149.84195 514.42748,149.7542 C 515.52503,149.68429 516.23613,149.90535 516.90902,150.52561 C 517.59035,151.15363 517.80071,151.72475 517.7118,152.70516 C 517.58053,154.15296 516.60571,155.56914 513.00522,159.54264 L 512.27159,160.35229 L 515.46215,160.35229 C 517.21697,160.35229 518.65274,160.39087 518.65274,160.43804 C 518.65274,160.48521 518.55465,160.83499 518.43477,161.21531 L 518.21678,161.9068 L 513.96556,161.9068 C 511.62737,161.9068 509.7143,161.85809 509.7143,161.79855 z"
     id="path4744" />
  <path
     style="fill:#000000"
     d="M 650.44952,152.7035 C 650.26725,152.50754 649.90323,151.78583 649.64064,151.09968 L 649.16315,149.85211 L 647.9723,151.04606 C 645.72941,153.29479 644.14952,153.53555 643.12068,151.78543 C 642.79085,151.22434 642.76587,151.07994 642.76927,149.75641 C 642.77415,147.8737 643.06132,147.10622 644.17923,145.98832 C 645.08101,145.08654 646.05457,144.63947 647.11656,144.63947 C 648.23863,144.63947 648.89624,145.17085 649.57699,146.6277 L 649.99149,147.51481 L 650.8953,146.10952 C 651.39239,145.33661 651.81512,144.68625 651.8347,144.66427 C 651.85432,144.64227 652.08486,144.71393 652.34705,144.82349 C 652.674,144.9601 652.79203,145.07439 652.72267,145.1873 C 652.66706,145.27787 652.0751,146.09427 651.40722,147.00157 L 650.19282,148.65116 L 650.35033,149.13901 C 650.86086,150.7205 651.61751,151.89386 652.12676,151.89386 C 652.25888,151.89386 652.70868,151.68808 653.12628,151.43663 C 653.60162,151.15038 653.93127,151.02504 654.00772,151.10146 C 654.20343,151.2972 654.01057,151.48401 652.77561,152.29495 C 651.41912,153.18565 650.97126,153.26431 650.44952,152.7035 z M 646.83921,151.07181 C 647.09639,150.90163 647.6475,150.34595 648.06391,149.83698 L 648.82102,148.91156 L 648.39822,147.84424 C 648.16568,147.25722 647.86249,146.61573 647.72444,146.41873 C 647.20577,145.6785 646.1444,145.45995 645.28964,145.91737 C 643.95457,146.63184 643.56628,149.80463 644.66131,151.05177 C 645.23314,151.70305 645.87638,151.70898 646.83921,151.07181 z M 637.1305,146.56813 C 635.9549,146.52455 633.57942,146.48084 631.85164,146.47099 C 629.67184,146.45856 628.71025,146.40961 628.71025,146.31113 C 628.71025,146.23308 628.84139,145.98531 629.00171,145.76057 L 629.29318,145.35195 L 629.32857,137.74432 C 629.3688,129.09776 629.45198,129.73376 628.25759,129.55465 C 627.39025,129.42461 627.28529,129.36639 627.28529,129.01575 L 627.28529,128.70575 L 630.52384,128.70575 L 633.7624,128.70575 L 633.7624,129.07971 C 633.7624,129.43701 633.7252,129.46067 632.9267,129.61136 C 632.46707,129.69806 631.99346,129.84034 631.87426,129.92754 C 631.5312,130.17837 631.37425,135.03097 631.53224,140.50199 C 631.64322,144.345 631.68821,144.95233 631.87555,145.13813 C 632.05938,145.32047 632.37163,145.34741 633.99549,145.32117 C 635.0429,145.30423 636.71431,145.23263 637.70979,145.16207 C 638.75541,145.08792 639.568,145.08203 639.63402,145.14805 C 639.77759,145.29162 639.62466,146.24081 639.42051,146.47351 C 639.29897,146.61202 638.83333,146.63126 637.1305,146.56813 z M 643.25544,135.96406 C 642.67693,135.82656 641.40539,135.19056 641.40539,135.03868 C 641.40539,134.96987 641.60116,134.62288 641.84042,134.26758 L 642.27546,133.6216 L 642.74589,134.19573 C 643.43072,135.03143 644.17551,135.35347 645.27927,135.29111 C 645.97014,135.25207 646.27849,135.16435 646.696,134.88805 C 647.5914,134.29551 648.06956,132.98244 647.75139,131.98997 C 647.34477,130.72178 646.52739,130.1811 644.692,129.96633 C 643.7263,129.85333 643.47807,129.782 643.47807,129.61756 C 643.47807,129.47117 643.73326,129.34448 644.35247,129.18348 C 645.60931,128.85665 646.45665,128.35661 646.80827,127.73418 C 647.14869,127.13163 647.19512,126.27582 646.91667,125.73733 C 646.47215,124.87769 645.03196,124.70769 643.54967,125.33985 C 642.86715,125.63092 642.62475,125.68485 642.54631,125.56304 C 642.40347,125.3412 642.94703,124.91418 644.11272,124.3325 C 646.37391,123.20413 648.57411,123.92088 648.75911,125.84619 C 648.90097,127.32231 647.94216,128.50531 646.07599,129.15665 L 645.61554,129.31735 L 646.19848,129.4062 C 648.05197,129.68861 648.98816,130.15765 649.43099,131.02567 C 650.35849,132.84369 648.76105,135.21174 646.13369,135.91357 C 645.4384,136.09931 643.93545,136.12567 643.25544,135.96406 z"
     id="path4759" />
  <path
     style="fill:none;fill-rule:evenodd;stroke:#000000;stroke-width:1.53452671;stroke-linecap:butt;stroke-linejoin:miter;stroke-miterlimit:4;stroke-dasharray:3.0690533, 1.53452665;stroke-dashoffset:0;stroke-opacity:1"
     d="M 30.598256,10.11937 C 30.741482,12.98083 30.731934,20.85983 29.573238,25.49462 C 28.455802,29.96436 29.573238,36.23529 29.573238,40.86987 C 29.573238,46.6783 29.573238,52.48673 29.573238,58.29516 C 29.573238,63.42023 29.573238,68.5453 29.573238,73.67041 C 29.573238,77.64888 30.598256,83.3463 30.598256,88.02063 C 30.598256,93.14573 30.598256,98.2708 30.598256,103.39588 C 30.598256,108.86263 30.598256,114.32941 30.598256,119.79616 C 30.598256,124.92124 30.598256,130.04631 30.598256,135.17141"
     id="path4761" />
  <path
     style="fill:#830000;fill-opacity:1"
     d="M 104.87098,75.17403 C 103.93459,74.83005 102.61817,73.91243 101.98973,73.16555 C 100.64601,71.56863 100.08565,69.60017 100.10746,66.55349 C 100.13491,62.7207 101.2839,60.50267 104.19339,58.66599 C 105.64693,57.74841 106.166,57.66956 112.74265,57.36735 C 116.20356,57.20828 119.238,57.078 119.48584,57.07782 C 119.90114,57.07751 119.92729,57.13324 119.81917,57.78818 C 119.75464,58.17909 119.60968,58.82641 119.49703,59.22671 C 119.31812,59.86246 119.23568,59.94035 118.84532,59.84236 C 118.47481,59.74937 115.66851,59.33716 112.25987,58.87502 C 111.32968,58.74892 111.31019,59.13685 112.22205,59.62789 C 116.10972,61.72154 116.62185,69.34347 113.10502,72.76897 C 110.88982,74.92663 107.16188,76.01553 104.87098,75.17403 z M 109.30597,73.30108 C 111.01159,72.69184 111.97474,71.23343 112.32277,68.73295 C 112.67192,66.22452 112.27026,63.22139 111.34236,61.40254 C 110.81387,60.36661 110.07049,59.7575 108.92496,59.42168 C 105.13087,58.30949 102.59638,62.01215 103.37545,67.52902 C 103.68788,69.7415 104.24599,71.02525 105.39493,72.17418 C 106.71057,73.48983 107.85462,73.81944 109.30597,73.30108 z"
     id="path4776" />
</svg>
