<?xml version="1.0" encoding="UTF-8" standalone="no"?>
<!-- Created with Inkscape (http://www.inkscape.org/) -->
<svg
   xmlns:dc="http://purl.org/dc/elements/1.1/"
   xmlns:cc="http://creativecommons.org/ns#"
   xmlns:rdf="http://www.w3.org/1999/02/22-rdf-syntax-ns#"
   xmlns:svg="http://www.w3.org/2000/svg"
   xmlns="http://www.w3.org/2000/svg"
   xmlns:sodipodi="http://sodipodi.sourceforge.net/DTD/sodipodi-0.dtd"
   xmlns:inkscape="http://www.inkscape.org/namespaces/inkscape"
   width="1907.8698"
   height="563.28571"
   id="svg2"
   inkscape:label="Pozadí"
   sodipodi:version="0.32"
   inkscape:version="0.46"
   version="1.0"
   sodipodi:docname="cichon-2.svg"
   inkscape:output_extension="org.inkscape.output.svg.inkscape">
  <defs
     id="defs3">
    <inkscape:perspective
       sodipodi:type="inkscape:persp3d"
       inkscape:vp_x="0 : 526.18109 : 1"
       inkscape:vp_y="0 : 1000 : 0"
       inkscape:vp_z="744.09448 : 526.18109 : 1"
       inkscape:persp3d-origin="372.04724 : 350.78739 : 1"
       id="perspective9" />
  </defs>
  <sodipodi:namedview
     id="base"
     pagecolor="#ffffff"
     bordercolor="#666666"
     borderopacity="1.0"
     inkscape:pageopacity="0.0"
     inkscape:pageshadow="2"
     inkscape:zoom="0.35"
     inkscape:cx="-77.75012"
     inkscape:cy="526.18109"
     inkscape:document-units="px"
     inkscape:current-layer="layer1"
     showgrid="false"
     inkscape:window-width="1280"
     inkscape:window-height="811"
     inkscape:window-x="0"
     inkscape:window-y="20"
     borderlayer="false" />
  <metadata
     id="metadata6">
    <rdf:RDF>
      <cc:Work
         rdf:about="">
        <dc:format>image/svg+xml</dc:format>
        <dc:type
           rdf:resource="http://purl.org/dc/dcmitype/StillImage" />
      </cc:Work>
    </rdf:RDF>
  </metadata>
  <g
     inkscape:label="Vrstva 1"
     inkscape:groupmode="layer"
     id="layer1"
     transform="translate(859.9823,-171.86218)">
    <path
       style="fill:#000000"
       d="M -712.32289,693.10166 C -722.24465,683.14977 -726.84597,669.85291 -726.26547,652.81068 C -725.86796,641.13656 -723.30307,632.4279 -717.82853,624.1639 C -715.36437,620.44407 -709.55558,614.27149 -708.51925,614.27149 C -707.17615,614.27149 -707.45244,615.23637 -709.38161,617.28249 C -715.23837,623.49464 -719.06251,632.01304 -720.88989,642.91827 C -721.73943,647.98772 -721.8565,661.5519 -721.09267,666.41275 C -719.31892,677.7005 -715.62502,686.42981 -710.02678,692.56366 C -707.52004,695.31029 -707.12182,696.29608 -708.51925,696.29608 C -708.8596,696.29608 -710.57123,694.85862 -712.32289,693.10166 z M -618.40779,695.7587 C -618.40779,695.46306 -617.743,694.58206 -616.93066,693.80082 C -614.63146,691.58989 -610.89311,685.72649 -609.18537,681.65302 C -605.9344,673.89825 -604.65094,666.43649 -604.6497,655.28379 C -604.64776,638.81778 -608.12147,627.32935 -615.89654,618.08757 C -617.27772,616.44584 -618.40779,614.91561 -618.40779,614.68705 C -618.40779,613.60717 -616.81712,614.52968 -614.04601,617.21667 C -607.41312,623.64822 -602.95459,632.33928 -600.8124,643.01311 C -599.7463,648.32513 -599.76476,662.50693 -600.84447,667.6493 C -603.10382,678.41017 -607.5355,687.03805 -614.04601,693.35091 C -616.92253,696.14013 -618.40779,696.95999 -618.40779,695.7587 z M -171.53766,693.10166 C -181.45942,683.14977 -186.06074,669.85291 -185.48033,652.81068 C -185.08272,641.13656 -182.51784,632.4279 -177.0433,624.1639 C -174.57914,620.44407 -168.77044,614.27149 -167.73402,614.27149 C -166.39092,614.27149 -166.6673,615.23637 -168.59638,617.28249 C -174.45314,623.49464 -178.27728,632.01304 -180.10475,642.91827 C -180.95429,647.98772 -181.07127,661.5519 -180.30744,666.41275 C -178.53369,677.7005 -174.83979,686.42981 -169.24155,692.56366 C -166.7348,695.31029 -166.33658,696.29608 -167.73402,696.29608 C -168.07446,696.29608 -169.78609,694.85862 -171.53766,693.10166 z M -58.662067,695.7587 C -58.662067,695.46306 -57.997365,694.58206 -57.184932,693.80082 C -54.88582,691.58989 -51.147389,685.72649 -49.439733,681.65302 C -46.188762,673.89825 -44.905302,666.43649 -44.903977,655.28379 C -44.902122,638.81778 -48.375838,627.32935 -56.150813,618.08757 C -57.531994,616.44584 -58.662067,614.91561 -58.662067,614.68705 C -58.662067,613.60717 -57.071394,614.52968 -54.300285,617.21667 C -47.6674,623.64822 -43.208867,632.33928 -41.066764,643.01311 C -40.000572,648.32513 -40.019039,662.50693 -41.098749,667.6493 C -43.3581,678.41017 -47.789773,687.03805 -54.300285,693.35091 C -57.176891,696.14013 -58.662067,696.95999 -58.662067,695.7587 z M 375.0181,693.10166 C 365.09634,683.14977 360.49503,669.85291 361.07552,652.81068 C 361.47313,641.13656 364.03801,632.4279 369.51246,624.1639 C 371.97662,620.44407 377.78541,614.27149 378.82183,614.27149 C 380.16484,614.27149 379.88855,615.23637 377.95947,617.28249 C 372.10262,623.49464 368.27857,632.01304 366.4511,642.91827 C 365.60156,647.98772 365.48458,661.5519 366.24833,666.41275 C 368.02216,677.7005 371.71597,686.42981 377.31421,692.56366 C 379.82105,695.31029 380.21918,696.29608 378.82183,696.29608 C 378.48139,696.29608 376.76976,694.85862 375.0181,693.10166 z M 487.89378,695.7587 C 487.89378,695.46306 488.55849,694.58206 489.37092,693.80082 C 491.67003,691.58989 495.40837,685.72649 497.11603,681.65302 C 500.36709,673.89825 501.65055,666.43649 501.65178,655.28379 C 501.65373,638.81778 498.18001,627.32935 490.40495,618.08757 C 489.02377,616.44584 487.89378,614.91561 487.89378,614.68705 C 487.89378,613.60717 489.48437,614.52968 492.25548,617.21667 C 498.88845,623.64822 503.34689,632.33928 505.48909,643.01311 C 506.55519,648.32513 506.53672,662.50693 505.45701,667.6493 C 503.19766,678.41017 498.76599,687.03805 492.25548,693.35091 C 489.37896,696.14013 487.89378,696.95999 487.89378,695.7587 z M 935.58819,693.10166 C 925.66643,683.14977 921.06511,669.85291 921.64552,652.81068 C 922.04321,641.13656 924.60801,632.4279 930.08255,624.1639 C 932.54671,620.44407 938.3555,614.27149 939.39191,614.27149 C 940.73492,614.27149 940.45863,615.23637 938.52947,617.28249 C 932.6727,623.49464 928.84866,632.01304 927.02119,642.91827 C 926.17165,647.98772 926.05457,661.5519 926.81841,666.41275 C 928.59216,677.7005 932.28606,686.42981 937.88429,692.56366 C 940.39104,695.31029 940.78926,696.29608 939.39191,696.29608 C 939.05148,696.29608 937.33984,694.85862 935.58819,693.10166 z M 1029.5034,695.7587 C 1029.5034,695.46306 1030.1681,694.58206 1030.9805,693.80082 C 1033.2796,691.58989 1037.018,685.72649 1038.7257,681.65302 C 1041.9767,673.89825 1043.2601,666.43649 1043.2614,655.28379 C 1043.2633,638.81778 1039.7896,627.32935 1032.0145,618.08757 C 1030.6334,616.44584 1029.5034,614.91561 1029.5034,614.68705 C 1029.5034,613.60717 1031.094,614.52968 1033.8651,617.21667 C 1040.498,623.64822 1044.9565,632.33928 1047.0987,643.01311 C 1048.1648,648.32513 1048.1463,662.50693 1047.0666,667.6493 C 1044.8073,678.41017 1040.3756,687.03805 1033.8651,693.35091 C 1030.9886,696.14013 1029.5034,696.95999 1029.5034,695.7587 z M -701.32504,679.15935 C -703.99569,678.33737 -705.53945,676.46784 -705.17065,674.5021 C -704.81228,672.59159 -703.44267,669.93844 -702.65975,669.638 C -702.31843,669.50701 -701.62589,669.788 -701.12094,670.26242 C -700.03805,671.27973 -697.0935,672.38941 -695.47702,672.38941 C -693.03734,672.38941 -690.49401,667.48339 -687.03655,656.10815 C -684.05091,646.28515 -680.24233,628.411 -680.23305,624.17816 C -680.22748,621.64777 -679.41876,620.08134 -677.55339,618.98819 C -675.08375,617.54089 -674.04619,617.75258 -673.39845,619.83597 C -665.74576,644.4525 -659.82069,660.1386 -655.19163,668.03638 L -653.27369,671.30871 L -649.65595,656.76274 C -643.57008,632.29209 -640.36293,621.80328 -637.76933,617.8877 C -635.48171,614.43401 -631.17594,612.46827 -625.82704,612.43558 L -622.73564,612.41666 L -622.80969,614.12801 C -622.90785,616.39691 -624.33374,619.15492 -625.52292,619.37593 C -626.03026,619.47024 -628.0219,619.75077 -629.94894,619.99936 C -634.298,620.56042 -636.90353,621.80683 -637.8371,623.77291 C -639.32183,626.89965 -647.66361,658.28081 -650.37694,670.94677 C -650.76544,672.76038 -651.42643,674.73321 -651.84586,675.33088 C -652.56446,676.35484 -655.24871,677.74777 -656.50337,677.74777 C -656.81703,677.74777 -657.99482,676.31031 -659.12065,674.55338 C -663.75881,667.31551 -667.79659,657.87663 -673.88794,640.03298 C -675.97747,633.91205 -677.78709,629.18224 -677.90929,629.52229 C -678.03148,629.86234 -678.71509,633.10829 -679.42848,636.73551 C -681.65585,648.06109 -687.04548,665.46526 -690.34204,671.97723 C -693.04635,677.31942 -695.56953,679.83553 -698.16534,679.77846 C -698.84542,679.76352 -700.26733,679.48494 -701.32504,679.15935 z M -155.11581,679.42362 C -157.01644,678.84542 -158.80892,677.73991 -159.46222,676.7429 C -160.00278,675.91787 -160.03115,675.46072 -159.63443,673.96919 C -159.05517,671.79092 -157.705,669.50413 -156.99815,669.50413 C -156.71179,669.50413 -156.1517,669.86405 -155.75357,670.30393 C -154.96472,671.17561 -151.80882,672.38941 -150.33125,672.38941 C -148.106,672.38941 -145.12248,667.50886 -141.5089,657.95737 C -137.09622,646.2936 -134.53629,637.11006 -132.83579,626.84309 C -132.34762,623.89598 -131.68,621.06077 -131.35211,620.54266 C -130.63148,619.40375 -127.4155,617.76594 -126.55111,618.09767 C -126.20511,618.23043 -125.80238,619.12425 -125.64157,620.11642 C -123.261,634.80467 -118.00293,655.26004 -114.6583,662.84489 L -113.68692,665.04764 L -107.70539,658.92913 C -101.81178,652.9005 -90.20419,639.62472 -78.299808,625.29741 C -74.956329,621.27346 -72.064967,617.98114 -71.874383,617.98114 C -71.177784,617.98114 -71.114521,619.15207 -71.668248,621.79393 C -74.380689,634.7339 -77.210379,657.30694 -77.210379,666.00527 C -77.210379,672.70725 -76.351735,674.10438 -72.978568,672.89141 C -69.649314,671.69423 -69.81931,673.24201 -73.27456,675.58742 C -75.743227,677.26314 -79.268544,678.32959 -81.163957,677.97396 C -83.75588,677.48774 -84.01547,676.55708 -83.98163,667.87068 C -83.951147,660.04368 -83.164955,651.96034 -81.203717,639.31194 C -80.685332,635.96827 -80.383243,633.37151 -80.532388,633.54137 C -80.681621,633.71123 -83.369234,636.91068 -86.504812,640.65125 C -96.819492,652.95601 -104.48058,661.67923 -109.91147,667.30294 C -116.6555,674.28641 -116.48507,674.26864 -119.48387,668.30133 C -122.67688,661.94744 -125.97954,650.99353 -128.93902,636.9416 C -129.53587,634.10784 -130.13245,631.41833 -130.2648,630.96493 C -130.41333,630.4563 -131.25801,633.06106 -132.47043,637.76597 C -136.98428,655.28317 -144.12494,672.48974 -148.93452,677.4387 C -151.35132,679.92557 -152.37987,680.25584 -155.11581,679.42362 z M 391.44004,679.42362 C 389.53941,678.84542 387.74684,677.73991 387.09363,676.7429 C 386.55307,675.91787 386.5247,675.46072 386.92133,673.96919 C 387.5006,671.79092 388.85085,669.50413 389.55761,669.50413 C 389.84406,669.50413 390.40415,669.86405 390.8022,670.30393 C 391.59104,671.17561 394.74703,672.38941 396.22452,672.38941 C 398.44985,672.38941 401.43337,667.50886 405.04695,657.95737 C 409.45963,646.2936 412.01948,637.11006 413.72006,626.84309 C 414.20823,623.89598 414.87585,621.06077 415.20365,620.54266 C 415.92428,619.40375 419.14026,617.76594 420.00465,618.09767 C 420.35074,618.23043 420.75338,619.12425 420.91419,620.11642 C 423.29485,634.80467 428.55283,655.26004 431.89755,662.84489 L 432.86893,665.04764 L 438.85037,658.92913 C 444.74407,652.9005 456.35166,639.62472 468.25604,625.29741 C 471.59943,621.27346 474.49088,617.98114 474.68147,617.98114 C 475.37807,617.98114 475.44133,619.15207 474.88751,621.79393 C 472.17507,634.7339 469.34547,657.30694 469.34547,666.00527 C 469.34547,672.70725 470.20403,674.10438 473.57728,672.89141 C 476.90645,671.69423 476.73654,673.24201 473.28129,675.58742 C 470.81262,677.26314 467.28722,678.32959 465.39181,677.97396 C 462.79988,677.48774 462.54038,676.55708 462.57422,667.87068 C 462.60462,660.04368 463.3909,651.96034 465.35205,639.31194 C 465.87052,635.96827 466.17261,633.37151 466.02337,633.54137 C 465.87414,633.71123 463.18662,636.91068 460.05104,640.65125 C 449.73636,652.95601 442.07527,661.67923 436.6443,667.30294 C 429.90035,674.28641 430.0707,674.26864 427.07198,668.30133 C 423.87888,661.94744 420.57623,650.99353 417.61683,636.9416 C 417.01998,634.10784 416.4234,631.41833 416.29105,630.96493 C 416.14252,630.4563 415.29775,633.06106 414.08542,637.76597 C 409.57149,655.28317 402.43082,672.48974 397.62134,677.4387 C 395.20445,679.92557 394.17598,680.25584 391.44004,679.42362 z M 946.58604,679.15935 C 943.91539,678.33737 942.37163,676.46784 942.74043,674.5021 C 943.0988,672.59159 944.46841,669.93844 945.25133,669.638 C 945.59265,669.50701 946.28518,669.788 946.79014,670.26242 C 947.87303,671.27973 950.81758,672.38941 952.43405,672.38941 C 954.87374,672.38941 957.41716,667.48339 960.87453,656.10815 C 963.86025,646.28515 967.66875,628.411 967.67803,624.17816 C 967.68359,621.64777 968.49241,620.08134 970.35769,618.98819 C 972.82733,617.54089 973.86489,617.75258 974.51254,619.83597 C 982.16532,644.4525 988.09047,660.1386 992.71945,668.03638 L 994.63748,671.30871 L 998.25504,656.76274 C 1004.341,632.29209 1007.5481,621.80328 1010.1417,617.8877 C 1012.4294,614.43401 1016.7351,612.46827 1022.084,612.43558 L 1025.1754,612.41666 L 1025.1014,614.12801 C 1025.0032,616.39691 1023.5773,619.15492 1022.3882,619.37593 C 1021.8808,619.47024 1019.8892,619.75077 1017.9622,619.99936 C 1013.6131,620.56042 1011.0075,621.80683 1010.074,623.77291 C 1008.5893,626.89965 1000.2476,658.28081 997.53423,670.94677 C 997.14564,672.76038 996.48465,674.73321 996.06522,675.33088 C 995.34662,676.35484 992.66237,677.74777 991.40771,677.74777 C 991.09405,677.74777 989.91626,676.31031 988.79043,674.55338 C 984.15236,667.31551 980.11449,657.87663 974.02323,640.03298 C 971.93369,633.91205 970.12408,629.18224 970.00188,629.52229 C 969.87959,629.86234 969.19598,633.10829 968.48269,636.73551 C 966.25532,648.06109 960.8656,665.46526 957.56913,671.97723 C 954.86473,677.31942 952.34155,679.83553 949.74573,679.77846 C 949.06566,679.76352 947.64375,679.48494 946.58604,679.15935 z M -853.14646,675.67678 C -860.48284,673.3388 -862.18413,666.73706 -856.93137,660.98973 C -853.60361,657.34862 -848.03348,655.19393 -840.00342,654.44161 L -837.16489,654.17567 L -837.38463,650.9697 C -837.5093,649.1509 -837.94976,646.98293 -838.40258,645.95928 C -839.95844,642.44203 -843.74733,640.27246 -847.35861,640.83097 C -849.77276,641.20436 -853.19744,642.98541 -854.19498,644.38634 L -855.05742,645.59746 L -854.0545,645.59746 C -852.31371,645.59746 -850.87942,647.08405 -850.87942,648.88822 C -850.87942,651.01855 -852.84658,652.80883 -854.76576,652.425 C -857.87819,651.80251 -858.65175,648.29726 -856.49056,644.60942 C -852.50553,637.80949 -841.53834,637.03694 -835.2754,643.11492 C -832.12003,646.17712 -832.14954,646.03388 -831.91902,659.40562 C -831.69848,672.19589 -831.57045,672.97521 -829.60966,673.46732 C -826.93362,674.13897 -825.74258,672.06366 -825.73852,666.72189 C -825.73631,663.80972 -825.70989,663.73355 -824.70581,663.73355 C -823.70818,663.73355 -823.6754,663.82225 -823.67761,666.5158 C -823.68044,669.97995 -824.22498,671.99973 -825.59503,673.62799 C -829.25473,677.97723 -834.82275,676.4386 -836.64403,670.57465 C -836.84814,669.9175 -837.07433,670.0846 -838.039,671.60511 C -839.25062,673.51493 -841.48462,675.22124 -843.83073,676.02891 C -845.901,676.74166 -850.33055,676.57423 -853.14646,675.67678 z M -844.05021,674.25722 C -841.52279,673.50466 -839.56508,671.75172 -838.4002,669.19845 C -837.66154,667.57939 -837.47838,666.28402 -837.35088,661.77568 L -837.19652,656.31425 L -838.57656,656.32141 C -840.57614,656.33176 -845.01523,657.34771 -847.21221,658.29779 C -850.83993,659.86661 -853.32238,662.81145 -853.98231,666.32887 C -854.61255,669.68883 -853.04494,672.64377 -849.86607,674.08774 C -847.83565,675.01 -846.69029,675.04338 -844.05021,674.25722 z M -807.8944,675.93354 C -811.85637,674.64912 -816.39929,670.78977 -818.27332,667.11639 C -822.09816,659.61921 -820.66467,650.46593 -814.73342,644.51288 C -811.66853,641.43676 -808.01951,639.78752 -803.67876,639.51672 C -800.62341,639.32613 -800.0483,639.41467 -797.86432,640.41194 C -796.53138,641.02065 -794.74517,642.19583 -793.89501,643.02345 L -792.34931,644.52822 L -792.35541,634.65518 C -792.35974,627.58012 -792.50782,624.49014 -792.87777,623.75172 C -793.30577,622.89747 -793.83334,622.65601 -795.96307,622.33978 C -798.38394,621.98028 -798.53211,621.89421 -798.53211,620.84718 C -798.53211,619.59356 -798.22985,619.52045 -790.80361,618.97781 L -786.99096,618.69917 L -786.99096,645.05334 C -786.99096,666.67609 -786.88988,671.54567 -786.42805,672.17726 C -786.01684,672.73965 -785.18382,672.99635 -783.33665,673.12998 C -780.88759,673.3071 -780.80816,673.34902 -780.80816,674.46365 C -780.80816,675.81132 -781.18456,675.90522 -788.33053,676.34007 L -792.76149,676.60974 L -792.76149,674.05526 L -792.76149,671.50082 L -794.48214,672.9736 C -797.28364,675.3716 -799.55943,676.27853 -803.0661,676.39442 C -804.84559,676.45327 -806.89457,676.25764 -807.8944,675.93354 z M -800.02162,674.27898 C -797.65889,673.56793 -795.57793,672.03189 -793.96985,669.81199 L -792.76149,668.14388 L -792.76149,657.547 L -792.76149,646.95008 L -794.46049,645.01999 C -797.48377,641.58526 -801.11573,640.43795 -805.20343,641.62628 C -811.79311,643.54194 -815.132,651.41469 -813.83396,661.97658 C -813.10202,667.93264 -811.07593,671.81405 -807.80887,673.51917 C -805.04368,674.96235 -802.9659,675.1651 -800.02162,674.27898 z M -763.37853,675.93354 C -767.3405,674.64912 -771.8835,670.78977 -773.75753,667.11639 C -777.58228,659.61921 -776.1488,650.46593 -770.21755,644.51288 C -767.15274,641.43676 -763.50364,639.78752 -759.16297,639.51672 C -756.10753,639.32613 -755.53242,639.41467 -753.34853,640.41194 C -752.0155,641.02065 -750.2293,642.19583 -749.37914,643.02345 L -747.83344,644.52822 L -747.83953,634.65518 C -747.84395,627.58012 -747.99195,624.49014 -748.36189,623.75172 C -748.78989,622.89747 -749.31746,622.65601 -751.4472,622.33978 C -753.86806,621.98028 -754.01624,621.89421 -754.01624,620.84718 C -754.01624,619.59356 -753.71406,619.52045 -746.28782,618.97781 L -742.47509,618.69917 L -742.47509,645.05334 C -742.47509,666.67609 -742.37401,671.54567 -741.91217,672.17726 C -741.50096,672.73965 -740.66794,672.99635 -738.82086,673.12998 C -736.37172,673.3071 -736.29237,673.34902 -736.29237,674.46365 C -736.29237,675.81132 -736.66868,675.90522 -743.81465,676.34007 L -748.2457,676.60974 L -748.2457,674.05526 L -748.2457,671.50082 L -749.96626,672.9736 C -752.76785,675.3716 -755.04364,676.27853 -758.55022,676.39442 C -760.32971,676.45327 -762.37878,676.25764 -763.37853,675.93354 z M -755.50583,674.27898 C -753.1431,673.56793 -751.06214,672.03189 -749.45406,669.81199 L -748.2457,668.14388 L -748.2457,657.547 L -748.2457,646.95008 L -749.94461,645.01999 C -752.96789,641.58526 -756.59985,640.43795 -760.68756,641.62628 C -767.27723,643.54194 -770.61612,651.41469 -769.31808,661.97658 C -768.58614,667.93264 -766.56014,671.81405 -763.29309,673.51917 C -760.52781,674.96235 -758.45003,675.1651 -755.50583,674.27898 z M -312.36123,675.67678 C -319.69761,673.3388 -321.3989,666.73706 -316.14622,660.98973 C -312.81847,657.34862 -307.24824,655.19393 -299.21819,654.44161 L -296.37966,654.17567 L -296.5994,650.9697 C -296.72407,649.1509 -297.16453,646.98293 -297.61735,645.95928 C -299.17321,642.44203 -302.96209,640.27246 -306.57338,640.83097 C -308.98753,641.20436 -312.4123,642.98541 -313.40984,644.38634 L -314.27219,645.59746 L -313.26926,645.59746 C -311.52856,645.59746 -310.09419,647.08405 -310.09419,648.88822 C -310.09419,651.01855 -312.06144,652.80883 -313.98053,652.425 C -317.09296,651.80251 -317.8666,648.29726 -315.70542,644.60942 C -311.7203,637.80949 -300.75319,637.03694 -294.49017,643.11492 C -291.3348,646.17712 -291.36431,646.03388 -291.13379,659.40562 C -290.91325,672.19589 -290.78531,672.97521 -288.82451,673.46732 C -286.14839,674.13897 -284.95744,672.06366 -284.95328,666.72189 C -284.95108,663.80972 -284.92475,663.73355 -283.92058,663.73355 C -282.92295,663.73355 -282.89017,663.82225 -282.89238,666.5158 C -282.89521,669.97995 -283.43975,671.99973 -284.80988,673.62799 C -288.46959,677.97723 -294.03761,676.4386 -295.8588,670.57465 C -296.06299,669.9175 -296.28918,670.0846 -297.25377,671.60511 C -298.46539,673.51493 -300.69939,675.22124 -303.04559,676.02891 C -305.11586,676.74166 -309.54532,676.57423 -312.36123,675.67678 z M -303.26498,674.25722 C -300.73764,673.50466 -298.77985,671.75172 -297.61497,669.19845 C -296.87631,667.57939 -296.69315,666.28402 -296.56574,661.77568 L -296.41129,656.31425 L -297.79132,656.32141 C -299.791,656.33176 -304.23,657.34771 -306.42698,658.29779 C -310.05478,659.86661 -312.53723,662.81145 -313.19708,666.32887 C -313.82741,669.68883 -312.2598,672.64377 -309.08084,674.08774 C -307.0505,675.01 -305.90506,675.04338 -303.26498,674.25722 z M -267.10926,675.93354 C -271.07114,674.64912 -275.61414,670.78977 -277.48817,667.11639 C -281.31293,659.61921 -279.87944,650.46593 -273.94819,644.51288 C -270.88339,641.43676 -267.23428,639.78752 -262.89353,639.51672 C -259.83818,639.32613 -259.26307,639.41467 -257.07917,640.41194 C -255.74615,641.02065 -253.95994,642.19583 -253.10978,643.02345 L -251.56408,644.52822 L -251.57018,634.65518 C -251.57459,627.58012 -251.72259,624.49014 -252.09254,623.75172 C -252.52053,622.89747 -253.04811,622.65601 -255.17784,622.33978 C -257.59871,621.98028 -257.74688,621.89421 -257.74688,620.84718 C -257.74688,619.59356 -257.4447,619.52045 -250.01847,618.97781 L -246.20573,618.69917 L -246.20573,645.05334 C -246.20573,666.67609 -246.10465,671.54567 -245.64281,672.17726 C -245.23169,672.73965 -244.39859,672.99635 -242.5515,673.12998 C -240.10236,673.3071 -240.02293,673.34902 -240.02293,674.46365 C -240.02293,675.81132 -240.39933,675.90522 -247.5453,676.34007 L -251.97635,676.60974 L -251.97635,674.05526 L -251.97635,671.50082 L -253.69691,672.9736 C -256.4985,675.3716 -258.77428,676.27853 -262.28087,676.39442 C -264.06036,676.45327 -266.10942,676.25764 -267.10926,675.93354 z M -259.23647,674.27898 C -256.87375,673.56793 -254.79279,672.03189 -253.18471,669.81199 L -251.97635,668.14388 L -251.97635,657.547 L -251.97635,646.95008 L -253.67526,645.01999 C -256.69862,641.58526 -260.3305,640.43795 -264.4182,641.62628 C -271.00788,643.54194 -274.34676,651.41469 -273.04882,661.97658 C -272.31687,667.93264 -270.29078,671.81405 -267.02373,673.51917 C -264.25845,674.96235 -262.18067,675.1651 -259.23647,674.27898 z M -222.59338,675.93354 C -226.55527,674.64912 -231.09827,670.78977 -232.9723,667.11639 C -236.79705,659.61921 -235.36356,650.46593 -229.4324,644.51288 C -226.36751,641.43676 -222.71841,639.78752 -218.37774,639.51672 C -215.32239,639.32613 -214.74728,639.41467 -212.5633,640.41194 C -211.23027,641.02065 -209.44407,642.19583 -208.59399,643.02345 L -207.04829,644.52822 L -207.0543,634.65518 C -207.05872,627.58012 -207.20671,624.49014 -207.57666,623.75172 C -208.00466,622.89747 -208.53232,622.65601 -210.66196,622.33978 C -213.08292,621.98028 -213.231,621.89421 -213.231,620.84718 C -213.231,619.59356 -212.92883,619.52045 -205.50259,618.97781 L -201.68985,618.69917 L -201.68985,645.05334 C -201.68985,666.67609 -201.58877,671.54567 -201.12703,672.17726 C -200.71582,672.73965 -199.88271,672.99635 -198.03563,673.12998 C -195.58649,673.3071 -195.50714,673.34902 -195.50714,674.46365 C -195.50714,675.81132 -195.88345,675.90522 -203.02951,676.34007 L -207.46047,676.60974 L -207.46047,674.05526 L -207.46047,671.50082 L -209.18103,672.9736 C -211.98262,675.3716 -214.25841,676.27853 -217.76508,676.39442 C -219.54448,676.45327 -221.59355,676.25764 -222.59338,675.93354 z M -214.7206,674.27898 C -212.35787,673.56793 -210.27691,672.03189 -208.66883,669.81199 L -207.46047,668.14388 L -207.46047,657.547 L -207.46047,646.95008 L -209.15938,645.01999 C -212.18275,641.58526 -215.81462,640.43795 -219.90232,641.62628 C -226.49209,643.54194 -229.83089,651.41469 -228.53294,661.97658 C -227.801,667.93264 -225.77491,671.81405 -222.50785,673.51917 C -219.74258,674.96235 -217.66489,675.1651 -214.7206,674.27898 z M 251.84789,675.7382 C 242.83257,672.39102 237.87633,662.47899 240.39094,652.8251 C 241.80499,647.3959 245.5079,642.83093 250.36297,640.53114 C 252.89623,639.3312 253.51799,639.20866 257.07079,639.2089 C 261.61379,639.20927 264.02237,640.06472 266.70203,642.62949 C 268.59957,644.44569 269.4363,646.22155 269.4363,648.43287 C 269.4363,651.55005 265.89596,653.18029 263.61311,651.11429 C 261.47463,649.17901 262.8741,645.2544 265.72667,645.18721 C 266.73631,645.16347 266.72668,645.13462 265.24619,643.75776 C 262.42675,641.13574 256.54118,640.24859 253.08019,641.92404 C 247.9217,644.42121 245.12002,652.49367 246.31,661.43097 C 246.93494,666.12513 248.36189,669.38249 250.76261,671.59543 C 253.06826,673.72064 254.81638,674.45033 257.60234,674.45033 C 262.13306,674.45033 265.95701,672.04367 267.54928,668.1902 C 268.62289,665.59188 268.82558,665.24239 269.36243,665.06343 C 270.23318,664.77316 270.37579,666.19846 269.66275,668.06544 C 268.71805,670.5392 265.65448,673.84895 263.09181,675.16444 C 260.22457,676.63625 254.98673,676.90353 251.84789,675.7382 z M 287.3609,675.79376 C 276.38134,671.86994 271.66172,659.83005 276.8787,649.05326 C 278.34647,646.02127 282.29413,642.10292 285.44252,640.55295 C 287.97471,639.30638 288.47375,639.20861 292.3038,639.20861 C 295.93753,639.20861 296.72213,639.34348 298.82722,640.32975 C 302.09091,641.85891 306.11279,645.79844 307.69798,649.01883 C 312.62215,659.02262 308.87966,670.44934 299.19469,674.98148 C 295.68793,676.62247 290.64784,676.96847 287.3609,675.79376 z M 296.97236,673.38269 C 299.79304,671.97706 301.41561,669.93832 302.51961,666.41275 C 303.27373,664.00423 303.42385,662.53986 303.42809,657.5508 C 303.43578,648.51786 301.88743,644.54652 297.40212,642.09406 C 295.55142,641.08216 294.73492,640.89028 292.31246,640.89807 C 284.38781,640.92363 280.4315,647.53786 281.11899,659.61171 C 281.4103,664.72852 282.14975,667.46699 283.96962,670.16948 C 286.74259,674.28727 292.3676,675.67732 296.97236,673.38269 z M 330.26234,676.14585 C 330.13811,675.94487 327.364,669.03564 324.09756,660.792 C 320.83113,652.54836 317.92466,645.29405 317.63856,644.67133 C 317.08245,643.46078 315.25454,642.71864 312.81865,642.71448 C 311.60553,642.71238 311.47909,642.59545 311.47909,641.47562 L 311.47909,640.23907 L 319.92884,640.23907 L 328.37859,640.23907 L 328.37859,641.47562 C 328.37859,642.49891 328.21142,642.71217 327.40959,642.71217 C 325.95631,642.71217 323.94126,643.51445 323.6792,644.1974 C 323.43763,644.82676 332.8927,669.24927 333.24241,668.89953 C 333.77202,668.37 341.98064,646.96035 341.98064,646.10874 C 341.98064,644.56568 341.27892,643.64095 339.71679,643.12539 C 338.50251,642.72466 338.27102,642.45534 338.27102,641.44364 L 338.27102,640.23907 L 344.65986,640.23907 L 351.04871,640.23907 L 351.04871,641.43453 C 351.04871,642.52743 350.87297,642.67211 348.9992,643.12163 C 345.54607,643.95001 345.18682,644.56308 338.91584,660.32899 C 335.78141,668.20909 332.9587,675.07376 332.64309,675.58383 C 332.06984,676.51034 330.68901,676.83629 330.26234,676.14585 z M 842.98473,675.79376 C 832.00517,671.86994 827.28564,659.83005 832.50262,649.05326 C 833.9703,646.02127 837.91796,642.10292 841.06643,640.55295 C 843.59854,639.30638 844.09757,639.20861 847.92772,639.20861 C 851.56136,639.20861 852.34605,639.34348 854.45104,640.32975 C 857.71474,641.85891 861.7367,645.79844 863.3219,649.01883 C 868.24598,659.02262 864.50348,670.44934 854.81852,674.98148 C 851.31184,676.62247 846.27166,676.96847 842.98473,675.79376 z M 852.59619,673.38269 C 855.41686,671.97706 857.03943,669.93832 858.14344,666.41275 C 858.89756,664.00423 859.04768,662.53986 859.05192,657.5508 C 859.0596,648.51786 857.51134,644.54652 853.02604,642.09406 C 851.17533,641.08216 850.35875,640.89028 847.93638,640.89807 C 840.01164,640.92363 836.05532,647.53786 836.74282,659.61171 C 837.03413,664.72852 837.77358,667.46699 839.59345,670.16948 C 842.36642,674.28727 847.99142,675.67732 852.59619,673.38269 z M 785.90269,674.50759 C 785.90269,673.36345 785.97779,673.32144 788.42348,673.09969 C 789.80988,672.97397 791.15466,672.66071 791.41177,672.40355 C 791.74178,672.0736 791.87935,667.88288 791.87935,658.16318 C 791.87935,642.41813 792.07329,643.23371 788.23502,642.83756 C 786.02497,642.60946 785.90269,642.53753 785.90269,641.46545 C 785.90269,640.20226 786.04485,640.16859 793.83723,639.58658 L 797.44384,639.31718 L 797.44384,643.3624 L 797.44384,647.40761 L 798.6081,645.57512 C 799.8951,643.54945 802.10223,641.46746 804.14741,640.34983 C 805.15838,639.79734 806.42973,639.62079 809.39717,639.62079 C 813.71194,639.62079 815.07864,640.09312 817.54907,642.43795 C 819.86338,644.6346 820.11396,646.31174 820.11396,659.60776 C 820.11396,668.60218 820.24057,671.58067 820.64657,672.13588 C 821.01589,672.64101 821.96334,672.93535 823.73788,673.09627 C 826.22457,673.32173 826.29667,673.3615 826.29667,674.50759 L 826.29667,675.68688 L 817.22869,675.68688 L 808.16062,675.68688 L 808.16062,674.50676 C 808.16062,673.34947 808.2132,673.32243 810.87784,673.10855 C 812.37229,672.98856 813.80975,672.67547 814.07226,672.41278 C 814.41331,672.07137 814.54947,668.26683 814.54947,659.07542 C 814.54947,646.80756 814.50892,646.12803 813.66812,644.30955 C 812.92672,642.70616 812.4769,642.28503 810.83666,641.65859 C 809.16903,641.02173 808.56609,640.98113 806.67289,641.37822 C 802.01502,642.35523 798.77218,646.01513 797.84427,651.34248 C 797.22524,654.89596 797.45135,671.73956 798.12709,672.41411 C 798.3896,672.67609 799.82706,672.98856 801.32152,673.10855 C 803.98625,673.32243 804.03873,673.34947 804.03873,674.50676 L 804.03873,675.68688 L 794.97075,675.68688 L 785.90269,675.68688 L 785.90269,674.50759 z M 870.81254,674.50759 C 870.81254,673.36345 870.88773,673.32144 873.33334,673.09969 C 874.71973,672.97397 876.06451,672.66071 876.32172,672.40355 C 876.65164,672.0736 876.78921,667.88288 876.78921,658.16318 C 876.78921,642.41813 876.98315,643.23371 873.14488,642.83756 C 870.93483,642.60946 870.81254,642.53753 870.81254,641.46545 C 870.81254,640.20226 870.9548,640.16859 878.74709,639.58658 L 882.35369,639.31718 L 882.35369,643.3624 L 882.35369,647.40761 L 883.51796,645.57512 C 884.80504,643.54945 887.01209,641.46746 889.05726,640.34983 C 890.06823,639.79734 891.33959,639.62079 894.30702,639.62079 C 898.6218,639.62079 899.98849,640.09312 902.45893,642.43795 C 904.77332,644.6346 905.02381,646.31174 905.02381,659.60776 C 905.02381,668.60218 905.15043,671.58067 905.55642,672.13588 C 905.92584,672.64101 906.87328,672.93535 908.64773,673.09627 C 911.13443,673.32173 911.20661,673.3615 911.20661,674.50759 L 911.20661,675.68688 L 902.13855,675.68688 L 893.07048,675.68688 L 893.07048,674.50676 C 893.07048,673.34947 893.12305,673.32243 895.78769,673.10855 C 897.28215,672.98856 898.7197,672.67547 898.98212,672.41278 C 899.32317,672.07137 899.45933,668.26683 899.45933,659.07542 C 899.45933,646.80756 899.41877,646.12803 898.57798,644.30955 C 897.83658,642.70616 897.38676,642.28503 895.74652,641.65859 C 894.07889,641.02173 893.47595,640.98113 891.58283,641.37822 C 886.92488,642.35523 883.68213,646.01513 882.75412,651.34248 C 882.1351,654.89596 882.3612,671.73956 883.03695,672.41411 C 883.29946,672.67609 884.73692,672.98856 886.23137,673.10855 C 888.8961,673.32243 888.94867,673.34947 888.94867,674.50676 L 888.94867,675.68688 L 879.88061,675.68688 L 870.81254,675.68688 L 870.81254,674.50759 z M -411.21623,669.32969 C -411.64679,668.2076 -408.53418,662.91566 -405.5883,659.76125 L -402.75693,656.72935 L -459.3236,656.62486 C -512.68294,656.52627 -515.91606,656.47945 -516.34521,655.79902 C -516.67707,655.2729 -516.67707,654.88248 -516.34521,654.35637 C -515.91659,653.67676 -512.61614,653.62313 -459.25989,653.42895 L -402.62952,653.22286 L -403.96935,652.21775 C -406.82758,650.07362 -411.74672,642.62038 -411.21614,641.23775 C -411.07919,640.88093 -410.59553,640.6618 -410.10082,640.7325 C -409.49178,640.81955 -408.72803,641.78257 -407.5787,643.91283 C -405.56427,647.64614 -402.28326,651.02304 -398.51222,653.24401 C -396.95283,654.1624 -395.62298,655.08981 -395.55698,655.30493 C -395.49098,655.52001 -396.71011,656.41206 -398.26606,657.28733 C -401.89555,659.32892 -405.6741,663.16185 -407.66847,666.82493 C -409.25066,669.73107 -410.67602,670.73738 -411.21623,669.32969 z M 148.5295,669.32969 C 148.09894,668.2076 151.21146,662.91566 154.15733,659.76125 L 156.98879,656.72935 L 100.42213,656.62486 C 47.062697,656.52627 43.829662,656.47945 43.400429,655.79902 C 43.068652,655.2729 43.068652,654.88248 43.400429,654.35637 C 43.829132,653.67676 47.129582,653.62313 100.48583,653.42895 L 157.1162,653.22286 L 155.77637,652.21775 C 152.91814,650.07362 147.99901,642.62038 148.52959,641.23775 C 148.66654,640.88093 149.1502,640.6618 149.6449,640.7325 C 150.25394,640.81955 151.0176,641.78257 152.16703,643.91283 C 154.18137,647.64614 157.46247,651.02304 161.2335,653.24401 C 162.79281,654.1624 164.12274,655.08981 164.18866,655.30493 C 164.25466,655.52001 163.03561,656.41206 161.47966,657.28733 C 157.85017,659.32892 154.07154,663.16185 152.07726,666.82493 C 150.49506,669.73107 149.06971,670.73738 148.5295,669.32969 z M 695.08526,669.32969 C 694.6547,668.2076 697.76731,662.91566 700.71318,659.76125 L 703.54455,656.72935 L 646.97789,656.62486 C 593.61855,656.52627 590.38542,656.47945 589.95628,655.79902 C 589.62441,655.2729 589.62441,654.88248 589.95628,654.35637 C 590.38498,653.67676 593.68543,653.62313 647.04159,653.42895 L 703.67196,653.22286 L 702.33213,652.21775 C 699.47399,650.07362 694.55486,642.62038 695.08535,641.23775 C 695.2223,640.88093 695.70596,640.6618 696.20067,640.7325 C 696.8097,640.81955 697.57345,641.78257 698.72279,643.91283 C 700.73722,647.64614 704.01832,651.02304 707.78926,653.24401 C 709.34866,654.1624 710.6785,655.08981 710.74451,655.30493 C 710.81051,655.52001 709.59137,656.41206 708.03542,657.28733 C 704.40593,659.32892 700.62739,663.16185 698.63302,666.82493 C 697.05083,669.73107 695.62547,670.73738 695.08526,669.32969 z M -178.11294,592.34331 C -178.48925,591.96698 -178.60755,584.08524 -178.60755,559.38628 L -178.60755,526.92383 L -180.55121,529.00173 C -182.76585,531.36932 -188.00236,534.95742 -189.8285,535.35848 C -192.51099,535.94765 -192.35504,533.67508 -189.63606,532.55406 C -185.53802,530.86444 -180.64169,526.07387 -178.47405,521.63317 C -178.00373,520.66968 -177.39363,519.88139 -177.11831,519.88139 C -176.84291,519.88139 -175.91976,521.13339 -175.06678,522.66362 C -172.99721,526.37666 -169.24456,530.03657 -165.5207,531.97379 C -163.04956,533.25939 -162.53242,533.70286 -162.53242,534.53641 C -162.53242,535.2936 -162.75331,535.54437 -163.42022,535.54437 C -164.98615,535.54437 -169.6616,532.5874 -172.52787,529.78422 L -175.31011,527.06324 L -175.31011,559.45598 C -175.31011,593.049 -175.29968,592.83793 -176.95883,592.83793 C -177.32153,592.83793 -177.84089,592.61534 -178.11294,592.34331 z M 375.03781,592.34331 C 374.6615,591.96698 374.54319,584.08524 374.54319,559.38628 L 374.54319,526.92383 L 372.59953,529.00173 C 370.38498,531.36932 365.14838,534.95742 363.32224,535.35848 C 360.63984,535.94765 360.7957,533.67508 363.51468,532.55406 C 367.61281,530.86444 372.50906,526.07387 374.67669,521.63317 C 375.14701,520.66968 375.75711,519.88139 376.03252,519.88139 C 376.30783,519.88139 377.23098,521.13339 378.08397,522.66362 C 380.15362,526.37666 383.90619,530.03657 387.63004,531.97379 C 390.10127,533.25939 390.61833,533.70286 390.61833,534.53641 C 390.61833,535.2936 390.39744,535.54437 389.73053,535.54437 C 388.16459,535.54437 383.48915,532.5874 380.62288,529.78422 L 377.84063,527.06324 L 377.84063,559.45598 C 377.84063,593.049 377.85106,592.83793 376.19191,592.83793 C 375.82921,592.83793 375.30985,592.61534 375.03781,592.34331 z M -728.7906,492.59481 C -729.1669,492.21849 -729.28521,484.33675 -729.28521,459.63779 L -729.28521,427.17534 L -731.22878,429.25324 C -733.44342,431.62082 -738.68002,435.20893 -740.50616,435.60998 C -743.18856,436.19916 -743.03261,433.92658 -740.31372,432.80556 C -736.21559,431.11594 -731.31926,426.32537 -729.15162,421.88467 C -728.68139,420.92119 -728.07129,420.13289 -727.79588,420.13289 C -727.52048,420.13289 -726.59733,421.38489 -725.74443,422.91513 C -723.67478,426.62816 -719.92221,430.28807 -716.19836,432.22529 C -713.72713,433.51089 -713.21007,433.95436 -713.21007,434.78792 C -713.21007,435.5451 -713.43096,435.79587 -714.09788,435.79587 C -715.66372,435.79587 -720.33917,432.83891 -723.20552,430.03573 L -725.98777,427.31474 L -725.98777,459.70748 C -725.98777,493.30051 -725.97734,493.08943 -727.63649,493.08943 C -727.99919,493.08943 -728.51855,492.86686 -728.7906,492.59481 z M 918.29612,492.59481 C 917.91981,492.21849 917.8015,484.33675 917.8015,459.63779 L 917.8015,427.17534 L 915.85794,429.25324 C 913.64329,431.62082 908.4067,435.20893 906.58056,435.60998 C 903.89816,436.19916 904.0541,433.92658 906.77308,432.80556 C 910.87112,431.11594 915.76746,426.32537 917.9351,421.88467 C 918.40533,420.92119 919.01543,420.13289 919.29083,420.13289 C 919.56624,420.13289 920.48929,421.38489 921.34228,422.91513 C 923.41193,426.62816 927.1645,430.28807 930.88835,432.22529 C 933.35958,433.51089 933.87664,433.95436 933.87664,434.78792 C 933.87664,435.5451 933.65575,435.79587 932.98884,435.79587 C 931.423,435.79587 926.74755,432.83891 923.88119,430.03573 L 921.09895,427.31474 L 921.09895,459.70748 C 921.09895,493.30051 921.10938,493.08943 919.45023,493.08943 C 919.08753,493.08943 918.56817,492.86686 918.29612,492.59481 z M 370.42138,477.86942 C 368.94778,476.83855 366.35241,474.6656 364.65394,473.04069 L 361.56563,470.08627 L 361.56254,464.17308 C 361.56078,460.92083 361.62642,456.33302 361.70842,453.97788 L 361.85747,449.69587 L 364.54853,447.17685 C 368.86861,443.13299 372.5861,440.3299 373.62897,440.3299 C 374.53303,440.3299 374.47621,440.47952 372.69151,442.79888 C 371.64661,444.15682 370.29106,446.33624 369.6791,447.64204 C 368.59047,449.96507 368.56652,450.18822 368.56652,457.99726 L 368.56652,465.97824 L 370.4895,467.7189 C 372.89128,469.893 378.05172,472.99163 378.97468,472.81386 C 380.04697,472.60735 381.4506,470.20156 382.63395,466.54199 C 383.54658,463.71969 383.74423,462.22251 383.91758,456.81725 C 384.03845,453.05163 383.93207,449.15912 383.6587,447.33702 L 383.19474,444.24564 L 380.18861,441.32912 C 372.59211,433.95898 364.80273,430.70417 359.92486,432.86187 C 358.41857,433.52816 357.80494,433.62771 357.37968,433.27475 C 357.07141,433.01895 356.81924,432.66064 356.81924,432.4785 C 356.81924,432.29631 359.25062,430.91096 362.22221,429.39993 L 367.62518,426.65257 L 370.77507,427.76851 C 376.085,429.64972 380.47143,432.06681 386.77793,436.58673 L 390.56302,439.29944 L 390.85636,442.39082 C 391.21164,446.13377 390.41917,458.8076 389.58173,462.77731 C 388.49884,467.90999 388.40165,468.06439 384.31209,471.14971 C 382.22636,472.72326 378.85054,475.30065 376.81023,476.87726 L 373.10051,479.74378 L 370.42138,477.86942 z M -186.98582,475.24521 L -191.44833,471.0376 L -190.99604,468.3584 C -190.31808,464.34208 -190.04197,446.1182 -190.46838,433.52886 C -190.8021,423.67659 -190.77206,422.34034 -190.20658,421.88059 C -189.37082,421.20114 -189.16654,421.59787 -188.5067,425.18214 C -188.22493,426.71237 -187.89616,427.96438 -187.77608,427.96438 C -187.656,427.96438 -185.25891,426.27794 -182.44936,424.21672 C -178.14165,421.05643 -177.24237,420.55093 -176.71179,420.99126 C -176.16654,421.4438 -176.38522,421.80199 -178.35008,423.67495 C -182.443,427.57656 -183.56892,431.08745 -183.68361,440.30632 C -183.72558,443.68141 -183.63068,446.57234 -183.4727,446.73062 C -183.31472,446.8889 -181.30418,445.50516 -179.00489,443.65564 C -176.7056,441.80613 -174.1454,439.84422 -173.31547,439.29581 L -171.80653,438.2987 L -167.00049,440.75572 L -162.19445,443.2128 L -161.9012,446.73293 C -161.58489,450.53054 -162.22344,461.98229 -162.98877,466.23697 L -163.4598,468.85562 L -166.84967,471.04242 C -170.63696,473.48564 -180.42539,478.88166 -181.69895,479.22835 C -182.32831,479.3997 -183.57882,478.45752 -186.98582,475.24521 z M -172.37607,472.44553 C -170.90114,471.39533 -169.80173,469.30197 -169.14719,466.29748 C -168.47789,463.22543 -168.18322,455.28409 -168.58931,451.26147 L -168.92126,447.97269 L -172.38597,446.53978 L -175.85067,445.1069 L -179.70229,447.11032 L -183.55381,449.11378 L -183.55381,458.02887 L -183.55381,466.94395 L -181.3898,469.05532 C -177.05797,473.28198 -174.76292,474.14513 -172.37607,472.44553 z M 148.5295,470.65706 C 148.09894,469.53498 151.21146,464.24304 154.15733,461.08863 L 156.98879,458.05677 L 100.42213,457.95224 C 47.062697,457.85365 43.829662,457.80682 43.400429,457.12639 C 43.068652,456.60028 43.068652,456.20986 43.400429,455.68374 C 43.829132,455.00413 47.129582,454.95051 100.48583,454.75633 L 157.1162,454.55024 L 155.77637,453.54517 C 152.91814,451.40103 147.99901,443.94776 148.52959,442.56517 C 148.66654,442.2083 149.1502,441.98919 149.6449,442.05992 C 150.25394,442.14693 151.0176,443.10996 152.16703,445.2402 C 154.18137,448.97355 157.46247,452.35041 161.2335,454.57138 C 162.79281,455.48981 164.12274,456.41723 164.18866,456.63231 C 164.25466,456.84738 163.03561,457.73947 161.47966,458.61471 C 157.85017,460.65633 154.07154,464.48928 152.07726,468.15231 C 150.49506,471.05849 149.06971,472.0648 148.5295,470.65706 z M -178.11294,393.6707 C -178.48925,393.29436 -178.60755,385.41263 -178.60755,360.71365 L -178.60755,328.25121 L -180.55121,330.32912 C -182.76585,332.69671 -188.00236,336.28479 -189.8285,336.68587 C -192.51099,337.27503 -192.35504,335.00246 -189.63606,333.88144 C -185.53802,332.1918 -180.64169,327.40125 -178.47405,322.96056 C -178.00373,321.99708 -177.39363,321.20878 -177.11831,321.20878 C -176.84291,321.20878 -175.91976,322.46079 -175.06678,323.99102 C -172.99721,327.70405 -169.24456,331.36393 -165.5207,333.30118 C -163.04956,334.58676 -162.53242,335.03023 -162.53242,335.86378 C -162.53242,336.62098 -162.75331,336.87177 -163.42022,336.87177 C -164.98615,336.87177 -169.6616,333.91476 -172.52787,331.11158 L -175.31011,328.39061 L -175.31011,360.78334 C -175.31011,394.37636 -175.29968,394.16533 -176.95883,394.16533 C -177.32153,394.16533 -177.84089,393.94274 -178.11294,393.6707 z M 375.03781,393.6707 C 374.6615,393.29436 374.54319,385.41263 374.54319,360.71365 L 374.54319,328.25121 L 372.59953,330.32912 C 370.38498,332.69671 365.14838,336.28479 363.32224,336.68587 C 360.63984,337.27503 360.7957,335.00246 363.51468,333.88144 C 367.61281,332.1918 372.50906,327.40125 374.67669,322.96056 C 375.14701,321.99708 375.75711,321.20878 376.03252,321.20878 C 376.30783,321.20878 377.23098,322.46079 378.08397,323.99102 C 380.15362,327.70405 383.90619,331.36393 387.63004,333.30118 C 390.10127,334.58676 390.61833,335.03023 390.61833,335.86378 C 390.61833,336.62098 390.39744,336.87177 389.73053,336.87177 C 388.16459,336.87177 383.48915,333.91476 380.62288,331.11158 L 377.84063,328.39061 L 377.84063,360.78334 C 377.84063,394.37636 377.85106,394.16533 376.19191,394.16533 C 375.82921,394.16533 375.30985,393.94274 375.03781,393.6707 z M -718.91787,295.75642 C -728.83963,285.80451 -733.44095,272.50768 -732.86045,255.46545 C -732.46285,243.79135 -729.89796,235.08266 -724.42351,226.81867 C -721.95926,223.09886 -716.15056,216.92626 -715.11415,216.92626 C -713.77113,216.92626 -714.04742,217.89114 -715.9765,219.93727 C -721.83336,226.14942 -725.6574,234.66778 -727.48487,245.57304 C -728.33441,250.6425 -728.4514,264.20668 -727.68765,269.06752 C -725.91381,280.35524 -722.22,289.08461 -716.62176,295.21845 C -714.11493,297.96506 -713.7168,298.95084 -715.11415,298.95084 C -715.45458,298.95084 -717.16621,297.51335 -718.91787,295.75642 z M -625.00268,298.41343 C -625.00268,298.11785 -624.33798,297.23681 -623.52555,296.45556 C -621.22644,294.24462 -617.48809,288.38129 -615.78035,284.3078 C -612.52938,276.55303 -611.24592,269.09127 -611.24459,257.93856 C -611.24274,241.47256 -614.71645,229.98414 -622.49143,220.74233 C -623.87261,219.1006 -625.00268,217.57037 -625.00268,217.34181 C -625.00268,216.26192 -623.41201,217.18443 -620.6409,219.87142 C -614.00802,226.30298 -609.54948,234.99406 -607.40738,245.66788 C -606.34128,250.97992 -606.35965,265.16171 -607.43936,270.30407 C -609.69872,281.06492 -614.13048,289.69283 -620.6409,296.00568 C -623.51751,298.79494 -625.00268,299.61479 -625.00268,298.41343 z M -171.53766,295.75642 C -181.45942,285.80451 -186.06074,272.50768 -185.48033,255.46545 C -185.08272,243.79135 -182.51784,235.08266 -177.0433,226.81867 C -174.57914,223.09886 -168.77044,216.92626 -167.73402,216.92626 C -166.39092,216.92626 -166.6673,217.89114 -168.59638,219.93727 C -174.45314,226.14942 -178.27728,234.66778 -180.10475,245.57304 C -180.95429,250.6425 -181.07127,264.20668 -180.30744,269.06752 C -178.53369,280.35524 -174.83979,289.08461 -169.24155,295.21845 C -166.7348,297.96506 -166.33658,298.95084 -167.73402,298.95084 C -168.07446,298.95084 -169.78609,297.51335 -171.53766,295.75642 z M -58.662067,298.41343 C -58.662067,298.11785 -57.997365,297.23681 -57.184932,296.45556 C -54.88582,294.24462 -51.147389,288.38129 -49.439733,284.3078 C -46.188762,276.55303 -44.905302,269.09127 -44.903977,257.93856 C -44.902122,241.47256 -48.375838,229.98414 -56.150813,220.74233 C -57.531994,219.1006 -58.662067,217.57037 -58.662067,217.34181 C -58.662067,216.26192 -57.071394,217.18443 -54.300285,219.87142 C -47.6674,226.30298 -43.208867,234.99406 -41.066764,245.66788 C -40.000572,250.97992 -40.019039,265.16171 -41.098749,270.30407 C -43.3581,281.06492 -47.789773,289.69283 -54.300285,296.00568 C -57.176891,298.79494 -58.662067,299.61479 -58.662067,298.41343 z M 367.59885,295.75642 C 357.67709,285.80451 353.07577,272.50768 353.65618,255.46545 C 354.05378,243.79135 356.61867,235.08266 362.09321,226.81867 C 364.55737,223.09886 370.36607,216.92626 371.40249,216.92626 C 372.74559,216.92626 372.46921,217.89114 370.54013,219.93727 C 364.68336,226.14942 360.85923,234.66778 359.03176,245.57304 C 358.18222,250.6425 358.06523,264.20668 358.82907,269.06752 C 360.60282,280.35524 364.29672,289.08461 369.89496,295.21845 C 372.4017,297.96506 372.79992,298.95084 371.40249,298.95084 C 371.06205,298.95084 369.35042,297.51335 367.59885,295.75642 z M 480.47444,298.41343 C 480.47444,298.11785 481.13914,297.23681 481.95158,296.45556 C 484.25069,294.24462 487.98912,288.38129 489.69678,284.3078 C 492.94775,276.55303 494.23121,269.09127 494.23253,257.93856 C 494.23439,241.47256 490.76067,229.98414 482.9857,220.74233 C 481.60451,219.1006 480.47444,217.57037 480.47444,217.34181 C 480.47444,216.26192 482.06511,217.18443 484.83622,219.87142 C 491.46911,226.30298 495.92764,234.99406 498.06974,245.66788 C 499.13594,250.97992 499.11747,265.16171 498.03767,270.30407 C 495.77841,281.06492 491.34674,289.69283 484.83622,296.00568 C 481.95962,298.79494 480.47444,299.61479 480.47444,298.41343 z M 920.74959,295.75642 C 910.82783,285.80451 906.22651,272.50768 906.80692,255.46545 C 907.20453,243.79135 909.76941,235.08266 915.24395,226.81867 C 917.70811,223.09886 923.51681,216.92626 924.55323,216.92626 C 925.89633,216.92626 925.61995,217.89114 923.69087,219.93727 C 917.83411,226.14942 914.00997,234.66778 912.1825,245.57304 C 911.33296,250.6425 911.21598,264.20668 911.97982,269.06752 C 913.75356,280.35524 917.44746,289.08461 923.0457,295.21845 C 925.55245,297.96506 925.95067,298.95084 924.55323,298.95084 C 924.21279,298.95084 922.50116,297.51335 920.74959,295.75642 z M 1014.6647,298.41343 C 1014.6647,298.11785 1015.3295,297.23681 1016.1418,296.45556 C 1018.441,294.24462 1022.1794,288.38129 1023.887,284.3078 C 1027.1381,276.55303 1028.4215,269.09127 1028.4228,257.93856 C 1028.4247,241.47256 1024.951,229.98414 1017.1759,220.74233 C 1015.7948,219.1006 1014.6647,217.57037 1014.6647,217.34181 C 1014.6647,216.26192 1016.2554,217.18443 1019.0265,219.87142 C 1025.6594,226.30298 1030.1179,234.99406 1032.2601,245.66788 C 1033.3262,250.97992 1033.3077,265.16171 1032.228,270.30407 C 1029.9687,281.06492 1025.537,289.69283 1019.0265,296.00568 C 1016.15,298.79494 1014.6647,299.61479 1014.6647,298.41343 z M -707.92002,281.81413 C -710.59067,280.99217 -712.13443,279.1226 -711.76563,277.15689 C -711.40726,275.24634 -710.03765,272.5932 -709.25464,272.29276 C -708.91332,272.16177 -708.22088,272.44276 -707.71583,272.91719 C -706.63303,273.93449 -703.68848,275.04418 -702.07192,275.04418 C -699.63232,275.04418 -697.0889,270.13814 -693.63144,258.76292 C -690.64581,248.9399 -686.83731,231.06578 -686.82794,226.83295 C -686.82238,224.30255 -686.01365,222.73612 -684.14828,221.64297 C -681.67864,220.19566 -680.64117,220.40736 -679.99343,222.49075 C -672.34074,247.10727 -666.41558,262.79336 -661.78653,270.69114 L -659.86858,273.96348 L -656.25093,259.41752 C -650.16497,234.94683 -646.95791,224.45805 -644.36431,220.54246 C -642.07669,217.08878 -637.77092,215.12301 -632.42203,215.09033 L -629.33063,215.07143 L -629.40467,216.78274 C -629.50283,219.0517 -630.92863,221.80969 -632.11782,222.03072 C -632.62516,222.12502 -634.61688,222.40555 -636.54383,222.65414 C -640.89298,223.2152 -643.49842,224.46161 -644.43199,226.42767 C -645.91673,229.5544 -654.25851,260.93557 -656.97183,273.60154 C -657.36033,275.41514 -658.02141,277.38799 -658.44075,277.98563 C -659.15935,279.00964 -661.84369,280.40258 -663.09835,280.40258 C -663.41201,280.40258 -664.58971,278.96509 -665.71563,277.20814 C -670.3537,269.97028 -674.39148,260.53141 -680.48283,242.68775 C -682.57236,236.56682 -684.38198,231.83701 -684.50418,232.17706 C -684.62638,232.51711 -685.31007,235.76306 -686.02337,239.39028 C -688.25074,250.71584 -693.64037,268.12003 -696.93693,274.632 C -699.64133,279.97424 -702.16442,282.49028 -704.76024,282.43324 C -705.4404,282.4183 -706.86231,282.1397 -707.92002,281.81413 z M -155.11581,282.07837 C -157.01644,281.50022 -158.80892,280.39465 -159.46222,279.39762 C -160.00278,278.57264 -160.03115,278.11549 -159.63443,276.62396 C -159.05517,274.44569 -157.705,272.1589 -156.99815,272.1589 C -156.71179,272.1589 -156.1517,272.51882 -155.75357,272.95872 C -154.96472,273.83038 -151.80882,275.04418 -150.33125,275.04418 C -148.106,275.04418 -145.12248,270.16365 -141.5089,260.61213 C -137.09622,248.94836 -134.53629,239.76485 -132.83579,229.49787 C -132.34762,226.55076 -131.68,223.71556 -131.35211,223.19743 C -130.63148,222.05852 -127.4155,220.42072 -126.55111,220.75242 C -126.20511,220.8852 -125.80238,221.77902 -125.64157,222.77118 C -123.261,237.45945 -118.00293,257.9148 -114.6583,265.49967 L -113.68692,267.7024 L -107.70539,261.58392 C -101.81178,255.55528 -90.20419,242.2795 -78.299808,227.95218 C -74.956329,223.92824 -72.064967,220.63591 -71.874383,220.63591 C -71.177784,220.63591 -71.114521,221.80686 -71.668248,224.44871 C -74.380689,237.38868 -77.210379,259.96173 -77.210379,268.66003 C -77.210379,275.36202 -76.351735,276.75915 -72.978568,275.54616 C -69.649314,274.34897 -69.81931,275.89678 -73.27456,278.2422 C -75.743227,279.91792 -79.268544,280.98433 -81.163957,280.62876 C -83.75588,280.14251 -84.01547,279.21184 -83.98163,270.52546 C -83.951147,262.69844 -83.164955,254.61512 -81.203717,241.96673 C -80.685332,238.62305 -80.383243,236.02629 -80.532388,236.19616 C -80.681621,236.36601 -83.369234,239.56546 -86.504812,243.30602 C -96.819492,255.61078 -104.48058,264.33399 -109.91147,269.95773 C -116.6555,276.94119 -116.48507,276.92342 -119.48387,270.95612 C -122.67688,264.6022 -125.97954,253.64831 -128.93902,239.59637 C -129.53587,236.76261 -130.13245,234.0731 -130.2648,233.61971 C -130.41333,233.11107 -131.25801,235.71583 -132.47043,240.42074 C -136.98428,257.93795 -144.12494,275.14448 -148.93452,280.09344 C -151.35132,282.58031 -152.37987,282.9106 -155.11581,282.07837 z M 384.0207,282.07837 C 382.12007,281.50022 380.32759,280.39465 379.67429,279.39762 C 379.13372,278.57264 379.10536,278.11549 379.50208,276.62396 C 380.08134,274.44569 381.43151,272.1589 382.13836,272.1589 C 382.42472,272.1589 382.98481,272.51882 383.38294,272.95872 C 384.17178,273.83038 387.32768,275.04418 388.80526,275.04418 C 391.03051,275.04418 394.01402,270.16365 397.62761,260.61213 C 402.04028,248.94836 404.60022,239.76485 406.30072,229.49787 C 406.78889,226.55076 407.45651,223.71556 407.7844,223.19743 C 408.50503,222.05852 411.72101,220.42072 412.5854,220.75242 C 412.9314,220.8852 413.33413,221.77902 413.49485,222.77118 C 415.87551,237.45945 421.13358,257.9148 424.4782,265.49967 L 425.44959,267.7024 L 431.43103,261.58392 C 437.32473,255.55528 448.93232,242.2795 460.8367,227.95218 C 464.18018,223.92824 467.07154,220.63591 467.26213,220.63591 C 467.95872,220.63591 468.02199,221.80686 467.46826,224.44871 C 464.75582,237.38868 461.92613,259.96173 461.92613,268.66003 C 461.92613,275.36202 462.78477,276.75915 466.15794,275.54616 C 469.48719,274.34897 469.3172,275.89678 465.86195,278.2422 C 463.39328,279.91792 459.86796,280.98433 457.97255,280.62876 C 455.38063,280.14251 455.12104,279.21184 455.15488,270.52546 C 455.18536,262.69844 455.97155,254.61512 457.93279,241.96673 C 458.45118,238.62305 458.75327,236.02629 458.60412,236.19616 C 458.45489,236.36601 455.76727,239.56546 452.6317,243.30602 C 442.31702,255.61078 434.65593,264.33399 429.22504,269.95773 C 422.481,276.94119 422.65144,276.92342 419.65264,270.95612 C 416.45963,264.6022 413.15697,253.64831 410.19749,239.59637 C 409.60064,236.76261 409.00406,234.0731 408.87171,233.61971 C 408.72318,233.11107 407.8785,235.71583 406.66607,240.42074 C 402.15223,257.93795 395.01156,275.14448 390.20199,280.09344 C 387.78519,282.58031 386.75664,282.9106 384.0207,282.07837 z M 931.74735,281.81413 C 929.07679,280.99217 927.53303,279.1226 927.90183,277.15689 C 928.2602,275.24634 929.62981,272.5932 930.41273,272.29276 C 930.75405,272.16177 931.4465,272.44276 931.95154,272.91719 C 933.03434,273.93449 935.97899,275.04418 937.59546,275.04418 C 940.03514,275.04418 942.57847,270.13814 946.03593,258.76292 C 949.02157,248.9399 952.83015,231.06578 952.83943,226.83295 C 952.845,224.30255 953.65372,222.73612 955.51909,221.64297 C 957.98873,220.19566 959.0263,220.40736 959.67395,222.49075 C 967.32672,247.10727 973.25179,262.79336 977.88085,270.69114 L 979.79879,273.96348 L 983.41644,259.41752 C 989.5024,234.94683 992.70955,224.45805 995.30315,220.54246 C 997.59078,217.08878 1001.8965,215.12301 1007.2454,215.09033 L 1010.3367,215.07143 L 1010.2628,216.78274 C 1010.1646,219.0517 1008.7387,221.80969 1007.5496,222.03072 C 1007.0422,222.12502 1005.0505,222.40555 1003.1235,222.65414 C 998.77448,223.2152 996.16895,224.46161 995.23538,226.42767 C 993.75065,229.5544 985.40887,260.93557 982.69554,273.60154 C 982.30704,275.41514 981.64605,277.38799 981.22663,277.98563 C 980.50803,279.00964 977.82377,280.40258 976.56912,280.40258 C 976.25545,280.40258 975.07767,278.96509 973.95183,277.20814 C 969.31367,269.97028 965.27589,260.53141 959.18454,242.68775 C 957.09501,236.56682 955.28539,231.83701 955.16319,232.17706 C 955.041,232.51711 954.35739,235.76306 953.644,239.39028 C 951.41664,250.71584 946.02701,268.12003 942.73044,274.632 C 940.02613,279.97424 937.50295,282.49028 934.90714,282.43324 C 934.22706,282.4183 932.80515,282.1397 931.74735,281.81413 z M -842.088,278.39297 C -851.1034,275.04578 -856.05956,265.13376 -853.54503,255.47986 C -852.13099,250.05066 -848.42807,245.48568 -843.573,243.18592 C -841.03974,241.98595 -840.41798,241.86341 -836.86519,241.86369 C -832.32219,241.86405 -829.9136,242.71946 -827.23394,245.28424 C -825.33641,247.10047 -824.49968,248.87633 -824.49968,251.08764 C -824.49968,254.20484 -828.04001,255.83507 -830.32287,253.76908 C -832.46135,251.83379 -831.06188,247.90916 -828.2093,247.84201 C -827.19966,247.81823 -827.20929,247.78939 -828.68978,246.41253 C -831.50922,243.79049 -837.39479,242.90338 -840.85579,244.57881 C -846.01428,247.07597 -848.81587,255.14843 -847.62598,264.08572 C -847.00104,268.77991 -845.57409,272.03727 -843.17337,274.25021 C -840.86772,276.37542 -839.11959,277.1051 -836.33355,277.1051 C -831.80292,277.1051 -827.97896,274.69846 -826.3867,270.84499 C -825.31308,268.24665 -825.11039,267.89714 -824.57354,267.71818 C -823.70279,267.42793 -823.56019,268.85321 -824.27322,270.72022 C -825.21792,273.19396 -828.28149,276.50373 -830.84417,277.8192 C -833.71141,279.29103 -838.94924,279.55833 -842.088,278.39297 z M -806.57507,278.44854 C -817.55463,274.5247 -822.27425,262.48484 -817.05727,251.70803 C -815.5895,248.67606 -811.64185,244.7577 -808.49337,243.20773 C -805.96126,241.96116 -805.46223,241.86338 -801.63217,241.86338 C -797.99844,241.86338 -797.21384,241.99823 -795.10876,242.98452 C -791.84506,244.51369 -787.82319,248.45322 -786.23799,251.67361 C -781.31382,261.67739 -785.05632,273.10411 -794.74129,277.63626 C -798.24796,279.27725 -803.28814,279.62321 -806.57507,278.44854 z M -796.96362,276.03745 C -794.14294,274.63184 -792.52028,272.59307 -791.41636,269.06752 C -790.66224,266.659 -790.51213,265.19463 -790.50788,260.20556 C -790.5002,251.17262 -792.04846,247.20128 -796.53385,244.74883 C -798.38456,243.7369 -799.20105,243.54504 -801.62351,243.55284 C -809.54816,243.57837 -813.50448,250.19262 -812.81698,262.26648 C -812.52567,267.3833 -811.78622,270.12175 -809.96635,272.82425 C -807.19339,276.94203 -801.56838,278.33208 -796.96362,276.03745 z M -763.67364,278.80061 C -763.79786,278.59963 -766.57198,271.69039 -769.83841,263.44676 C -773.10484,255.20312 -776.01131,247.94881 -776.29741,247.32608 C -776.85352,246.11555 -778.68143,245.37342 -781.11732,245.36924 C -782.33045,245.36717 -782.45688,245.25022 -782.45688,244.13039 L -782.45688,242.89384 L -774.00714,242.89384 L -765.55739,242.89384 L -765.55739,244.13039 C -765.55739,245.15366 -765.72455,245.36695 -766.52639,245.36695 C -767.97967,245.36695 -769.99471,246.16923 -770.25678,246.85216 C -770.49834,247.48153 -761.04328,271.90405 -760.69356,271.55429 C -760.16396,271.02475 -751.95533,249.61511 -751.95533,248.76353 C -751.95533,247.22047 -752.65705,246.29572 -754.21919,245.78017 C -755.43347,245.37942 -755.66496,245.11012 -755.66496,244.09843 L -755.66496,242.89384 L -749.27611,242.89384 L -742.88727,242.89384 L -742.88727,244.08928 C -742.88727,245.18222 -743.06301,245.32689 -744.93677,245.7764 C -748.3899,246.60478 -748.74916,247.21787 -755.02014,262.98376 C -758.15448,270.86385 -760.97727,277.72853 -761.29288,278.23861 C -761.86614,279.16511 -763.24696,279.49105 -763.67364,278.80061 z M -263.31675,278.44854 C -274.29631,274.5247 -279.01594,262.48484 -273.79896,251.70803 C -272.33119,248.67606 -268.38353,244.7577 -265.23514,243.20773 C -262.70295,241.96116 -262.20391,241.86338 -258.37385,241.86338 C -254.74013,241.86338 -253.95552,241.99823 -251.85044,242.98452 C -248.58675,244.51369 -244.56487,248.45322 -242.97968,251.67361 C -238.05551,261.67739 -241.798,273.10411 -251.48297,277.63626 C -254.98973,279.27725 -260.02982,279.62321 -263.31675,278.44854 z M -253.7053,276.03745 C -250.88462,274.63184 -249.26205,272.59307 -248.15804,269.06752 C -247.40393,266.659 -247.25381,265.19463 -247.24957,260.20556 C -247.24188,251.17262 -248.79023,247.20128 -253.27554,244.74883 C -255.12624,243.7369 -255.94274,243.54504 -258.3652,243.55284 C -266.28985,243.57837 -270.24616,250.19262 -269.55866,262.26648 C -269.26735,267.3833 -268.5279,270.12175 -266.70803,272.82425 C -263.93507,276.94203 -258.31006,278.33208 -253.7053,276.03745 z M 260.09159,278.39297 C 251.07627,275.04578 246.12003,265.13376 248.63455,255.47986 C 250.04869,250.05066 253.75152,245.48568 258.60668,243.18592 C 261.13993,241.98595 261.76161,241.86341 265.31449,241.86369 C 269.85749,241.86405 272.26608,242.71946 274.94574,245.28424 C 276.84327,247.10047 277.68,248.87633 277.68,251.08764 C 277.68,254.20484 274.13966,255.83507 271.85672,253.76908 C 269.71833,251.83379 271.1178,247.90916 273.97029,247.84201 C 274.98002,247.81823 274.9703,247.78939 273.48981,246.41253 C 270.67045,243.79049 264.78488,242.90338 261.32389,244.57881 C 256.1654,247.07597 253.36372,255.14843 254.5537,264.08572 C 255.17864,268.77991 256.60559,272.03727 259.00631,274.25021 C 261.31187,276.37542 263.06009,277.1051 265.84604,277.1051 C 270.37676,277.1051 274.20072,274.69846 275.79298,270.84499 C 276.8666,268.24665 277.06928,267.89714 277.60614,267.71818 C 278.47688,267.42793 278.61949,268.85321 277.90646,270.72022 C 276.96176,273.19396 273.89819,276.50373 271.33551,277.8192 C 268.46818,279.29103 263.23035,279.55833 260.09159,278.39297 z M 295.60461,278.44854 C 284.62505,274.5247 279.90542,262.48484 285.1224,251.70803 C 286.59017,248.67606 290.53783,244.7577 293.68622,243.20773 C 296.21842,241.96116 296.71745,241.86338 300.54751,241.86338 C 304.18124,241.86338 304.96584,241.99823 307.07083,242.98452 C 310.33461,244.51369 314.35649,248.45322 315.94169,251.67361 C 320.86585,261.67739 317.12336,273.10411 307.43839,277.63626 C 303.93163,279.27725 298.89154,279.62321 295.60461,278.44854 z M 305.21597,276.03745 C 308.03674,274.63184 309.65931,272.59307 310.76323,269.06752 C 311.51735,266.659 311.66755,265.19463 311.67171,260.20556 C 311.67939,251.17262 310.13113,247.20128 305.64583,244.74883 C 303.79512,243.7369 302.97862,243.54504 300.55617,243.55284 C 292.63143,243.57837 288.67511,250.19262 289.3627,262.26648 C 289.65401,267.3833 290.39346,270.12175 292.21333,272.82425 C 294.98629,276.94203 300.6113,278.33208 305.21597,276.03745 z M 813.24233,278.39297 C 804.22702,275.04578 799.27077,265.13376 801.7853,255.47986 C 803.19944,250.05066 806.90226,245.48568 811.75742,243.18592 C 814.29068,241.98595 814.91235,241.86341 818.46523,241.86369 C 823.00823,241.86405 825.41682,242.71946 828.09648,245.28424 C 829.99401,247.10047 830.83074,248.87633 830.83074,251.08764 C 830.83074,254.20484 827.29041,255.83507 825.00755,253.76908 C 822.86907,251.83379 824.26854,247.90916 827.12103,247.84201 C 828.13076,247.81823 828.12104,247.78939 826.64055,246.41253 C 823.8212,243.79049 817.93563,242.90338 814.47463,244.57881 C 809.31614,247.07597 806.51446,255.14843 807.70444,264.08572 C 808.32938,268.77991 809.75633,272.03727 812.15706,274.25021 C 814.46262,276.37542 816.21083,277.1051 818.99678,277.1051 C 823.5275,277.1051 827.35146,274.69846 828.94372,270.84499 C 830.01734,268.24665 830.22003,267.89714 830.75688,267.71818 C 831.62763,267.42793 831.77023,268.85321 831.0572,270.72022 C 830.1125,273.19396 827.04893,276.50373 824.48625,277.8192 C 821.61892,279.29103 816.38109,279.55833 813.24233,278.39297 z M 848.75535,278.44854 C 837.77579,274.5247 833.05617,262.48484 838.27315,251.70803 C 839.74092,248.67606 843.68857,244.7577 846.83696,243.20773 C 849.36916,241.96116 849.86819,241.86338 853.69825,241.86338 C 857.33198,241.86338 858.11658,241.99823 860.22157,242.98452 C 863.48536,244.51369 867.50723,248.45322 869.09243,251.67361 C 874.0166,261.67739 870.2741,273.10411 860.58913,277.63626 C 857.08237,279.27725 852.04228,279.62321 848.75535,278.44854 z M 858.36672,276.03745 C 861.18748,274.63184 862.81005,272.59307 863.91397,269.06752 C 864.66809,266.659 864.8183,265.19463 864.82254,260.20556 C 864.83013,251.17262 863.28187,247.20128 858.79657,244.74883 C 856.94586,243.7369 856.12937,243.54504 853.70691,243.55284 C 845.78217,243.57837 841.82585,250.19262 842.51344,262.26648 C 842.80475,267.3833 843.5442,270.12175 845.36407,272.82425 C 848.13703,276.94203 853.76204,278.33208 858.36672,276.03745 z M -320.3988,277.16235 C -320.3988,276.01821 -320.3237,275.97623 -317.878,275.75447 C -316.49161,275.62875 -315.14683,275.3155 -314.88971,275.05834 C -314.55979,274.72838 -314.42213,270.53767 -314.42213,260.81795 C -314.42213,245.07288 -314.22819,245.88848 -318.06655,245.49232 C -320.27651,245.26423 -320.3988,245.19229 -320.3988,244.12022 C -320.3988,242.85703 -320.25663,242.82336 -312.46425,242.24135 L -308.85765,241.97197 L -308.85765,246.01717 L -308.85765,250.06236 L -307.69338,248.22988 C -306.40639,246.20423 -304.19934,244.12225 -302.15417,243.0046 C -301.1432,242.45212 -299.87175,242.27556 -296.90432,242.27556 C -292.58954,242.27556 -291.22285,242.74787 -288.75242,245.09271 C -286.43811,247.28936 -286.18753,248.96653 -286.18753,262.26251 C -286.18753,271.25697 -286.06092,274.23542 -285.65501,274.79063 C -285.28559,275.29578 -284.33815,275.59012 -282.56361,275.75102 C -280.07692,275.97651 -280.00482,276.0163 -280.00482,277.16235 L -280.00482,278.34165 L -289.07288,278.34165 L -298.14086,278.34165 L -298.14086,277.16154 C -298.14086,276.00423 -298.08838,275.9772 -295.42365,275.7633 C -293.92919,275.64334 -292.49173,275.33024 -292.22923,275.06753 C -291.88817,274.72614 -291.75201,270.92161 -291.75201,261.7302 C -291.75201,249.46232 -291.79257,248.78278 -292.63345,246.96431 C -293.37476,245.36092 -293.82458,244.9398 -295.46482,244.31338 C -297.13245,243.67649 -297.73539,243.63589 -299.6286,244.03299 C -304.28646,245.01 -307.5293,248.66991 -308.45731,253.99727 C -309.07633,257.55075 -308.85014,274.39435 -308.17439,275.06886 C -307.91189,275.33084 -306.47442,275.64334 -304.97997,275.7633 C -302.31533,275.9772 -302.26276,276.00423 -302.26276,277.16154 L -302.26276,278.34165 L -311.33082,278.34165 L -320.3988,278.34165 L -320.3988,277.16235 z M -235.48894,277.16235 C -235.48894,276.01821 -235.41384,275.97623 -232.96815,275.75447 C -231.58175,275.62875 -230.23697,275.3155 -229.97986,275.05834 C -229.64985,274.72838 -229.51228,270.53767 -229.51228,260.81795 C -229.51228,245.07288 -229.31834,245.88848 -233.15661,245.49232 C -235.36666,245.26423 -235.48894,245.19229 -235.48894,244.12022 C -235.48894,242.85703 -235.34678,242.82336 -227.5544,242.24135 L -223.94779,241.97197 L -223.94779,246.01717 L -223.94779,250.06236 L -222.78353,248.22988 C -221.49653,246.20423 -219.2894,244.12225 -217.24422,243.0046 C -216.23325,242.45212 -214.9619,242.27556 -211.99446,242.27556 C -207.67968,242.27556 -206.31299,242.74787 -203.84256,245.09271 C -201.52825,247.28936 -201.27767,248.96653 -201.27767,262.26251 C -201.27767,271.25697 -201.15106,274.23542 -200.74515,274.79063 C -200.37574,275.29578 -199.42829,275.59012 -197.65375,275.75102 C -195.16706,275.97651 -195.09496,276.0163 -195.09496,277.16235 L -195.09496,278.34165 L -204.16294,278.34165 L -213.231,278.34165 L -213.231,277.16154 C -213.231,276.00423 -213.17843,275.9772 -210.51379,275.7633 C -209.01934,275.64334 -207.58187,275.33024 -207.31937,275.06753 C -206.97831,274.72614 -206.84216,270.92161 -206.84216,261.7302 C -206.84216,249.46232 -206.88271,248.78278 -207.72351,246.96431 C -208.4649,245.36092 -208.91472,244.9398 -210.55497,244.31338 C -212.2226,243.67649 -212.82554,243.63589 -214.71874,244.03299 C -219.37661,245.01 -222.61945,248.66991 -223.54745,253.99727 C -224.16639,257.55075 -223.94028,274.39435 -223.26454,275.06886 C -223.00203,275.33084 -221.56457,275.64334 -220.07011,275.7633 C -217.40538,275.9772 -217.3529,276.00423 -217.3529,277.16154 L -217.3529,278.34165 L -226.42088,278.34165 L -235.48894,278.34165 L -235.48894,277.16235 z M 323.43242,277.15465 C 323.43242,276.00039 323.49966,275.96277 325.87078,275.79125 C 329.87313,275.50175 329.61513,276.5933 329.61513,259.949 L 329.61513,245.36695 L 326.52373,245.36695 L 323.43242,245.36695 L 323.43242,244.13039 L 323.43242,242.89384 L 326.47973,242.89384 L 329.52704,242.89384 L 329.68458,236.60804 C 329.82772,230.89206 329.93896,230.11341 330.91193,228.01862 C 334.24401,220.84418 343.72824,218.15818 347.96208,223.18988 C 350.91149,226.69503 346.61651,231.49198 343.40459,228.28005 C 342.07695,226.95245 342.10266,225.31183 343.47351,223.88099 L 344.55419,222.75302 L 343.07484,222.4755 C 341.98453,222.27096 341.13136,222.42453 339.83023,223.05957 C 336.24042,224.81162 334.97357,228.50271 334.97357,237.20987 L 334.97357,242.89384 L 339.7136,242.89384 L 344.45373,242.89384 L 344.45373,244.13039 L 344.45373,245.36695 L 339.7136,245.36695 L 334.97357,245.36695 L 334.97914,259.27815 C 334.98223,266.92931 335.09329,273.59386 335.22591,274.08826 C 335.53507,275.24122 336.17168,275.47241 339.81672,275.75547 C 342.77452,275.98517 342.805,275.99955 342.805,277.16459 L 342.805,278.34165 L 333.11871,278.34165 L 323.43242,278.34165 L 323.43242,277.15465 z M 876.58316,277.15465 C 876.58316,276.00039 876.6504,275.96277 879.02152,275.79125 C 883.02387,275.50175 882.76587,276.5933 882.76587,259.949 L 882.76587,245.36695 L 879.67447,245.36695 L 876.58316,245.36695 L 876.58316,244.13039 L 876.58316,242.89384 L 879.63047,242.89384 L 882.67778,242.89384 L 882.83532,236.60804 C 882.97846,230.89206 883.0897,230.11341 884.06268,228.01862 C 887.39476,220.84418 896.87898,218.15818 901.11282,223.18988 C 904.06223,226.69503 899.76725,231.49198 896.55533,228.28005 C 895.22769,226.95245 895.2534,225.31183 896.62425,223.88099 L 897.70493,222.75302 L 896.22559,222.4755 C 895.13527,222.27096 894.28211,222.42453 892.98098,223.05957 C 889.39116,224.81162 888.12431,228.50271 888.12431,237.20987 L 888.12431,242.89384 L 892.86444,242.89384 L 897.60447,242.89384 L 897.60447,244.13039 L 897.60447,245.36695 L 892.86444,245.36695 L 888.12431,245.36695 L 888.12997,259.27815 C 888.13297,266.92931 888.24403,273.59386 888.37666,274.08826 C 888.68581,275.24122 889.32242,275.47241 892.96746,275.75547 C 895.92526,275.98517 895.95575,275.99955 895.95575,277.16459 L 895.95575,278.34165 L 886.26945,278.34165 L 876.58316,278.34165 L 876.58316,277.15465 z M -411.21623,271.98444 C -411.64679,270.86236 -408.53418,265.57042 -405.5883,262.41601 L -402.75693,259.38412 L -459.3236,259.27962 C -512.68294,259.18103 -515.91606,259.13421 -516.34521,258.45378 C -516.67707,257.92767 -516.67707,257.53725 -516.34521,257.01114 C -515.91659,256.33152 -512.61614,256.2779 -459.25989,256.08373 L -402.62952,255.87764 L -403.96935,254.87253 C -406.82758,252.7284 -411.74672,245.27513 -411.21614,243.89252 C -411.07919,243.5357 -410.59553,243.31658 -410.10082,243.38728 C -409.49178,243.47432 -408.72803,244.43734 -407.5787,246.56758 C -405.56427,250.30091 -402.28326,253.67779 -398.51222,255.89876 C -396.95283,256.81719 -395.62298,257.7446 -395.55698,257.95968 C -395.49098,258.17476 -396.71011,259.06684 -398.26606,259.94208 C -401.89555,261.98371 -405.6741,265.81663 -407.66847,269.4797 C -409.25066,272.38585 -410.67602,273.39215 -411.21623,271.98444 z M 148.5295,271.98444 C 148.09894,270.86236 151.21146,265.57042 154.15733,262.41601 L 156.98879,259.38412 L 100.42213,259.27962 C 47.062697,259.18103 43.829662,259.13421 43.400429,258.45378 C 43.068652,257.92767 43.068652,257.53725 43.400429,257.01114 C 43.829132,256.33152 47.129582,256.2779 100.48583,256.08373 L 157.1162,255.87764 L 155.77637,254.87253 C 152.91814,252.7284 147.99901,245.27513 148.52959,243.89252 C 148.66654,243.5357 149.1502,243.31658 149.6449,243.38728 C 150.25394,243.47432 151.0176,244.43734 152.16703,246.56758 C 154.18137,250.30091 157.46247,253.67779 161.2335,255.89876 C 162.79281,256.81719 164.12274,257.7446 164.18866,257.95968 C 164.25466,258.17476 163.03561,259.06684 161.47966,259.94208 C 157.85017,261.98371 154.07154,265.81663 152.07726,269.4797 C 150.49506,272.38585 149.06971,273.39215 148.5295,271.98444 z M 695.08526,271.98444 C 694.6547,270.86236 697.76731,265.57042 700.71318,262.41601 L 703.54455,259.38412 L 646.97789,259.27962 C 593.61855,259.18103 590.38542,259.13421 589.95628,258.45378 C 589.62441,257.92767 589.62441,257.53725 589.95628,257.01114 C 590.38498,256.33152 593.68543,256.2779 647.04159,256.08373 L 703.67196,255.87764 L 702.33213,254.87253 C 699.47399,252.7284 694.55486,245.27513 695.08535,243.89252 C 695.2223,243.5357 695.70596,243.31658 696.20067,243.38728 C 696.8097,243.47432 697.57345,244.43734 698.72279,246.56758 C 700.73722,250.30091 704.01832,253.67779 707.78926,255.89876 C 709.34866,256.81719 710.6785,257.7446 710.74451,257.95968 C 710.81051,258.17476 709.59137,259.06684 708.03542,259.94208 C 704.40593,261.98371 700.62739,265.81663 698.63302,269.4797 C 697.05083,272.38585 695.62547,273.39215 695.08526,271.98444 z"
       id="path2384" />
    <path
       style="fill:none;fill-rule:evenodd;stroke:#000000;stroke-width:1;stroke-linecap:butt;stroke-linejoin:miter;stroke-miterlimit:4;stroke-dasharray:24, 24;stroke-dashoffset:0;stroke-opacity:1"
       d="M -348.57143,175.21933 L -351.42857,335.21933 L 508.57143,515.21932 L 511.42857,518.07647 L 517.14286,172.36218 L -348.57143,175.21933 z"
       id="path2388"
       sodipodi:nodetypes="cccccc" />
    <path
       style="fill:none;fill-rule:evenodd;stroke:#000000;stroke-width:1;stroke-linecap:butt;stroke-linejoin:miter;stroke-miterlimit:4;stroke-dasharray:24, 24;stroke-dashoffset:0;stroke-opacity:1"
       d="M 518.85714,734.6479 L 518.85714,568.93361 L -352.57143,371.79075 L -352.57143,731.79075 L 518.85714,734.6479 z"
       id="path2390" />
  </g>
</svg>
